%TF.GenerationSoftware,KiCad,Pcbnew,10.0.5*%
%TF.CreationDate,2026-10-02T10:27:15-07:00*%
%TF.ProjectId,Custom Keyboard,43757374-6f6d-4204-9b65-79626f617264,rev?*%
%TF.SameCoordinates,Original*%
%TF.FileFunction,Other,User*%
%FSLAX46Y46*%
G04 Gerber Fmt 4.6, Leading zero omitted, Abs format (unit mm)*
G04 Created by KiCad (PCBNEW 10.0.5) date 2026-10-02 10:27:15*
%MOMM*%
%LPD*%
G01*
G04 APERTURE LIST*
%ADD10C,0.050000*%
G04 APERTURE END LIST*
%TO.C,D56*%
D10*
X355937500Y-234535000D02*
X358437500Y-234535000D01*
X358437500Y-244255000D01*
X355937500Y-244255000D01*
X355937500Y-234535000D01*
%TO.C,D42*%
X327362500Y-215485000D02*
X329862500Y-215485000D01*
X329862500Y-225205000D01*
X327362500Y-225205000D01*
X327362500Y-215485000D01*
%TO.C,D7*%
X179725000Y-177385000D02*
X182225000Y-177385000D01*
X182225000Y-187105000D01*
X179725000Y-187105000D01*
X179725000Y-177385000D01*
%TO.C,R1*%
X450400000Y-248830000D02*
X453400000Y-248830000D01*
X453400000Y-258550000D01*
X450400000Y-258550000D01*
X450400000Y-248830000D01*
%TO.C,D54*%
X317837500Y-234535000D02*
X320337500Y-234535000D01*
X320337500Y-244255000D01*
X317837500Y-244255000D01*
X317837500Y-234535000D01*
%TO.C,D53*%
X298787500Y-234535000D02*
X301287500Y-234535000D01*
X301287500Y-244255000D01*
X298787500Y-244255000D01*
X298787500Y-234535000D01*
%TO.C,D58*%
X410706250Y-234535000D02*
X413206250Y-234535000D01*
X413206250Y-244255000D01*
X410706250Y-244255000D01*
X410706250Y-234535000D01*
%TO.C,R2*%
X420275000Y-142775000D02*
X429995000Y-142775000D01*
X429995000Y-145775000D01*
X420275000Y-145775000D01*
X420275000Y-142775000D01*
%TO.C,D21*%
X189250000Y-196435000D02*
X191750000Y-196435000D01*
X191750000Y-206155000D01*
X189250000Y-206155000D01*
X189250000Y-196435000D01*
%TO.C,D26*%
X284500000Y-196435000D02*
X287000000Y-196435000D01*
X287000000Y-206155000D01*
X284500000Y-206155000D01*
X284500000Y-196435000D01*
%TO.C,D63*%
X370225000Y-253585000D02*
X372725000Y-253585000D01*
X372725000Y-263305000D01*
X370225000Y-263305000D01*
X370225000Y-253585000D01*
%TO.C,D60*%
X179725000Y-253585000D02*
X182225000Y-253585000D01*
X182225000Y-263305000D01*
X179725000Y-263305000D01*
X179725000Y-253585000D01*
%TO.C,D20*%
X165437500Y-196435000D02*
X167937500Y-196435000D01*
X167937500Y-206155000D01*
X165437500Y-206155000D01*
X165437500Y-196435000D01*
%TO.C,D25*%
X265450000Y-196435000D02*
X267950000Y-196435000D01*
X267950000Y-206155000D01*
X265450000Y-206155000D01*
X265450000Y-196435000D01*
%TO.C,D1*%
X160675000Y-147540000D02*
X163175000Y-147540000D01*
X163175000Y-157260000D01*
X160675000Y-157260000D01*
X160675000Y-147540000D01*
%TO.C,D38*%
X251162500Y-215485000D02*
X253662500Y-215485000D01*
X253662500Y-225205000D01*
X251162500Y-225205000D01*
X251162500Y-215485000D01*
%TO.C,D19*%
X417850000Y-177385000D02*
X420350000Y-177385000D01*
X420350000Y-187105000D01*
X417850000Y-187105000D01*
X417850000Y-177385000D01*
%TO.C,D9*%
X217825000Y-177385000D02*
X220325000Y-177385000D01*
X220325000Y-187105000D01*
X217825000Y-187105000D01*
X217825000Y-177385000D01*
%TO.C,D2*%
X198775000Y-148492500D02*
X201275000Y-148492500D01*
X201275000Y-158212500D01*
X198775000Y-158212500D01*
X198775000Y-148492500D01*
%TO.C,U1*%
X266525000Y-146175000D02*
X305025000Y-146175000D01*
X305025000Y-158675000D01*
X266525000Y-158675000D01*
X266525000Y-146175000D01*
%TO.C,D22*%
X208300000Y-196435000D02*
X210800000Y-196435000D01*
X210800000Y-206155000D01*
X208300000Y-206155000D01*
X208300000Y-196435000D01*
%TO.C,D5*%
X255925000Y-148492500D02*
X258425000Y-148492500D01*
X258425000Y-158212500D01*
X255925000Y-158212500D01*
X255925000Y-148492500D01*
%TO.C,D12*%
X274975000Y-177385000D02*
X277475000Y-177385000D01*
X277475000Y-187105000D01*
X274975000Y-187105000D01*
X274975000Y-177385000D01*
%TO.C,Screw_Mount*%
X482250000Y-141900000D02*
G75*
G02*
X475350000Y-141900000I-3450000J0D01*
G01*
X475350000Y-141900000D02*
G75*
G02*
X482250000Y-141900000I3450000J0D01*
G01*
%TO.C,D23*%
X227350000Y-196435000D02*
X229850000Y-196435000D01*
X229850000Y-206155000D01*
X227350000Y-206155000D01*
X227350000Y-196435000D01*
%TO.C,C3*%
X478800000Y-243750000D02*
X481800000Y-243750000D01*
X481800000Y-250850000D01*
X478800000Y-250850000D01*
X478800000Y-243750000D01*
%TO.C,Screw_Mount*%
X140550000Y-141900000D02*
G75*
G02*
X133650000Y-141900000I-3450000J0D01*
G01*
X133650000Y-141900000D02*
G75*
G02*
X140550000Y-141900000I3450000J0D01*
G01*
%TO.C,D51*%
X260687500Y-234535000D02*
X263187500Y-234535000D01*
X263187500Y-244255000D01*
X260687500Y-244255000D01*
X260687500Y-234535000D01*
%TO.C,D30*%
X360700000Y-196435000D02*
X363200000Y-196435000D01*
X363200000Y-206155000D01*
X360700000Y-206155000D01*
X360700000Y-196435000D01*
%TO.C,D6*%
X160675000Y-177385000D02*
X163175000Y-177385000D01*
X163175000Y-187105000D01*
X160675000Y-187105000D01*
X160675000Y-177385000D01*
%TO.C,D34*%
X167818750Y-215961250D02*
X170318750Y-215961250D01*
X170318750Y-225681250D01*
X167818750Y-225681250D01*
X167818750Y-215961250D01*
%TO.C,D13*%
X294025000Y-177385000D02*
X296525000Y-177385000D01*
X296525000Y-187105000D01*
X294025000Y-187105000D01*
X294025000Y-177385000D01*
%TO.C,D15*%
X332125000Y-177385000D02*
X334625000Y-177385000D01*
X334625000Y-187105000D01*
X332125000Y-187105000D01*
X332125000Y-177385000D01*
%TO.C,U2*%
X457100000Y-251395000D02*
X468300000Y-251395000D01*
X468300000Y-269805000D01*
X457100000Y-269805000D01*
X457100000Y-251395000D01*
%TO.C,D49*%
X222587500Y-234535000D02*
X225087500Y-234535000D01*
X225087500Y-244255000D01*
X222587500Y-244255000D01*
X222587500Y-234535000D01*
%TO.C,D4*%
X236875000Y-147540000D02*
X239375000Y-147540000D01*
X239375000Y-157260000D01*
X236875000Y-157260000D01*
X236875000Y-147540000D01*
%TO.C,D17*%
X370225000Y-177385000D02*
X372725000Y-177385000D01*
X372725000Y-187105000D01*
X370225000Y-187105000D01*
X370225000Y-177385000D01*
%TO.C,D62*%
X284500000Y-253585000D02*
X287000000Y-253585000D01*
X287000000Y-263305000D01*
X284500000Y-263305000D01*
X284500000Y-253585000D01*
%TO.C,D11*%
X255925000Y-177385000D02*
X258425000Y-177385000D01*
X258425000Y-187105000D01*
X255925000Y-187105000D01*
X255925000Y-177385000D01*
%TO.C,D65*%
X408325000Y-253585000D02*
X410825000Y-253585000D01*
X410825000Y-263305000D01*
X408325000Y-263305000D01*
X408325000Y-253585000D01*
%TO.C,U4*%
X431340000Y-141100000D02*
X441070000Y-141100000D01*
X441070000Y-161920000D01*
X431340000Y-161920000D01*
X431340000Y-141100000D01*
%TO.C,D41*%
X308312500Y-215485000D02*
X310812500Y-215485000D01*
X310812500Y-225205000D01*
X308312500Y-225205000D01*
X308312500Y-215485000D01*
%TO.C,D45*%
X384512500Y-215485000D02*
X387012500Y-215485000D01*
X387012500Y-225205000D01*
X384512500Y-225205000D01*
X384512500Y-215485000D01*
%TO.C,D24*%
X246400000Y-196435000D02*
X248900000Y-196435000D01*
X248900000Y-206155000D01*
X246400000Y-206155000D01*
X246400000Y-196435000D01*
%TO.C,D66*%
X427375000Y-253585000D02*
X429875000Y-253585000D01*
X429875000Y-263305000D01*
X427375000Y-263305000D01*
X427375000Y-253585000D01*
%TO.C,D10*%
X236875000Y-177385000D02*
X239375000Y-177385000D01*
X239375000Y-187105000D01*
X236875000Y-187105000D01*
X236875000Y-177385000D01*
%TO.C,D61*%
X198775000Y-253585000D02*
X201275000Y-253585000D01*
X201275000Y-263305000D01*
X198775000Y-263305000D01*
X198775000Y-253585000D01*
%TO.C,D43*%
X346412500Y-215485000D02*
X348912500Y-215485000D01*
X348912500Y-225205000D01*
X346412500Y-225205000D01*
X346412500Y-215485000D01*
%TO.C,D29*%
X341650000Y-196435000D02*
X344150000Y-196435000D01*
X344150000Y-206155000D01*
X341650000Y-206155000D01*
X341650000Y-196435000D01*
%TO.C,D48*%
X203537500Y-234535000D02*
X206037500Y-234535000D01*
X206037500Y-244255000D01*
X203537500Y-244255000D01*
X203537500Y-234535000D01*
%TO.C,R3*%
X420275000Y-146825000D02*
X429995000Y-146825000D01*
X429995000Y-149825000D01*
X420275000Y-149825000D01*
X420275000Y-146825000D01*
%TO.C,RE2*%
X319600000Y-143862500D02*
X319600000Y-159262500D01*
X319600000Y-143862500D02*
X337100000Y-143862500D01*
X337100000Y-159262500D02*
X319600000Y-159262500D01*
X337100000Y-159262500D02*
X337100000Y-143862500D01*
%TO.C,D37*%
X232112500Y-215485000D02*
X234612500Y-215485000D01*
X234612500Y-225205000D01*
X232112500Y-225205000D01*
X232112500Y-215485000D01*
%TO.C,D33*%
X422612500Y-196435000D02*
X425112500Y-196435000D01*
X425112500Y-206155000D01*
X422612500Y-206155000D01*
X422612500Y-196435000D01*
%TO.C,D55*%
X336887500Y-234535000D02*
X339387500Y-234535000D01*
X339387500Y-244255000D01*
X336887500Y-244255000D01*
X336887500Y-234535000D01*
%TO.C,D50*%
X241637500Y-234535000D02*
X244137500Y-234535000D01*
X244137500Y-244255000D01*
X241637500Y-244255000D01*
X241637500Y-234535000D01*
%TO.C,RE1*%
X348187500Y-143862500D02*
X348187500Y-159262500D01*
X348187500Y-143862500D02*
X365687500Y-143862500D01*
X365687500Y-159262500D02*
X348187500Y-159262500D01*
X365687500Y-159262500D02*
X365687500Y-143862500D01*
%TO.C,D8*%
X198775000Y-177385000D02*
X201275000Y-177385000D01*
X201275000Y-187105000D01*
X198775000Y-187105000D01*
X198775000Y-177385000D01*
%TO.C,D57*%
X374987500Y-234535000D02*
X377487500Y-234535000D01*
X377487500Y-244255000D01*
X374987500Y-244255000D01*
X374987500Y-234535000D01*
%TO.C,D39*%
X270212500Y-215485000D02*
X272712500Y-215485000D01*
X272712500Y-225205000D01*
X270212500Y-225205000D01*
X270212500Y-215485000D01*
%TO.C,D16*%
X351175000Y-177385000D02*
X353675000Y-177385000D01*
X353675000Y-187105000D01*
X351175000Y-187105000D01*
X351175000Y-177385000D01*
%TO.C,D18*%
X389275000Y-177385000D02*
X391775000Y-177385000D01*
X391775000Y-187105000D01*
X389275000Y-187105000D01*
X389275000Y-177385000D01*
%TO.C,A1*%
X452900000Y-136847500D02*
X461900000Y-136847500D01*
X461900000Y-138397500D01*
X468940000Y-138397500D01*
X468940000Y-190697500D01*
X445860000Y-190697500D01*
X445860000Y-138397500D01*
X452900000Y-138397500D01*
X452900000Y-136847500D01*
%TO.C,D59*%
X160675000Y-253585000D02*
X163175000Y-253585000D01*
X163175000Y-263305000D01*
X160675000Y-263305000D01*
X160675000Y-253585000D01*
%TO.C,D47*%
X172581250Y-234535000D02*
X175081250Y-234535000D01*
X175081250Y-244255000D01*
X172581250Y-244255000D01*
X172581250Y-234535000D01*
%TO.C,D40*%
X289262500Y-215485000D02*
X291762500Y-215485000D01*
X291762500Y-225205000D01*
X289262500Y-225205000D01*
X289262500Y-215485000D01*
%TO.C,D44*%
X365462500Y-215485000D02*
X367962500Y-215485000D01*
X367962500Y-225205000D01*
X365462500Y-225205000D01*
X365462500Y-215485000D01*
%TO.C,D32*%
X398800000Y-196435000D02*
X401300000Y-196435000D01*
X401300000Y-206155000D01*
X398800000Y-206155000D01*
X398800000Y-196435000D01*
%TO.C,D28*%
X322600000Y-196435000D02*
X325100000Y-196435000D01*
X325100000Y-206155000D01*
X322600000Y-206155000D01*
X322600000Y-196435000D01*
%TO.C,D27*%
X303550000Y-196435000D02*
X306050000Y-196435000D01*
X306050000Y-206155000D01*
X303550000Y-206155000D01*
X303550000Y-196435000D01*
%TO.C,D52*%
X279737500Y-234535000D02*
X282237500Y-234535000D01*
X282237500Y-244255000D01*
X279737500Y-244255000D01*
X279737500Y-234535000D01*
%TO.C,D46*%
X415468750Y-215485000D02*
X417968750Y-215485000D01*
X417968750Y-225205000D01*
X415468750Y-225205000D01*
X415468750Y-215485000D01*
%TO.C,D64*%
X389275000Y-253585000D02*
X391775000Y-253585000D01*
X391775000Y-263305000D01*
X389275000Y-263305000D01*
X389275000Y-253585000D01*
%TO.C,D35*%
X194012500Y-215485000D02*
X196512500Y-215485000D01*
X196512500Y-225205000D01*
X194012500Y-225205000D01*
X194012500Y-215485000D01*
%TO.C,D31*%
X379750000Y-196435000D02*
X382250000Y-196435000D01*
X382250000Y-206155000D01*
X379750000Y-206155000D01*
X379750000Y-196435000D01*
%TO.C,Screw_Mount*%
X140550000Y-267700000D02*
G75*
G02*
X133650000Y-267700000I-3450000J0D01*
G01*
X133650000Y-267700000D02*
G75*
G02*
X140550000Y-267700000I3450000J0D01*
G01*
%TO.C,D14*%
X313075000Y-177385000D02*
X315575000Y-177385000D01*
X315575000Y-187105000D01*
X313075000Y-187105000D01*
X313075000Y-177385000D01*
%TO.C,D36*%
X213062500Y-215485000D02*
X215562500Y-215485000D01*
X215562500Y-225205000D01*
X213062500Y-225205000D01*
X213062500Y-215485000D01*
%TO.C,Screw_Mount*%
X482250000Y-267700000D02*
G75*
G02*
X475350000Y-267700000I-3450000J0D01*
G01*
X475350000Y-267700000D02*
G75*
G02*
X482250000Y-267700000I3450000J0D01*
G01*
%TO.C,C2*%
X428100000Y-156950000D02*
X431100000Y-156950000D01*
X431100000Y-164050000D01*
X428100000Y-164050000D01*
X428100000Y-156950000D01*
%TO.C,D3*%
X217825000Y-148492500D02*
X220325000Y-148492500D01*
X220325000Y-158212500D01*
X217825000Y-158212500D01*
X217825000Y-148492500D01*
%TD*%
M02*
