M48
; DRILL file KiCad 10.0.5 date 2026-10-02T10:27:09
; FORMAT={-:-/ absolute / metric / decimal}
; #@! TF.CreationDate,2026-10-02T10:27:09-07:00
; #@! TF.GenerationSoftware,Kicad,Pcbnew,10.0.5
; #@! TF.FileFunction,Plated,1,2,PTH
FMAT,2
METRIC
; #@! TA.AperFunction,Plated,PTH,ViaDrill
T1C0.300
; #@! TA.AperFunction,Plated,PTH,ComponentDrill
T2C0.800
; #@! TA.AperFunction,Plated,PTH,ComponentDrill
T3C1.000
; #@! TA.AperFunction,Plated,PTH,ComponentDrill
T4C1.200
; #@! TA.AperFunction,Plated,PTH,ComponentDrill
T5C2.600
; #@! TA.AperFunction,Plated,PTH,ComponentDrill
T6C3.048
%
G90
G05
T1
X143.85Y-154.7
X144.05Y-166.9
X145.275Y-265.775
X147.1Y-186.4
X147.95Y-159.8
X149.4Y-158.9
X149.7Y-265.05
X151.85Y-205.7
X153.5Y-224.55
X155.15Y-159.75
X155.15Y-188.45
X155.15Y-266.85
X157.75Y-157.95
X157.95Y-184.9
X159.85Y-207.75
X161.55Y-203.95
X161.75Y-245.8
X162.25Y-226.6
X163.45Y-261.6
X166.75Y-262.6
X166.8Y-157.65
X167.05Y-246.45
X167.5Y-185.5
X171.0Y-247.35
X172.65Y-222.95
X173.1Y-157.4
X174.2Y-188.5
X174.2Y-266.9
X176.3Y-191.6
X176.7Y-204.6
X176.8Y-221.9
X178.05Y-242.15
X178.1Y-243.975
X179.7Y-213.7
X179.9Y-247.1
X179.9Y-248.7
X179.9Y-250.7
X180.2Y-223.2
X181.05Y-188.975
X182.35Y-160.9
X182.4Y-261.75
X182.5Y-172.9
X182.7Y-185.0
X182.7Y-189.3
X183.675Y-248.525
X183.7Y-207.55
X184.225Y-244.4
X184.55Y-160.9
X185.35Y-157.45
X185.35Y-203.85
X186.0Y-262.6
X186.55Y-185.7
X186.9Y-248.5
X188.175Y-188.85
X188.4Y-226.8
X188.8Y-189.6
X189.4Y-193.0
X189.75Y-248.2
X190.65Y-242.75
X191.55Y-208.325
X193.2Y-202.9
X193.25Y-159.7
X193.25Y-188.55
X193.25Y-266.85
X194.275Y-227.9
X195.15Y-184.8
X195.2Y-204.65
X196.05Y-155.95
X196.75Y-223.25
X197.1Y-247.5
X198.0Y-247.05
X199.725Y-270.675
X199.8Y-223.95
X200.8Y-173.0
X202.075Y-248.05
X202.75Y-207.6
X202.85Y-189.2
X203.6Y-156.05
X204.3Y-183.9
X204.375Y-227.725
X205.0Y-203.85
X206.05Y-260.85
X206.1Y-242.05
X206.4Y-247.1
X207.55Y-226.9
X208.55Y-260.85
X209.7Y-243.6
X212.05Y-208.925
X212.3Y-159.65
X212.3Y-188.8
X213.5Y-228.15
X213.85Y-184.8
X213.9Y-155.85
X213.975Y-247.525
X214.0Y-263.7
X214.0Y-266.7
X215.1Y-204.5
X215.5Y-247.1
X215.512Y-223.332
X216.0Y-245.0
X216.95Y-247.65
X218.05Y-159.75
X218.65Y-223.7
X221.85Y-207.35
X222.2Y-248.625
X223.275Y-227.05
X223.8Y-184.35
X224.0Y-156.35
X224.1Y-203.85
X224.15Y-189.25
X225.3Y-242.75
X226.35Y-160.55
X226.65Y-226.6
X228.5Y-191.6
X228.9Y-243.45
X230.3Y-189.3
X230.4Y-248.075
X230.65Y-256.425
X231.35Y-159.65
X231.35Y-188.75
X232.95Y-184.75
X232.95Y-208.575
X233.575Y-226.725
X233.65Y-155.5
X234.05Y-204.55
X235.05Y-222.9
X236.15Y-247.6
X238.1Y-230.5
X238.587Y-160.319
X238.9Y-223.65
X240.2Y-248.325
X240.85Y-207.8
X240.975Y-246.775
X241.675Y-227.9
X241.7Y-156.1
X242.5Y-189.575
X242.8Y-203.85
X243.25Y-185.3
X244.15Y-242.15
X245.0Y-171.45
X245.65Y-226.5
X246.65Y-247.65
X246.9Y-189.7
X247.3Y-160.675
X247.85Y-243.55
X250.002Y-227.086
X250.4Y-188.75
X250.55Y-160.35
X250.725Y-246.75
X251.175Y-208.125
X252.3Y-184.75
X252.7Y-204.35
X254.05Y-222.95
X255.05Y-247.0
X255.1Y-167.05
X256.635Y-189.513
X257.6Y-223.5
X259.9Y-207.55
X260.65Y-227.625
X261.7Y-185.55
X261.8Y-203.85
X262.5Y-231.9
X264.575Y-189.0
X264.65Y-227.0
X265.3Y-141.65
X269.45Y-188.55
X269.525Y-208.125
X270.7Y-141.7
X271.55Y-184.85
X272.2Y-204.3
X273.1Y-222.9
X274.05Y-246.2
X275.95Y-241.95
X276.7Y-223.3
X276.8Y-244.8
X276.8Y-248.2
X277.6Y-248.925
X277.9Y-189.375
X277.975Y-244.0
X278.95Y-207.6
X279.0Y-266.85
X279.225Y-227.025
X280.5Y-203.85
X281.45Y-185.3
X281.85Y-245.4
X283.45Y-230.05
X283.7Y-226.8
X285.55Y-242.85
X286.525Y-188.875
X288.5Y-188.45
X288.55Y-208.2
X290.4Y-184.85
X291.3Y-204.35
X292.975Y-189.45
X293.1Y-246.8
X293.8Y-223.6
X293.8Y-227.2
X294.575Y-228.05
X298.05Y-207.65
X299.65Y-203.85
X300.1Y-185.75
X302.8Y-227.05
X303.675Y-189.0
X307.0Y-208.275
X307.55Y-188.5
X308.275Y-225.6
X309.6Y-184.8
X309.65Y-204.5
X309.75Y-189.45
X310.0Y-256.075
X312.3Y-246.75
X313.6Y-224.3
X316.4Y-227.7
X317.05Y-207.55
X318.8Y-203.95
X318.9Y-185.7
X319.2Y-208.85
X319.25Y-206.2
X321.55Y-189.55
X322.0Y-227.0
X324.85Y-207.6
X326.6Y-188.35
X327.475Y-225.725
X328.15Y-184.85
X328.8Y-204.5
X331.35Y-246.4
X333.05Y-188.6
X333.75Y-223.9
X334.05Y-227.5
X336.15Y-207.4
X338.525Y-209.125
X338.85Y-185.4
X339.2Y-204.15
X339.25Y-208.0
X339.65Y-242.55
X340.125Y-209.05
X340.275Y-204.15
X340.5Y-244.4
X340.85Y-227.0
X343.45Y-243.65
X345.575Y-225.55
X345.65Y-188.75
X345.85Y-168.5
X347.9Y-168.5
X348.1Y-167.0
X348.2Y-184.8
X348.2Y-246.1
X348.35Y-248.5
X349.2Y-246.225
X350.35Y-246.25
X352.75Y-188.5
X352.85Y-224.35
X352.85Y-227.3
X352.9Y-244.6
X355.0Y-207.65
X357.3Y-184.85
X358.3Y-246.75
X358.4Y-203.55
X358.4Y-208.4
X358.45Y-187.7
X358.45Y-189.75
X358.5Y-242.45
X358.85Y-209.15
X359.025Y-204.2
X359.85Y-244.55
X360.1Y-226.65
X362.35Y-243.05
X364.7Y-188.35
X364.7Y-266.85
X366.0Y-225.925
X367.8Y-184.85
X369.4Y-246.95
X371.05Y-247.7
X371.3Y-241.35
X371.85Y-225.55
X373.4Y-243.75
X373.95Y-227.75
X374.0Y-207.55
X374.075Y-188.675
X374.3Y-248.3
X377.15Y-185.1
X377.6Y-187.65
X378.0Y-204.95
X378.0Y-208.15
X379.0Y-226.85
X379.675Y-246.25
X379.7Y-189.65
X381.7Y-189.647
X383.75Y-188.4
X383.75Y-266.85
X384.825Y-226.15
X385.15Y-245.9
X386.975Y-187.85
X387.2Y-184.85
X387.2Y-242.6
X387.85Y-248.7
X393.15Y-207.7
X397.7Y-239.9
X398.6Y-223.05
X401.85Y-224.4
X401.9Y-227.75
X402.7Y-223.35
X402.85Y-266.8
X403.5Y-204.7
X403.55Y-208.25
X404.3Y-187.45
X405.1Y-185.1
X405.1Y-246.15
X406.35Y-189.7
X410.05Y-227.1
X410.35Y-188.925
X410.8Y-247.45
X411.05Y-251.35
X412.35Y-188.4
X414.45Y-188.45
X417.0Y-207.55
X419.3Y-140.017
X419.65Y-207.55
X421.85Y-266.8
X423.95Y-226.75
X424.325Y-151.275
X427.45Y-173.8
X428.85Y-205.15
X429.0Y-140.7
X429.0Y-186.05
X429.9Y-149.85
X429.9Y-151.875
X432.9Y-267.5
X432.942Y-268.302
X433.1Y-227.75
X433.15Y-228.6
X433.7Y-196.5
X434.2Y-189.85
X434.2Y-190.65
X434.25Y-175.5
X434.35Y-186.1
X434.4Y-248.5
X434.4Y-249.25
X434.497Y-208.402
X434.55Y-209.15
X434.85Y-171.986
X435.0Y-265.85
X435.25Y-205.15
X435.45Y-199.5
X435.85Y-229.25
X437.9Y-268.3
X438.5Y-267.5
X439.2Y-249.25
X439.6Y-248.5
X440.3Y-228.6
X440.675Y-269.55
X441.15Y-227.8
X442.1Y-209.2
X442.4Y-171.9
X442.6Y-146.6
X443.1Y-139.2
X443.2Y-144.4
X443.25Y-208.4
X443.85Y-190.65
X444.45Y-189.85
X444.6Y-171.9
X445.1Y-196.4
X452.25Y-193.7
X466.5Y-246.5
X466.5Y-249.2
X470.0Y-199.45
X471.4Y-191.8
X472.4Y-161.55
X472.4Y-171.95
X472.55Y-205.15
X473.6Y-213.0
X477.3Y-214.1
X478.8Y-173.0
X478.8Y-208.0
X478.8Y-212.15
X479.99Y-253.0
X480.3Y-155.4
X480.85Y-160.2
T2
X161.925Y-148.59
X161.925Y-156.21
X161.925Y-178.435
X161.925Y-186.055
X161.925Y-254.635
X161.925Y-262.255
X166.688Y-197.485
X166.688Y-205.105
X169.069Y-217.011
X169.069Y-224.631
X173.831Y-235.585
X173.831Y-243.205
X180.975Y-178.435
X180.975Y-186.055
X180.975Y-254.635
X180.975Y-262.255
X190.5Y-197.485
X190.5Y-205.105
X195.262Y-216.535
X195.262Y-224.155
X200.025Y-149.542
X200.025Y-157.162
X200.025Y-178.435
X200.025Y-186.055
X200.025Y-254.635
X200.025Y-262.255
X204.787Y-235.585
X204.787Y-243.205
X205.8Y-255.4
X209.3Y-255.4
X209.55Y-197.485
X209.55Y-205.105
X214.312Y-216.535
X214.312Y-224.155
X219.075Y-149.542
X219.075Y-157.162
X219.075Y-178.435
X219.075Y-186.055
X223.837Y-235.585
X223.837Y-243.205
X228.6Y-197.485
X228.6Y-205.105
X233.362Y-216.535
X233.362Y-224.155
X238.125Y-148.59
X238.125Y-156.21
X238.125Y-178.435
X238.125Y-186.055
X242.887Y-235.585
X242.887Y-243.205
X247.65Y-197.485
X247.65Y-205.105
X252.412Y-216.535
X252.412Y-224.155
X257.175Y-149.542
X257.175Y-157.162
X257.175Y-178.435
X257.175Y-186.055
X261.938Y-235.585
X261.938Y-243.205
X266.7Y-197.485
X266.7Y-205.105
X271.462Y-216.535
X271.462Y-224.155
X276.225Y-178.435
X276.225Y-186.055
X280.988Y-235.585
X280.988Y-243.205
X285.75Y-197.485
X285.75Y-205.105
X285.75Y-254.635
X285.75Y-262.255
X290.512Y-216.535
X290.512Y-224.155
X295.275Y-178.435
X295.275Y-186.055
X300.037Y-235.585
X300.037Y-243.205
X304.8Y-197.485
X304.8Y-205.105
X309.562Y-216.535
X309.562Y-224.155
X314.325Y-178.435
X314.325Y-186.055
X319.087Y-235.585
X319.087Y-243.205
X323.85Y-197.485
X323.85Y-205.105
X328.613Y-216.535
X328.613Y-224.155
X333.375Y-178.435
X333.375Y-186.055
X338.137Y-235.585
X338.137Y-243.205
X342.9Y-197.485
X342.9Y-205.105
X347.662Y-216.535
X347.662Y-224.155
X352.425Y-178.435
X352.425Y-186.055
X357.188Y-235.585
X357.188Y-243.205
X361.95Y-197.485
X361.95Y-205.105
X366.712Y-216.535
X366.712Y-224.155
X371.475Y-178.435
X371.475Y-186.055
X371.475Y-254.635
X371.475Y-262.255
X376.238Y-235.585
X376.238Y-243.205
X381.0Y-197.485
X381.0Y-205.105
X385.762Y-216.535
X385.762Y-224.155
X390.525Y-178.435
X390.525Y-186.055
X390.525Y-254.635
X390.525Y-262.255
X400.05Y-197.485
X400.05Y-205.105
X409.575Y-254.635
X409.575Y-262.255
X411.956Y-235.585
X411.956Y-243.205
X416.719Y-216.535
X416.719Y-224.155
X419.1Y-178.435
X419.1Y-186.055
X421.325Y-144.275
X421.325Y-148.325
X423.862Y-197.485
X423.862Y-205.105
X428.625Y-254.635
X428.625Y-262.255
X428.945Y-144.275
X428.945Y-148.325
X429.6Y-158.0
X429.6Y-163.0
X432.4Y-142.62
X432.4Y-145.16
X432.4Y-147.7
X432.4Y-150.24
X432.4Y-152.78
X432.4Y-155.32
X432.4Y-157.86
X432.4Y-160.4
X440.02Y-142.62
X440.02Y-145.16
X440.02Y-147.7
X440.02Y-150.24
X440.02Y-152.78
X440.02Y-155.32
X440.02Y-157.86
X440.02Y-160.4
X451.9Y-249.88
X451.9Y-257.5
X458.33Y-252.985
X458.33Y-255.525
X458.33Y-258.065
X458.33Y-260.605
X458.33Y-263.145
X458.33Y-265.685
X458.33Y-268.225
X467.12Y-252.985
X467.12Y-255.525
X467.12Y-258.065
X467.12Y-260.605
X467.12Y-263.145
X467.12Y-265.685
X467.12Y-268.225
X480.3Y-244.8
X480.3Y-249.8
T3
X268.275Y-148.615
X268.275Y-151.155
X268.275Y-153.695
X268.275Y-156.235
X321.1Y-149.062
X321.1Y-151.562
X321.1Y-154.062
X335.6Y-149.062
X335.6Y-154.062
X349.688Y-149.062
X349.688Y-151.562
X349.688Y-154.062
X364.188Y-149.062
X364.188Y-154.062
X448.51Y-140.017
X448.51Y-142.558
X448.51Y-145.097
X448.51Y-147.637
X448.51Y-150.177
X448.51Y-152.718
X448.51Y-155.257
X448.51Y-157.797
X448.51Y-160.338
X448.51Y-162.877
X448.51Y-165.417
X448.51Y-167.957
X448.51Y-170.498
X448.51Y-173.037
X448.51Y-175.577
X448.51Y-178.117
X448.51Y-180.657
X448.51Y-183.197
X448.51Y-185.737
X448.51Y-188.278
X466.29Y-140.017
X466.29Y-142.558
X466.29Y-145.097
X466.29Y-147.637
X466.29Y-150.177
X466.29Y-152.718
X466.29Y-155.257
X466.29Y-157.797
X466.29Y-160.338
X466.29Y-162.877
X466.29Y-165.417
X466.29Y-167.957
X466.29Y-170.498
X466.29Y-173.037
X466.29Y-175.577
X466.29Y-178.117
X466.29Y-180.657
X466.29Y-183.197
X466.29Y-185.737
X466.29Y-188.278
T5
X328.6Y-145.963
X328.6Y-157.162
X357.188Y-145.963
X357.188Y-157.162
T6
X226.219Y-250.507
X326.231Y-250.507
T4
G00X383.9Y-152.4
M15
G01X387.9Y-152.4
M16
G05
G00X383.9Y-159.4
M15
G01X387.9Y-159.4
M16
G05
G00X409.1Y-152.4
M15
G01X413.1Y-152.4
M16
G05
G00X409.1Y-159.4
M15
G01X413.1Y-159.4
M16
G05
M30
