%TF.GenerationSoftware,KiCad,Pcbnew,10.0.5*%
%TF.CreationDate,2026-10-02T10:27:15-07:00*%
%TF.ProjectId,Custom Keyboard,43757374-6f6d-4204-9b65-79626f617264,rev?*%
%TF.SameCoordinates,Original*%
%TF.FileFunction,Profile,NP*%
%FSLAX46Y46*%
G04 Gerber Fmt 4.6, Leading zero omitted, Abs format (unit mm)*
G04 Created by KiCad (PCBNEW 10.0.5) date 2026-10-02 10:27:15*
%MOMM*%
%LPD*%
G01*
G04 APERTURE LIST*
%TA.AperFunction,Profile*%
%ADD10C,0.050000*%
%TD*%
%TA.AperFunction,Profile*%
%ADD11C,0.120000*%
%TD*%
G04 APERTURE END LIST*
D10*
X133349999Y-138112500D02*
X482600000Y-138112500D01*
X482600000Y-271462500D01*
X133349999Y-271462500D01*
X133349999Y-138112500D01*
%TO.C,RGB_LED23*%
D11*
X407900000Y-185507500D02*
X407900000Y-184807147D01*
X407900000Y-185507500D02*
X407900000Y-186207853D01*
X409600000Y-184007500D02*
X408699647Y-184007500D01*
X409600000Y-184007500D02*
X410500353Y-184007500D01*
X409600000Y-187007500D02*
X408699647Y-187007500D01*
X409600000Y-187007500D02*
X410500353Y-187007500D01*
X411300000Y-185507500D02*
X411300000Y-184807147D01*
X411300000Y-185507500D02*
X411300000Y-186207853D01*
X407856066Y-184650845D02*
G75*
G02*
X407899982Y-184807147I-255666J-156155D01*
G01*
X407856066Y-184650845D02*
G75*
G02*
X408543345Y-183963566I426774J260505D01*
G01*
X407900000Y-186207853D02*
G75*
G02*
X407856066Y-186364155I-299370J-177D01*
G01*
X408543345Y-187051434D02*
G75*
G02*
X407856066Y-186364155I-260505J426774D01*
G01*
X408543345Y-187051434D02*
G75*
G02*
X408699647Y-187007503I156155J-255566D01*
G01*
X408699647Y-184007500D02*
G75*
G02*
X408543344Y-183963568I103J300380D01*
G01*
X410500353Y-187007500D02*
G75*
G02*
X410656655Y-187051434I3J-299992D01*
G01*
X410656655Y-183963566D02*
G75*
G02*
X410500353Y-184007500I-156299J256058D01*
G01*
X410656655Y-183963566D02*
G75*
G02*
X411343934Y-184650845I260503J-426776D01*
G01*
X411300000Y-184807147D02*
G75*
G02*
X411343934Y-184650845I299992J3D01*
G01*
X411343934Y-186364155D02*
G75*
G02*
X410656655Y-187051434I-426776J-260503D01*
G01*
X411343934Y-186364155D02*
G75*
G02*
X411300000Y-186207853I256058J156299D01*
G01*
%TO.C,RGB_LED61*%
X322175000Y-185550000D02*
X322175000Y-184849647D01*
X322175000Y-185550000D02*
X322175000Y-186250353D01*
X323875000Y-184050000D02*
X322974647Y-184050000D01*
X323875000Y-184050000D02*
X324775353Y-184050000D01*
X323875000Y-187050000D02*
X322974647Y-187050000D01*
X323875000Y-187050000D02*
X324775353Y-187050000D01*
X325575000Y-185550000D02*
X325575000Y-184849647D01*
X325575000Y-185550000D02*
X325575000Y-186250353D01*
X322131066Y-184693345D02*
G75*
G02*
X322174982Y-184849647I-255666J-156155D01*
G01*
X322131066Y-184693345D02*
G75*
G02*
X322818345Y-184006066I426774J260505D01*
G01*
X322175000Y-186250353D02*
G75*
G02*
X322131066Y-186406655I-299370J-177D01*
G01*
X322818345Y-187093934D02*
G75*
G02*
X322131066Y-186406655I-260505J426774D01*
G01*
X322818345Y-187093934D02*
G75*
G02*
X322974647Y-187050003I156155J-255566D01*
G01*
X322974647Y-184050000D02*
G75*
G02*
X322818344Y-184006068I103J300380D01*
G01*
X324775353Y-187050000D02*
G75*
G02*
X324931655Y-187093934I3J-299992D01*
G01*
X324931655Y-184006066D02*
G75*
G02*
X324775353Y-184050000I-156299J256058D01*
G01*
X324931655Y-184006066D02*
G75*
G02*
X325618934Y-184693345I260503J-426776D01*
G01*
X325575000Y-184849647D02*
G75*
G02*
X325618934Y-184693345I299992J3D01*
G01*
X325618934Y-186406655D02*
G75*
G02*
X324931655Y-187093934I-426776J-260503D01*
G01*
X325618934Y-186406655D02*
G75*
G02*
X325575000Y-186250353I256058J156299D01*
G01*
%TO.C,RGB_LED27*%
X241212500Y-223650000D02*
X241212500Y-222949647D01*
X241212500Y-223650000D02*
X241212500Y-224350353D01*
X242912500Y-222150000D02*
X242012147Y-222150000D01*
X242912500Y-222150000D02*
X243812853Y-222150000D01*
X242912500Y-225150000D02*
X242012147Y-225150000D01*
X242912500Y-225150000D02*
X243812853Y-225150000D01*
X244612500Y-223650000D02*
X244612500Y-222949647D01*
X244612500Y-223650000D02*
X244612500Y-224350353D01*
X241168566Y-222793345D02*
G75*
G02*
X241212482Y-222949647I-255666J-156155D01*
G01*
X241168566Y-222793345D02*
G75*
G02*
X241855845Y-222106066I426774J260505D01*
G01*
X241212500Y-224350353D02*
G75*
G02*
X241168566Y-224506655I-299370J-177D01*
G01*
X241855845Y-225193934D02*
G75*
G02*
X241168566Y-224506655I-260505J426774D01*
G01*
X241855845Y-225193934D02*
G75*
G02*
X242012147Y-225150003I156155J-255566D01*
G01*
X242012147Y-222150000D02*
G75*
G02*
X241855844Y-222106068I103J300380D01*
G01*
X243812853Y-225150000D02*
G75*
G02*
X243969155Y-225193934I3J-299992D01*
G01*
X243969155Y-222106066D02*
G75*
G02*
X243812853Y-222150000I-156299J256058D01*
G01*
X243969155Y-222106066D02*
G75*
G02*
X244656434Y-222793345I260503J-426776D01*
G01*
X244612500Y-222949647D02*
G75*
G02*
X244656434Y-222793345I299992J3D01*
G01*
X244656434Y-224506655D02*
G75*
G02*
X243969155Y-225193934I-426776J-260503D01*
G01*
X244656434Y-224506655D02*
G75*
G02*
X244612500Y-224350353I256058J156299D01*
G01*
%TO.C,RGB_LED53*%
X260250000Y-223607500D02*
X260250000Y-222907147D01*
X260250000Y-223607500D02*
X260250000Y-224307853D01*
X261950000Y-222107500D02*
X261049647Y-222107500D01*
X261950000Y-222107500D02*
X262850353Y-222107500D01*
X261950000Y-225107500D02*
X261049647Y-225107500D01*
X261950000Y-225107500D02*
X262850353Y-225107500D01*
X263650000Y-223607500D02*
X263650000Y-222907147D01*
X263650000Y-223607500D02*
X263650000Y-224307853D01*
X260206066Y-222750845D02*
G75*
G02*
X260249982Y-222907147I-255666J-156155D01*
G01*
X260206066Y-222750845D02*
G75*
G02*
X260893345Y-222063566I426774J260505D01*
G01*
X260250000Y-224307853D02*
G75*
G02*
X260206066Y-224464155I-299370J-177D01*
G01*
X260893345Y-225151434D02*
G75*
G02*
X260206066Y-224464155I-260505J426774D01*
G01*
X260893345Y-225151434D02*
G75*
G02*
X261049647Y-225107503I156155J-255566D01*
G01*
X261049647Y-222107500D02*
G75*
G02*
X260893344Y-222063568I103J300380D01*
G01*
X262850353Y-225107500D02*
G75*
G02*
X263006655Y-225151434I3J-299992D01*
G01*
X263006655Y-222063566D02*
G75*
G02*
X262850353Y-222107500I-156299J256058D01*
G01*
X263006655Y-222063566D02*
G75*
G02*
X263693934Y-222750845I260503J-426776D01*
G01*
X263650000Y-222907147D02*
G75*
G02*
X263693934Y-222750845I299992J3D01*
G01*
X263693934Y-224464155D02*
G75*
G02*
X263006655Y-225151434I-426776J-260503D01*
G01*
X263693934Y-224464155D02*
G75*
G02*
X263650000Y-224307853I256058J156299D01*
G01*
%TO.C,RGB_LED8*%
X265025000Y-185550000D02*
X265025000Y-184849647D01*
X265025000Y-185550000D02*
X265025000Y-186250353D01*
X266725000Y-184050000D02*
X265824647Y-184050000D01*
X266725000Y-184050000D02*
X267625353Y-184050000D01*
X266725000Y-187050000D02*
X265824647Y-187050000D01*
X266725000Y-187050000D02*
X267625353Y-187050000D01*
X268425000Y-185550000D02*
X268425000Y-184849647D01*
X268425000Y-185550000D02*
X268425000Y-186250353D01*
X264981066Y-184693345D02*
G75*
G02*
X265024982Y-184849647I-255666J-156155D01*
G01*
X264981066Y-184693345D02*
G75*
G02*
X265668345Y-184006066I426774J260505D01*
G01*
X265025000Y-186250353D02*
G75*
G02*
X264981066Y-186406655I-299370J-177D01*
G01*
X265668345Y-187093934D02*
G75*
G02*
X264981066Y-186406655I-260505J426774D01*
G01*
X265668345Y-187093934D02*
G75*
G02*
X265824647Y-187050003I156155J-255566D01*
G01*
X265824647Y-184050000D02*
G75*
G02*
X265668344Y-184006068I103J300380D01*
G01*
X267625353Y-187050000D02*
G75*
G02*
X267781655Y-187093934I3J-299992D01*
G01*
X267781655Y-184006066D02*
G75*
G02*
X267625353Y-184050000I-156299J256058D01*
G01*
X267781655Y-184006066D02*
G75*
G02*
X268468934Y-184693345I260503J-426776D01*
G01*
X268425000Y-184849647D02*
G75*
G02*
X268468934Y-184693345I299992J3D01*
G01*
X268468934Y-186406655D02*
G75*
G02*
X267781655Y-187093934I-426776J-260503D01*
G01*
X268468934Y-186406655D02*
G75*
G02*
X268425000Y-186250353I256058J156299D01*
G01*
%TO.C,RGB_LED36*%
X341225000Y-185550000D02*
X341225000Y-184849647D01*
X341225000Y-185550000D02*
X341225000Y-186250353D01*
X342925000Y-184050000D02*
X342024647Y-184050000D01*
X342925000Y-184050000D02*
X343825353Y-184050000D01*
X342925000Y-187050000D02*
X342024647Y-187050000D01*
X342925000Y-187050000D02*
X343825353Y-187050000D01*
X344625000Y-185550000D02*
X344625000Y-184849647D01*
X344625000Y-185550000D02*
X344625000Y-186250353D01*
X341181066Y-184693345D02*
G75*
G02*
X341224982Y-184849647I-255666J-156155D01*
G01*
X341181066Y-184693345D02*
G75*
G02*
X341868345Y-184006066I426774J260505D01*
G01*
X341225000Y-186250353D02*
G75*
G02*
X341181066Y-186406655I-299370J-177D01*
G01*
X341868345Y-187093934D02*
G75*
G02*
X341181066Y-186406655I-260505J426774D01*
G01*
X341868345Y-187093934D02*
G75*
G02*
X342024647Y-187050003I156155J-255566D01*
G01*
X342024647Y-184050000D02*
G75*
G02*
X341868344Y-184006068I103J300380D01*
G01*
X343825353Y-187050000D02*
G75*
G02*
X343981655Y-187093934I3J-299992D01*
G01*
X343981655Y-184006066D02*
G75*
G02*
X343825353Y-184050000I-156299J256058D01*
G01*
X343981655Y-184006066D02*
G75*
G02*
X344668934Y-184693345I260503J-426776D01*
G01*
X344625000Y-184849647D02*
G75*
G02*
X344668934Y-184693345I299992J3D01*
G01*
X344668934Y-186406655D02*
G75*
G02*
X343981655Y-187093934I-426776J-260503D01*
G01*
X344668934Y-186406655D02*
G75*
G02*
X344625000Y-186250353I256058J156299D01*
G01*
%TO.C,RGB_LED57*%
X345987500Y-242700000D02*
X345987500Y-241999647D01*
X345987500Y-242700000D02*
X345987500Y-243400353D01*
X347687500Y-241200000D02*
X346787147Y-241200000D01*
X347687500Y-241200000D02*
X348587853Y-241200000D01*
X347687500Y-244200000D02*
X346787147Y-244200000D01*
X347687500Y-244200000D02*
X348587853Y-244200000D01*
X349387500Y-242700000D02*
X349387500Y-241999647D01*
X349387500Y-242700000D02*
X349387500Y-243400353D01*
X345943566Y-241843345D02*
G75*
G02*
X345987482Y-241999647I-255666J-156155D01*
G01*
X345943566Y-241843345D02*
G75*
G02*
X346630845Y-241156066I426774J260505D01*
G01*
X345987500Y-243400353D02*
G75*
G02*
X345943566Y-243556655I-299370J-177D01*
G01*
X346630845Y-244243934D02*
G75*
G02*
X345943566Y-243556655I-260505J426774D01*
G01*
X346630845Y-244243934D02*
G75*
G02*
X346787147Y-244200003I156155J-255566D01*
G01*
X346787147Y-241200000D02*
G75*
G02*
X346630844Y-241156068I103J300380D01*
G01*
X348587853Y-244200000D02*
G75*
G02*
X348744155Y-244243934I3J-299992D01*
G01*
X348744155Y-241156066D02*
G75*
G02*
X348587853Y-241200000I-156299J256058D01*
G01*
X348744155Y-241156066D02*
G75*
G02*
X349431434Y-241843345I260503J-426776D01*
G01*
X349387500Y-241999647D02*
G75*
G02*
X349431434Y-241843345I299992J3D01*
G01*
X349431434Y-243556655D02*
G75*
G02*
X348744155Y-244243934I-426776J-260503D01*
G01*
X349431434Y-243556655D02*
G75*
G02*
X349387500Y-243400353I256058J156299D01*
G01*
%TO.C,RGB_LED5*%
X293600000Y-204607500D02*
X293600000Y-203907147D01*
X293600000Y-204607500D02*
X293600000Y-205307853D01*
X295300000Y-203107500D02*
X294399647Y-203107500D01*
X295300000Y-203107500D02*
X296200353Y-203107500D01*
X295300000Y-206107500D02*
X294399647Y-206107500D01*
X295300000Y-206107500D02*
X296200353Y-206107500D01*
X297000000Y-204607500D02*
X297000000Y-203907147D01*
X297000000Y-204607500D02*
X297000000Y-205307853D01*
X293556066Y-203750845D02*
G75*
G02*
X293599982Y-203907147I-255666J-156155D01*
G01*
X293556066Y-203750845D02*
G75*
G02*
X294243345Y-203063566I426774J260505D01*
G01*
X293600000Y-205307853D02*
G75*
G02*
X293556066Y-205464155I-299370J-177D01*
G01*
X294243345Y-206151434D02*
G75*
G02*
X293556066Y-205464155I-260505J426774D01*
G01*
X294243345Y-206151434D02*
G75*
G02*
X294399647Y-206107503I156155J-255566D01*
G01*
X294399647Y-203107500D02*
G75*
G02*
X294243344Y-203063568I103J300380D01*
G01*
X296200353Y-206107500D02*
G75*
G02*
X296356655Y-206151434I3J-299992D01*
G01*
X296356655Y-203063566D02*
G75*
G02*
X296200353Y-203107500I-156299J256058D01*
G01*
X296356655Y-203063566D02*
G75*
G02*
X297043934Y-203750845I260503J-426776D01*
G01*
X297000000Y-203907147D02*
G75*
G02*
X297043934Y-203750845I299992J3D01*
G01*
X297043934Y-205464155D02*
G75*
G02*
X296356655Y-206151434I-426776J-260503D01*
G01*
X297043934Y-205464155D02*
G75*
G02*
X297000000Y-205307853I256058J156299D01*
G01*
%TO.C,RGB_LED18*%
X150725000Y-261750000D02*
X150725000Y-261049647D01*
X150725000Y-261750000D02*
X150725000Y-262450353D01*
X152425000Y-260250000D02*
X151524647Y-260250000D01*
X152425000Y-260250000D02*
X153325353Y-260250000D01*
X152425000Y-263250000D02*
X151524647Y-263250000D01*
X152425000Y-263250000D02*
X153325353Y-263250000D01*
X154125000Y-261750000D02*
X154125000Y-261049647D01*
X154125000Y-261750000D02*
X154125000Y-262450353D01*
X150681066Y-260893345D02*
G75*
G02*
X150724982Y-261049647I-255666J-156155D01*
G01*
X150681066Y-260893345D02*
G75*
G02*
X151368345Y-260206066I426774J260505D01*
G01*
X150725000Y-262450353D02*
G75*
G02*
X150681066Y-262606655I-299370J-177D01*
G01*
X151368345Y-263293934D02*
G75*
G02*
X150681066Y-262606655I-260505J426774D01*
G01*
X151368345Y-263293934D02*
G75*
G02*
X151524647Y-263250003I156155J-255566D01*
G01*
X151524647Y-260250000D02*
G75*
G02*
X151368344Y-260206068I103J300380D01*
G01*
X153325353Y-263250000D02*
G75*
G02*
X153481655Y-263293934I3J-299992D01*
G01*
X153481655Y-260206066D02*
G75*
G02*
X153325353Y-260250000I-156299J256058D01*
G01*
X153481655Y-260206066D02*
G75*
G02*
X154168934Y-260893345I260503J-426776D01*
G01*
X154125000Y-261049647D02*
G75*
G02*
X154168934Y-260893345I299992J3D01*
G01*
X154168934Y-262606655D02*
G75*
G02*
X153481655Y-263293934I-426776J-260503D01*
G01*
X154168934Y-262606655D02*
G75*
G02*
X154125000Y-262450353I256058J156299D01*
G01*
%TO.C,RGB_LED9*%
X379300000Y-185607500D02*
X379300000Y-184907147D01*
X379300000Y-185607500D02*
X379300000Y-186307853D01*
X381000000Y-184107500D02*
X380099647Y-184107500D01*
X381000000Y-184107500D02*
X381900353Y-184107500D01*
X381000000Y-187107500D02*
X380099647Y-187107500D01*
X381000000Y-187107500D02*
X381900353Y-187107500D01*
X382700000Y-185607500D02*
X382700000Y-184907147D01*
X382700000Y-185607500D02*
X382700000Y-186307853D01*
X379256066Y-184750845D02*
G75*
G02*
X379299982Y-184907147I-255666J-156155D01*
G01*
X379256066Y-184750845D02*
G75*
G02*
X379943345Y-184063566I426774J260505D01*
G01*
X379300000Y-186307853D02*
G75*
G02*
X379256066Y-186464155I-299370J-177D01*
G01*
X379943345Y-187151434D02*
G75*
G02*
X379256066Y-186464155I-260505J426774D01*
G01*
X379943345Y-187151434D02*
G75*
G02*
X380099647Y-187107503I156155J-255566D01*
G01*
X380099647Y-184107500D02*
G75*
G02*
X379943344Y-184063568I103J300380D01*
G01*
X381900353Y-187107500D02*
G75*
G02*
X382056655Y-187151434I3J-299992D01*
G01*
X382056655Y-184063566D02*
G75*
G02*
X381900353Y-184107500I-156299J256058D01*
G01*
X382056655Y-184063566D02*
G75*
G02*
X382743934Y-184750845I260503J-426776D01*
G01*
X382700000Y-184907147D02*
G75*
G02*
X382743934Y-184750845I299992J3D01*
G01*
X382743934Y-186464155D02*
G75*
G02*
X382056655Y-187151434I-426776J-260503D01*
G01*
X382743934Y-186464155D02*
G75*
G02*
X382700000Y-186307853I256058J156299D01*
G01*
%TO.C,RGB_LED33*%
X360275000Y-261750000D02*
X360275000Y-261049647D01*
X360275000Y-261750000D02*
X360275000Y-262450353D01*
X361975000Y-260250000D02*
X361074647Y-260250000D01*
X361975000Y-260250000D02*
X362875353Y-260250000D01*
X361975000Y-263250000D02*
X361074647Y-263250000D01*
X361975000Y-263250000D02*
X362875353Y-263250000D01*
X363675000Y-261750000D02*
X363675000Y-261049647D01*
X363675000Y-261750000D02*
X363675000Y-262450353D01*
X360231066Y-260893345D02*
G75*
G02*
X360274982Y-261049647I-255666J-156155D01*
G01*
X360231066Y-260893345D02*
G75*
G02*
X360918345Y-260206066I426774J260505D01*
G01*
X360275000Y-262450353D02*
G75*
G02*
X360231066Y-262606655I-299370J-177D01*
G01*
X360918345Y-263293934D02*
G75*
G02*
X360231066Y-262606655I-260505J426774D01*
G01*
X360918345Y-263293934D02*
G75*
G02*
X361074647Y-263250003I156155J-255566D01*
G01*
X361074647Y-260250000D02*
G75*
G02*
X360918344Y-260206068I103J300380D01*
G01*
X362875353Y-263250000D02*
G75*
G02*
X363031655Y-263293934I3J-299992D01*
G01*
X363031655Y-260206066D02*
G75*
G02*
X362875353Y-260250000I-156299J256058D01*
G01*
X363031655Y-260206066D02*
G75*
G02*
X363718934Y-260893345I260503J-426776D01*
G01*
X363675000Y-261049647D02*
G75*
G02*
X363718934Y-260893345I299992J3D01*
G01*
X363718934Y-262606655D02*
G75*
G02*
X363031655Y-263293934I-426776J-260503D01*
G01*
X363718934Y-262606655D02*
G75*
G02*
X363675000Y-262450353I256058J156299D01*
G01*
%TO.C,RGB_LED11*%
X312600000Y-204707500D02*
X312600000Y-204007147D01*
X312600000Y-204707500D02*
X312600000Y-205407853D01*
X314300000Y-203207500D02*
X313399647Y-203207500D01*
X314300000Y-203207500D02*
X315200353Y-203207500D01*
X314300000Y-206207500D02*
X313399647Y-206207500D01*
X314300000Y-206207500D02*
X315200353Y-206207500D01*
X316000000Y-204707500D02*
X316000000Y-204007147D01*
X316000000Y-204707500D02*
X316000000Y-205407853D01*
X312556066Y-203850845D02*
G75*
G02*
X312599982Y-204007147I-255666J-156155D01*
G01*
X312556066Y-203850845D02*
G75*
G02*
X313243345Y-203163566I426774J260505D01*
G01*
X312600000Y-205407853D02*
G75*
G02*
X312556066Y-205564155I-299370J-177D01*
G01*
X313243345Y-206251434D02*
G75*
G02*
X312556066Y-205564155I-260505J426774D01*
G01*
X313243345Y-206251434D02*
G75*
G02*
X313399647Y-206207503I156155J-255566D01*
G01*
X313399647Y-203207500D02*
G75*
G02*
X313243344Y-203163568I103J300380D01*
G01*
X315200353Y-206207500D02*
G75*
G02*
X315356655Y-206251434I3J-299992D01*
G01*
X315356655Y-203163566D02*
G75*
G02*
X315200353Y-203207500I-156299J256058D01*
G01*
X315356655Y-203163566D02*
G75*
G02*
X316043934Y-203850845I260503J-426776D01*
G01*
X316000000Y-204007147D02*
G75*
G02*
X316043934Y-203850845I299992J3D01*
G01*
X316043934Y-205564155D02*
G75*
G02*
X315356655Y-206251434I-426776J-260503D01*
G01*
X316043934Y-205564155D02*
G75*
G02*
X316000000Y-205407853I256058J156299D01*
G01*
%TO.C,RGB_LED19*%
X274550000Y-261750000D02*
X274550000Y-261049647D01*
X274550000Y-261750000D02*
X274550000Y-262450353D01*
X276250000Y-260250000D02*
X275349647Y-260250000D01*
X276250000Y-260250000D02*
X277150353Y-260250000D01*
X276250000Y-263250000D02*
X275349647Y-263250000D01*
X276250000Y-263250000D02*
X277150353Y-263250000D01*
X277950000Y-261750000D02*
X277950000Y-261049647D01*
X277950000Y-261750000D02*
X277950000Y-262450353D01*
X274506066Y-260893345D02*
G75*
G02*
X274549982Y-261049647I-255666J-156155D01*
G01*
X274506066Y-260893345D02*
G75*
G02*
X275193345Y-260206066I426774J260505D01*
G01*
X274550000Y-262450353D02*
G75*
G02*
X274506066Y-262606655I-299370J-177D01*
G01*
X275193345Y-263293934D02*
G75*
G02*
X274506066Y-262606655I-260505J426774D01*
G01*
X275193345Y-263293934D02*
G75*
G02*
X275349647Y-263250003I156155J-255566D01*
G01*
X275349647Y-260250000D02*
G75*
G02*
X275193344Y-260206068I103J300380D01*
G01*
X277150353Y-263250000D02*
G75*
G02*
X277306655Y-263293934I3J-299992D01*
G01*
X277306655Y-260206066D02*
G75*
G02*
X277150353Y-260250000I-156299J256058D01*
G01*
X277306655Y-260206066D02*
G75*
G02*
X277993934Y-260893345I260503J-426776D01*
G01*
X277950000Y-261049647D02*
G75*
G02*
X277993934Y-260893345I299992J3D01*
G01*
X277993934Y-262606655D02*
G75*
G02*
X277306655Y-263293934I-426776J-260503D01*
G01*
X277993934Y-262606655D02*
G75*
G02*
X277950000Y-262450353I256058J156299D01*
G01*
%TO.C,RGB_LED39*%
X369800000Y-204600000D02*
X369800000Y-203899647D01*
X369800000Y-204600000D02*
X369800000Y-205300353D01*
X371500000Y-203100000D02*
X370599647Y-203100000D01*
X371500000Y-203100000D02*
X372400353Y-203100000D01*
X371500000Y-206100000D02*
X370599647Y-206100000D01*
X371500000Y-206100000D02*
X372400353Y-206100000D01*
X373200000Y-204600000D02*
X373200000Y-203899647D01*
X373200000Y-204600000D02*
X373200000Y-205300353D01*
X369756066Y-203743345D02*
G75*
G02*
X369799982Y-203899647I-255666J-156155D01*
G01*
X369756066Y-203743345D02*
G75*
G02*
X370443345Y-203056066I426774J260505D01*
G01*
X369800000Y-205300353D02*
G75*
G02*
X369756066Y-205456655I-299370J-177D01*
G01*
X370443345Y-206143934D02*
G75*
G02*
X369756066Y-205456655I-260505J426774D01*
G01*
X370443345Y-206143934D02*
G75*
G02*
X370599647Y-206100003I156155J-255566D01*
G01*
X370599647Y-203100000D02*
G75*
G02*
X370443344Y-203056068I103J300380D01*
G01*
X372400353Y-206100000D02*
G75*
G02*
X372556655Y-206143934I3J-299992D01*
G01*
X372556655Y-203056066D02*
G75*
G02*
X372400353Y-203100000I-156299J256058D01*
G01*
X372556655Y-203056066D02*
G75*
G02*
X373243934Y-203743345I260503J-426776D01*
G01*
X373200000Y-203899647D02*
G75*
G02*
X373243934Y-203743345I299992J3D01*
G01*
X373243934Y-205456655D02*
G75*
G02*
X372556655Y-206143934I-426776J-260503D01*
G01*
X373243934Y-205456655D02*
G75*
G02*
X373200000Y-205300353I256058J156299D01*
G01*
%TO.C,RGB_LED16*%
X212600000Y-242707500D02*
X212600000Y-242007147D01*
X212600000Y-242707500D02*
X212600000Y-243407853D01*
X214300000Y-241207500D02*
X213399647Y-241207500D01*
X214300000Y-241207500D02*
X215200353Y-241207500D01*
X214300000Y-244207500D02*
X213399647Y-244207500D01*
X214300000Y-244207500D02*
X215200353Y-244207500D01*
X216000000Y-242707500D02*
X216000000Y-242007147D01*
X216000000Y-242707500D02*
X216000000Y-243407853D01*
X212556066Y-241850845D02*
G75*
G02*
X212599982Y-242007147I-255666J-156155D01*
G01*
X212556066Y-241850845D02*
G75*
G02*
X213243345Y-241163566I426774J260505D01*
G01*
X212600000Y-243407853D02*
G75*
G02*
X212556066Y-243564155I-299370J-177D01*
G01*
X213243345Y-244251434D02*
G75*
G02*
X212556066Y-243564155I-260505J426774D01*
G01*
X213243345Y-244251434D02*
G75*
G02*
X213399647Y-244207503I156155J-255566D01*
G01*
X213399647Y-241207500D02*
G75*
G02*
X213243344Y-241163568I103J300380D01*
G01*
X215200353Y-244207500D02*
G75*
G02*
X215356655Y-244251434I3J-299992D01*
G01*
X215356655Y-241163566D02*
G75*
G02*
X215200353Y-241207500I-156299J256058D01*
G01*
X215356655Y-241163566D02*
G75*
G02*
X216043934Y-241850845I260503J-426776D01*
G01*
X216000000Y-242007147D02*
G75*
G02*
X216043934Y-241850845I299992J3D01*
G01*
X216043934Y-243564155D02*
G75*
G02*
X215356655Y-244251434I-426776J-260503D01*
G01*
X216043934Y-243564155D02*
G75*
G02*
X216000000Y-243407853I256058J156299D01*
G01*
%TO.C,RGB_LED4*%
X198350000Y-204600000D02*
X198350000Y-203899647D01*
X198350000Y-204600000D02*
X198350000Y-205300353D01*
X200050000Y-203100000D02*
X199149647Y-203100000D01*
X200050000Y-203100000D02*
X200950353Y-203100000D01*
X200050000Y-206100000D02*
X199149647Y-206100000D01*
X200050000Y-206100000D02*
X200950353Y-206100000D01*
X201750000Y-204600000D02*
X201750000Y-203899647D01*
X201750000Y-204600000D02*
X201750000Y-205300353D01*
X198306066Y-203743345D02*
G75*
G02*
X198349982Y-203899647I-255666J-156155D01*
G01*
X198306066Y-203743345D02*
G75*
G02*
X198993345Y-203056066I426774J260505D01*
G01*
X198350000Y-205300353D02*
G75*
G02*
X198306066Y-205456655I-299370J-177D01*
G01*
X198993345Y-206143934D02*
G75*
G02*
X198306066Y-205456655I-260505J426774D01*
G01*
X198993345Y-206143934D02*
G75*
G02*
X199149647Y-206100003I156155J-255566D01*
G01*
X199149647Y-203100000D02*
G75*
G02*
X198993344Y-203056068I103J300380D01*
G01*
X200950353Y-206100000D02*
G75*
G02*
X201106655Y-206143934I3J-299992D01*
G01*
X201106655Y-203056066D02*
G75*
G02*
X200950353Y-203100000I-156299J256058D01*
G01*
X201106655Y-203056066D02*
G75*
G02*
X201793934Y-203743345I260503J-426776D01*
G01*
X201750000Y-203899647D02*
G75*
G02*
X201793934Y-203743345I299992J3D01*
G01*
X201793934Y-205456655D02*
G75*
G02*
X201106655Y-206143934I-426776J-260503D01*
G01*
X201793934Y-205456655D02*
G75*
G02*
X201750000Y-205300353I256058J156299D01*
G01*
%TO.C,RGB_LED34*%
X226925000Y-156657500D02*
X226925000Y-155957147D01*
X226925000Y-156657500D02*
X226925000Y-157357853D01*
X228625000Y-155157500D02*
X227724647Y-155157500D01*
X228625000Y-155157500D02*
X229525353Y-155157500D01*
X228625000Y-158157500D02*
X227724647Y-158157500D01*
X228625000Y-158157500D02*
X229525353Y-158157500D01*
X230325000Y-156657500D02*
X230325000Y-155957147D01*
X230325000Y-156657500D02*
X230325000Y-157357853D01*
X226881066Y-155800845D02*
G75*
G02*
X226924982Y-155957147I-255666J-156155D01*
G01*
X226881066Y-155800845D02*
G75*
G02*
X227568345Y-155113566I426774J260505D01*
G01*
X226925000Y-157357853D02*
G75*
G02*
X226881066Y-157514155I-299370J-177D01*
G01*
X227568345Y-158201434D02*
G75*
G02*
X226881066Y-157514155I-260505J426774D01*
G01*
X227568345Y-158201434D02*
G75*
G02*
X227724647Y-158157503I156155J-255566D01*
G01*
X227724647Y-155157500D02*
G75*
G02*
X227568344Y-155113568I103J300380D01*
G01*
X229525353Y-158157500D02*
G75*
G02*
X229681655Y-158201434I3J-299992D01*
G01*
X229681655Y-155113566D02*
G75*
G02*
X229525353Y-155157500I-156299J256058D01*
G01*
X229681655Y-155113566D02*
G75*
G02*
X230368934Y-155800845I260503J-426776D01*
G01*
X230325000Y-155957147D02*
G75*
G02*
X230368934Y-155800845I299992J3D01*
G01*
X230368934Y-157514155D02*
G75*
G02*
X229681655Y-158201434I-426776J-260503D01*
G01*
X230368934Y-157514155D02*
G75*
G02*
X230325000Y-157357853I256058J156299D01*
G01*
%TO.C,RGB_LED58*%
X398400000Y-261807500D02*
X398400000Y-261107147D01*
X398400000Y-261807500D02*
X398400000Y-262507853D01*
X400100000Y-260307500D02*
X399199647Y-260307500D01*
X400100000Y-260307500D02*
X401000353Y-260307500D01*
X400100000Y-263307500D02*
X399199647Y-263307500D01*
X400100000Y-263307500D02*
X401000353Y-263307500D01*
X401800000Y-261807500D02*
X401800000Y-261107147D01*
X401800000Y-261807500D02*
X401800000Y-262507853D01*
X398356066Y-260950845D02*
G75*
G02*
X398399982Y-261107147I-255666J-156155D01*
G01*
X398356066Y-260950845D02*
G75*
G02*
X399043345Y-260263566I426774J260505D01*
G01*
X398400000Y-262507853D02*
G75*
G02*
X398356066Y-262664155I-299370J-177D01*
G01*
X399043345Y-263351434D02*
G75*
G02*
X398356066Y-262664155I-260505J426774D01*
G01*
X399043345Y-263351434D02*
G75*
G02*
X399199647Y-263307503I156155J-255566D01*
G01*
X399199647Y-260307500D02*
G75*
G02*
X399043344Y-260263568I103J300380D01*
G01*
X401000353Y-263307500D02*
G75*
G02*
X401156655Y-263351434I3J-299992D01*
G01*
X401156655Y-260263566D02*
G75*
G02*
X401000353Y-260307500I-156299J256058D01*
G01*
X401156655Y-260263566D02*
G75*
G02*
X401843934Y-260950845I260503J-426776D01*
G01*
X401800000Y-261107147D02*
G75*
G02*
X401843934Y-260950845I299992J3D01*
G01*
X401843934Y-262664155D02*
G75*
G02*
X401156655Y-263351434I-426776J-260503D01*
G01*
X401843934Y-262664155D02*
G75*
G02*
X401800000Y-262507853I256058J156299D01*
G01*
%TO.C,RGB_LED45*%
X400775000Y-242450000D02*
X400775000Y-241749647D01*
X400775000Y-242450000D02*
X400775000Y-243150353D01*
X402475000Y-240950000D02*
X401574647Y-240950000D01*
X402475000Y-240950000D02*
X403375353Y-240950000D01*
X402475000Y-243950000D02*
X401574647Y-243950000D01*
X402475000Y-243950000D02*
X403375353Y-243950000D01*
X404175000Y-242450000D02*
X404175000Y-241749647D01*
X404175000Y-242450000D02*
X404175000Y-243150353D01*
X400731066Y-241593345D02*
G75*
G02*
X400774982Y-241749647I-255666J-156155D01*
G01*
X400731066Y-241593345D02*
G75*
G02*
X401418345Y-240906066I426774J260505D01*
G01*
X400775000Y-243150353D02*
G75*
G02*
X400731066Y-243306655I-299370J-177D01*
G01*
X401418345Y-243993934D02*
G75*
G02*
X400731066Y-243306655I-260505J426774D01*
G01*
X401418345Y-243993934D02*
G75*
G02*
X401574647Y-243950003I156155J-255566D01*
G01*
X401574647Y-240950000D02*
G75*
G02*
X401418344Y-240906068I103J300380D01*
G01*
X403375353Y-243950000D02*
G75*
G02*
X403531655Y-243993934I3J-299992D01*
G01*
X403531655Y-240906066D02*
G75*
G02*
X403375353Y-240950000I-156299J256058D01*
G01*
X403531655Y-240906066D02*
G75*
G02*
X404218934Y-241593345I260503J-426776D01*
G01*
X404175000Y-241749647D02*
G75*
G02*
X404218934Y-241593345I299992J3D01*
G01*
X404218934Y-243306655D02*
G75*
G02*
X403531655Y-243993934I-426776J-260503D01*
G01*
X404218934Y-243306655D02*
G75*
G02*
X404175000Y-243150353I256058J156299D01*
G01*
%TO.C,RGB_LED63*%
X269787500Y-242700000D02*
X269787500Y-241999647D01*
X269787500Y-242700000D02*
X269787500Y-243400353D01*
X271487500Y-241200000D02*
X270587147Y-241200000D01*
X271487500Y-241200000D02*
X272387853Y-241200000D01*
X271487500Y-244200000D02*
X270587147Y-244200000D01*
X271487500Y-244200000D02*
X272387853Y-244200000D01*
X273187500Y-242700000D02*
X273187500Y-241999647D01*
X273187500Y-242700000D02*
X273187500Y-243400353D01*
X269743566Y-241843345D02*
G75*
G02*
X269787482Y-241999647I-255666J-156155D01*
G01*
X269743566Y-241843345D02*
G75*
G02*
X270430845Y-241156066I426774J260505D01*
G01*
X269787500Y-243400353D02*
G75*
G02*
X269743566Y-243556655I-299370J-177D01*
G01*
X270430845Y-244243934D02*
G75*
G02*
X269743566Y-243556655I-260505J426774D01*
G01*
X270430845Y-244243934D02*
G75*
G02*
X270587147Y-244200003I156155J-255566D01*
G01*
X270587147Y-241200000D02*
G75*
G02*
X270430844Y-241156068I103J300380D01*
G01*
X272387853Y-244200000D02*
G75*
G02*
X272544155Y-244243934I3J-299992D01*
G01*
X272544155Y-241156066D02*
G75*
G02*
X272387853Y-241200000I-156299J256058D01*
G01*
X272544155Y-241156066D02*
G75*
G02*
X273231434Y-241843345I260503J-426776D01*
G01*
X273187500Y-241999647D02*
G75*
G02*
X273231434Y-241843345I299992J3D01*
G01*
X273231434Y-243556655D02*
G75*
G02*
X272544155Y-244243934I-426776J-260503D01*
G01*
X273231434Y-243556655D02*
G75*
G02*
X273187500Y-243400353I256058J156299D01*
G01*
%TO.C,RGB_LED44*%
X288837500Y-242700000D02*
X288837500Y-241999647D01*
X288837500Y-242700000D02*
X288837500Y-243400353D01*
X290537500Y-241200000D02*
X289637147Y-241200000D01*
X290537500Y-241200000D02*
X291437853Y-241200000D01*
X290537500Y-244200000D02*
X289637147Y-244200000D01*
X290537500Y-244200000D02*
X291437853Y-244200000D01*
X292237500Y-242700000D02*
X292237500Y-241999647D01*
X292237500Y-242700000D02*
X292237500Y-243400353D01*
X288793566Y-241843345D02*
G75*
G02*
X288837482Y-241999647I-255666J-156155D01*
G01*
X288793566Y-241843345D02*
G75*
G02*
X289480845Y-241156066I426774J260505D01*
G01*
X288837500Y-243400353D02*
G75*
G02*
X288793566Y-243556655I-299370J-177D01*
G01*
X289480845Y-244243934D02*
G75*
G02*
X288793566Y-243556655I-260505J426774D01*
G01*
X289480845Y-244243934D02*
G75*
G02*
X289637147Y-244200003I156155J-255566D01*
G01*
X289637147Y-241200000D02*
G75*
G02*
X289480844Y-241156068I103J300380D01*
G01*
X291437853Y-244200000D02*
G75*
G02*
X291594155Y-244243934I3J-299992D01*
G01*
X291594155Y-241156066D02*
G75*
G02*
X291437853Y-241200000I-156299J256058D01*
G01*
X291594155Y-241156066D02*
G75*
G02*
X292281434Y-241843345I260503J-426776D01*
G01*
X292237500Y-241999647D02*
G75*
G02*
X292281434Y-241843345I299992J3D01*
G01*
X292281434Y-243556655D02*
G75*
G02*
X291594155Y-244243934I-426776J-260503D01*
G01*
X292281434Y-243556655D02*
G75*
G02*
X292237500Y-243400353I256058J156299D01*
G01*
%TO.C,RGB_LED50*%
X255500000Y-204600000D02*
X255500000Y-203899647D01*
X255500000Y-204600000D02*
X255500000Y-205300353D01*
X257200000Y-203100000D02*
X256299647Y-203100000D01*
X257200000Y-203100000D02*
X258100353Y-203100000D01*
X257200000Y-206100000D02*
X256299647Y-206100000D01*
X257200000Y-206100000D02*
X258100353Y-206100000D01*
X258900000Y-204600000D02*
X258900000Y-203899647D01*
X258900000Y-204600000D02*
X258900000Y-205300353D01*
X255456066Y-203743345D02*
G75*
G02*
X255499982Y-203899647I-255666J-156155D01*
G01*
X255456066Y-203743345D02*
G75*
G02*
X256143345Y-203056066I426774J260505D01*
G01*
X255500000Y-205300353D02*
G75*
G02*
X255456066Y-205456655I-299370J-177D01*
G01*
X256143345Y-206143934D02*
G75*
G02*
X255456066Y-205456655I-260505J426774D01*
G01*
X256143345Y-206143934D02*
G75*
G02*
X256299647Y-206100003I156155J-255566D01*
G01*
X256299647Y-203100000D02*
G75*
G02*
X256143344Y-203056068I103J300380D01*
G01*
X258100353Y-206100000D02*
G75*
G02*
X258256655Y-206143934I3J-299992D01*
G01*
X258256655Y-203056066D02*
G75*
G02*
X258100353Y-203100000I-156299J256058D01*
G01*
X258256655Y-203056066D02*
G75*
G02*
X258943934Y-203743345I260503J-426776D01*
G01*
X258900000Y-203899647D02*
G75*
G02*
X258943934Y-203743345I299992J3D01*
G01*
X258943934Y-205456655D02*
G75*
G02*
X258256655Y-206143934I-426776J-260503D01*
G01*
X258943934Y-205456655D02*
G75*
G02*
X258900000Y-205300353I256058J156299D01*
G01*
%TO.C,RGB_LED41*%
X279312500Y-223650000D02*
X279312500Y-222949647D01*
X279312500Y-223650000D02*
X279312500Y-224350353D01*
X281012500Y-222150000D02*
X280112147Y-222150000D01*
X281012500Y-222150000D02*
X281912853Y-222150000D01*
X281012500Y-225150000D02*
X280112147Y-225150000D01*
X281012500Y-225150000D02*
X281912853Y-225150000D01*
X282712500Y-223650000D02*
X282712500Y-222949647D01*
X282712500Y-223650000D02*
X282712500Y-224350353D01*
X279268566Y-222793345D02*
G75*
G02*
X279312482Y-222949647I-255666J-156155D01*
G01*
X279268566Y-222793345D02*
G75*
G02*
X279955845Y-222106066I426774J260505D01*
G01*
X279312500Y-224350353D02*
G75*
G02*
X279268566Y-224506655I-299370J-177D01*
G01*
X279955845Y-225193934D02*
G75*
G02*
X279268566Y-224506655I-260505J426774D01*
G01*
X279955845Y-225193934D02*
G75*
G02*
X280112147Y-225150003I156155J-255566D01*
G01*
X280112147Y-222150000D02*
G75*
G02*
X279955844Y-222106068I103J300380D01*
G01*
X281912853Y-225150000D02*
G75*
G02*
X282069155Y-225193934I3J-299992D01*
G01*
X282069155Y-222106066D02*
G75*
G02*
X281912853Y-222150000I-156299J256058D01*
G01*
X282069155Y-222106066D02*
G75*
G02*
X282756434Y-222793345I260503J-426776D01*
G01*
X282712500Y-222949647D02*
G75*
G02*
X282756434Y-222793345I299992J3D01*
G01*
X282756434Y-224506655D02*
G75*
G02*
X282069155Y-225193934I-426776J-260503D01*
G01*
X282756434Y-224506655D02*
G75*
G02*
X282712500Y-224350353I256058J156299D01*
G01*
%TO.C,RGB_LED56*%
X250737500Y-242700000D02*
X250737500Y-241999647D01*
X250737500Y-242700000D02*
X250737500Y-243400353D01*
X252437500Y-241200000D02*
X251537147Y-241200000D01*
X252437500Y-241200000D02*
X253337853Y-241200000D01*
X252437500Y-244200000D02*
X251537147Y-244200000D01*
X252437500Y-244200000D02*
X253337853Y-244200000D01*
X254137500Y-242700000D02*
X254137500Y-241999647D01*
X254137500Y-242700000D02*
X254137500Y-243400353D01*
X250693566Y-241843345D02*
G75*
G02*
X250737482Y-241999647I-255666J-156155D01*
G01*
X250693566Y-241843345D02*
G75*
G02*
X251380845Y-241156066I426774J260505D01*
G01*
X250737500Y-243400353D02*
G75*
G02*
X250693566Y-243556655I-299370J-177D01*
G01*
X251380845Y-244243934D02*
G75*
G02*
X250693566Y-243556655I-260505J426774D01*
G01*
X251380845Y-244243934D02*
G75*
G02*
X251537147Y-244200003I156155J-255566D01*
G01*
X251537147Y-241200000D02*
G75*
G02*
X251380844Y-241156068I103J300380D01*
G01*
X253337853Y-244200000D02*
G75*
G02*
X253494155Y-244243934I3J-299992D01*
G01*
X253494155Y-241156066D02*
G75*
G02*
X253337853Y-241200000I-156299J256058D01*
G01*
X253494155Y-241156066D02*
G75*
G02*
X254181434Y-241843345I260503J-426776D01*
G01*
X254137500Y-241999647D02*
G75*
G02*
X254181434Y-241843345I299992J3D01*
G01*
X254181434Y-243556655D02*
G75*
G02*
X253494155Y-244243934I-426776J-260503D01*
G01*
X254181434Y-243556655D02*
G75*
G02*
X254137500Y-243400353I256058J156299D01*
G01*
%TO.C,RGB_LED52*%
X157800000Y-223707500D02*
X157800000Y-223007147D01*
X157800000Y-223707500D02*
X157800000Y-224407853D01*
X159500000Y-222207500D02*
X158599647Y-222207500D01*
X159500000Y-222207500D02*
X160400353Y-222207500D01*
X159500000Y-225207500D02*
X158599647Y-225207500D01*
X159500000Y-225207500D02*
X160400353Y-225207500D01*
X161200000Y-223707500D02*
X161200000Y-223007147D01*
X161200000Y-223707500D02*
X161200000Y-224407853D01*
X157756066Y-222850845D02*
G75*
G02*
X157799982Y-223007147I-255666J-156155D01*
G01*
X157756066Y-222850845D02*
G75*
G02*
X158443345Y-222163566I426774J260505D01*
G01*
X157800000Y-224407853D02*
G75*
G02*
X157756066Y-224564155I-299370J-177D01*
G01*
X158443345Y-225251434D02*
G75*
G02*
X157756066Y-224564155I-260505J426774D01*
G01*
X158443345Y-225251434D02*
G75*
G02*
X158599647Y-225207503I156155J-255566D01*
G01*
X158599647Y-222207500D02*
G75*
G02*
X158443344Y-222163568I103J300380D01*
G01*
X160400353Y-225207500D02*
G75*
G02*
X160556655Y-225251434I3J-299992D01*
G01*
X160556655Y-222163566D02*
G75*
G02*
X160400353Y-222207500I-156299J256058D01*
G01*
X160556655Y-222163566D02*
G75*
G02*
X161243934Y-222850845I260503J-426776D01*
G01*
X161200000Y-223007147D02*
G75*
G02*
X161243934Y-222850845I299992J3D01*
G01*
X161243934Y-224564155D02*
G75*
G02*
X160556655Y-225251434I-426776J-260503D01*
G01*
X161243934Y-224564155D02*
G75*
G02*
X161200000Y-224407853I256058J156299D01*
G01*
%TO.C,RGB_LED32*%
X169775000Y-261750000D02*
X169775000Y-261049647D01*
X169775000Y-261750000D02*
X169775000Y-262450353D01*
X171475000Y-260250000D02*
X170574647Y-260250000D01*
X171475000Y-260250000D02*
X172375353Y-260250000D01*
X171475000Y-263250000D02*
X170574647Y-263250000D01*
X171475000Y-263250000D02*
X172375353Y-263250000D01*
X173175000Y-261750000D02*
X173175000Y-261049647D01*
X173175000Y-261750000D02*
X173175000Y-262450353D01*
X169731066Y-260893345D02*
G75*
G02*
X169774982Y-261049647I-255666J-156155D01*
G01*
X169731066Y-260893345D02*
G75*
G02*
X170418345Y-260206066I426774J260505D01*
G01*
X169775000Y-262450353D02*
G75*
G02*
X169731066Y-262606655I-299370J-177D01*
G01*
X170418345Y-263293934D02*
G75*
G02*
X169731066Y-262606655I-260505J426774D01*
G01*
X170418345Y-263293934D02*
G75*
G02*
X170574647Y-263250003I156155J-255566D01*
G01*
X170574647Y-260250000D02*
G75*
G02*
X170418344Y-260206068I103J300380D01*
G01*
X172375353Y-263250000D02*
G75*
G02*
X172531655Y-263293934I3J-299992D01*
G01*
X172531655Y-260206066D02*
G75*
G02*
X172375353Y-260250000I-156299J256058D01*
G01*
X172531655Y-260206066D02*
G75*
G02*
X173218934Y-260893345I260503J-426776D01*
G01*
X173175000Y-261049647D02*
G75*
G02*
X173218934Y-260893345I299992J3D01*
G01*
X173218934Y-262606655D02*
G75*
G02*
X172531655Y-263293934I-426776J-260503D01*
G01*
X173218934Y-262606655D02*
G75*
G02*
X173175000Y-262450353I256058J156299D01*
G01*
%TO.C,RGB_LED6*%
X188825000Y-156657500D02*
X188825000Y-155957147D01*
X188825000Y-156657500D02*
X188825000Y-157357853D01*
X190525000Y-155157500D02*
X189624647Y-155157500D01*
X190525000Y-155157500D02*
X191425353Y-155157500D01*
X190525000Y-158157500D02*
X189624647Y-158157500D01*
X190525000Y-158157500D02*
X191425353Y-158157500D01*
X192225000Y-156657500D02*
X192225000Y-155957147D01*
X192225000Y-156657500D02*
X192225000Y-157357853D01*
X188781066Y-155800845D02*
G75*
G02*
X188824982Y-155957147I-255666J-156155D01*
G01*
X188781066Y-155800845D02*
G75*
G02*
X189468345Y-155113566I426774J260505D01*
G01*
X188825000Y-157357853D02*
G75*
G02*
X188781066Y-157514155I-299370J-177D01*
G01*
X189468345Y-158201434D02*
G75*
G02*
X188781066Y-157514155I-260505J426774D01*
G01*
X189468345Y-158201434D02*
G75*
G02*
X189624647Y-158157503I156155J-255566D01*
G01*
X189624647Y-155157500D02*
G75*
G02*
X189468344Y-155113568I103J300380D01*
G01*
X191425353Y-158157500D02*
G75*
G02*
X191581655Y-158201434I3J-299992D01*
G01*
X191581655Y-155113566D02*
G75*
G02*
X191425353Y-155157500I-156299J256058D01*
G01*
X191581655Y-155113566D02*
G75*
G02*
X192268934Y-155800845I260503J-426776D01*
G01*
X192225000Y-155957147D02*
G75*
G02*
X192268934Y-155800845I299992J3D01*
G01*
X192268934Y-157514155D02*
G75*
G02*
X191581655Y-158201434I-426776J-260503D01*
G01*
X192268934Y-157514155D02*
G75*
G02*
X192225000Y-157357853I256058J156299D01*
G01*
%TO.C,RGB_LED47*%
X245975000Y-156657500D02*
X245975000Y-155957147D01*
X245975000Y-156657500D02*
X245975000Y-157357853D01*
X247675000Y-155157500D02*
X246774647Y-155157500D01*
X247675000Y-155157500D02*
X248575353Y-155157500D01*
X247675000Y-158157500D02*
X246774647Y-158157500D01*
X247675000Y-158157500D02*
X248575353Y-158157500D01*
X249375000Y-156657500D02*
X249375000Y-155957147D01*
X249375000Y-156657500D02*
X249375000Y-157357853D01*
X245931066Y-155800845D02*
G75*
G02*
X245974982Y-155957147I-255666J-156155D01*
G01*
X245931066Y-155800845D02*
G75*
G02*
X246618345Y-155113566I426774J260505D01*
G01*
X245975000Y-157357853D02*
G75*
G02*
X245931066Y-157514155I-299370J-177D01*
G01*
X246618345Y-158201434D02*
G75*
G02*
X245931066Y-157514155I-260505J426774D01*
G01*
X246618345Y-158201434D02*
G75*
G02*
X246774647Y-158157503I156155J-255566D01*
G01*
X246774647Y-155157500D02*
G75*
G02*
X246618344Y-155113568I103J300380D01*
G01*
X248575353Y-158157500D02*
G75*
G02*
X248731655Y-158201434I3J-299992D01*
G01*
X248731655Y-155113566D02*
G75*
G02*
X248575353Y-155157500I-156299J256058D01*
G01*
X248731655Y-155113566D02*
G75*
G02*
X249418934Y-155800845I260503J-426776D01*
G01*
X249375000Y-155957147D02*
G75*
G02*
X249418934Y-155800845I299992J3D01*
G01*
X249418934Y-157514155D02*
G75*
G02*
X248731655Y-158201434I-426776J-260503D01*
G01*
X249418934Y-157514155D02*
G75*
G02*
X249375000Y-157357853I256058J156299D01*
G01*
%TO.C,RGB_LED24*%
X236450000Y-204600000D02*
X236450000Y-203899647D01*
X236450000Y-204600000D02*
X236450000Y-205300353D01*
X238150000Y-203100000D02*
X237249647Y-203100000D01*
X238150000Y-203100000D02*
X239050353Y-203100000D01*
X238150000Y-206100000D02*
X237249647Y-206100000D01*
X238150000Y-206100000D02*
X239050353Y-206100000D01*
X239850000Y-204600000D02*
X239850000Y-203899647D01*
X239850000Y-204600000D02*
X239850000Y-205300353D01*
X236406066Y-203743345D02*
G75*
G02*
X236449982Y-203899647I-255666J-156155D01*
G01*
X236406066Y-203743345D02*
G75*
G02*
X237093345Y-203056066I426774J260505D01*
G01*
X236450000Y-205300353D02*
G75*
G02*
X236406066Y-205456655I-299370J-177D01*
G01*
X237093345Y-206143934D02*
G75*
G02*
X236406066Y-205456655I-260505J426774D01*
G01*
X237093345Y-206143934D02*
G75*
G02*
X237249647Y-206100003I156155J-255566D01*
G01*
X237249647Y-203100000D02*
G75*
G02*
X237093344Y-203056068I103J300380D01*
G01*
X239050353Y-206100000D02*
G75*
G02*
X239206655Y-206143934I3J-299992D01*
G01*
X239206655Y-203056066D02*
G75*
G02*
X239050353Y-203100000I-156299J256058D01*
G01*
X239206655Y-203056066D02*
G75*
G02*
X239893934Y-203743345I260503J-426776D01*
G01*
X239850000Y-203899647D02*
G75*
G02*
X239893934Y-203743345I299992J3D01*
G01*
X239893934Y-205456655D02*
G75*
G02*
X239206655Y-206143934I-426776J-260503D01*
G01*
X239893934Y-205456655D02*
G75*
G02*
X239850000Y-205300353I256058J156299D01*
G01*
%TO.C,RGB_LED1*%
X150725000Y-156657500D02*
X150725000Y-155957147D01*
X150725000Y-156657500D02*
X150725000Y-157357853D01*
X152425000Y-155157500D02*
X151524647Y-155157500D01*
X152425000Y-155157500D02*
X153325353Y-155157500D01*
X152425000Y-158157500D02*
X151524647Y-158157500D01*
X152425000Y-158157500D02*
X153325353Y-158157500D01*
X154125000Y-156657500D02*
X154125000Y-155957147D01*
X154125000Y-156657500D02*
X154125000Y-157357853D01*
X150681066Y-155800845D02*
G75*
G02*
X150724982Y-155957147I-255666J-156155D01*
G01*
X150681066Y-155800845D02*
G75*
G02*
X151368345Y-155113566I426774J260505D01*
G01*
X150725000Y-157357853D02*
G75*
G02*
X150681066Y-157514155I-299370J-177D01*
G01*
X151368345Y-158201434D02*
G75*
G02*
X150681066Y-157514155I-260505J426774D01*
G01*
X151368345Y-158201434D02*
G75*
G02*
X151524647Y-158157503I156155J-255566D01*
G01*
X151524647Y-155157500D02*
G75*
G02*
X151368344Y-155113568I103J300380D01*
G01*
X153325353Y-158157500D02*
G75*
G02*
X153481655Y-158201434I3J-299992D01*
G01*
X153481655Y-155113566D02*
G75*
G02*
X153325353Y-155157500I-156299J256058D01*
G01*
X153481655Y-155113566D02*
G75*
G02*
X154168934Y-155800845I260503J-426776D01*
G01*
X154125000Y-155957147D02*
G75*
G02*
X154168934Y-155800845I299992J3D01*
G01*
X154168934Y-157514155D02*
G75*
G02*
X153481655Y-158201434I-426776J-260503D01*
G01*
X154168934Y-157514155D02*
G75*
G02*
X154125000Y-157357853I256058J156299D01*
G01*
%TO.C,RGB_LED12*%
X388850000Y-204600000D02*
X388850000Y-203899647D01*
X388850000Y-204600000D02*
X388850000Y-205300353D01*
X390550000Y-203100000D02*
X389649647Y-203100000D01*
X390550000Y-203100000D02*
X391450353Y-203100000D01*
X390550000Y-206100000D02*
X389649647Y-206100000D01*
X390550000Y-206100000D02*
X391450353Y-206100000D01*
X392250000Y-204600000D02*
X392250000Y-203899647D01*
X392250000Y-204600000D02*
X392250000Y-205300353D01*
X388806066Y-203743345D02*
G75*
G02*
X388849982Y-203899647I-255666J-156155D01*
G01*
X388806066Y-203743345D02*
G75*
G02*
X389493345Y-203056066I426774J260505D01*
G01*
X388850000Y-205300353D02*
G75*
G02*
X388806066Y-205456655I-299370J-177D01*
G01*
X389493345Y-206143934D02*
G75*
G02*
X388806066Y-205456655I-260505J426774D01*
G01*
X389493345Y-206143934D02*
G75*
G02*
X389649647Y-206100003I156155J-255566D01*
G01*
X389649647Y-203100000D02*
G75*
G02*
X389493344Y-203056068I103J300380D01*
G01*
X391450353Y-206100000D02*
G75*
G02*
X391606655Y-206143934I3J-299992D01*
G01*
X391606655Y-203056066D02*
G75*
G02*
X391450353Y-203100000I-156299J256058D01*
G01*
X391606655Y-203056066D02*
G75*
G02*
X392293934Y-203743345I260503J-426776D01*
G01*
X392250000Y-203899647D02*
G75*
G02*
X392293934Y-203743345I299992J3D01*
G01*
X392293934Y-205456655D02*
G75*
G02*
X391606655Y-206143934I-426776J-260503D01*
G01*
X392293934Y-205456655D02*
G75*
G02*
X392250000Y-205300353I256058J156299D01*
G01*
%TO.C,RGB_LED35*%
X226925000Y-185550000D02*
X226925000Y-184849647D01*
X226925000Y-185550000D02*
X226925000Y-186250353D01*
X228625000Y-184050000D02*
X227724647Y-184050000D01*
X228625000Y-184050000D02*
X229525353Y-184050000D01*
X228625000Y-187050000D02*
X227724647Y-187050000D01*
X228625000Y-187050000D02*
X229525353Y-187050000D01*
X230325000Y-185550000D02*
X230325000Y-184849647D01*
X230325000Y-185550000D02*
X230325000Y-186250353D01*
X226881066Y-184693345D02*
G75*
G02*
X226924982Y-184849647I-255666J-156155D01*
G01*
X226881066Y-184693345D02*
G75*
G02*
X227568345Y-184006066I426774J260505D01*
G01*
X226925000Y-186250353D02*
G75*
G02*
X226881066Y-186406655I-299370J-177D01*
G01*
X227568345Y-187093934D02*
G75*
G02*
X226881066Y-186406655I-260505J426774D01*
G01*
X227568345Y-187093934D02*
G75*
G02*
X227724647Y-187050003I156155J-255566D01*
G01*
X227724647Y-184050000D02*
G75*
G02*
X227568344Y-184006068I103J300380D01*
G01*
X229525353Y-187050000D02*
G75*
G02*
X229681655Y-187093934I3J-299992D01*
G01*
X229681655Y-184006066D02*
G75*
G02*
X229525353Y-184050000I-156299J256058D01*
G01*
X229681655Y-184006066D02*
G75*
G02*
X230368934Y-184693345I260503J-426776D01*
G01*
X230325000Y-184849647D02*
G75*
G02*
X230368934Y-184693345I299992J3D01*
G01*
X230368934Y-186406655D02*
G75*
G02*
X229681655Y-187093934I-426776J-260503D01*
G01*
X230368934Y-186406655D02*
G75*
G02*
X230325000Y-186250353I256058J156299D01*
G01*
%TO.C,RGB_LED30*%
X231687500Y-242700000D02*
X231687500Y-241999647D01*
X231687500Y-242700000D02*
X231687500Y-243400353D01*
X233387500Y-241200000D02*
X232487147Y-241200000D01*
X233387500Y-241200000D02*
X234287853Y-241200000D01*
X233387500Y-244200000D02*
X232487147Y-244200000D01*
X233387500Y-244200000D02*
X234287853Y-244200000D01*
X235087500Y-242700000D02*
X235087500Y-241999647D01*
X235087500Y-242700000D02*
X235087500Y-243400353D01*
X231643566Y-241843345D02*
G75*
G02*
X231687482Y-241999647I-255666J-156155D01*
G01*
X231643566Y-241843345D02*
G75*
G02*
X232330845Y-241156066I426774J260505D01*
G01*
X231687500Y-243400353D02*
G75*
G02*
X231643566Y-243556655I-299370J-177D01*
G01*
X232330845Y-244243934D02*
G75*
G02*
X231643566Y-243556655I-260505J426774D01*
G01*
X232330845Y-244243934D02*
G75*
G02*
X232487147Y-244200003I156155J-255566D01*
G01*
X232487147Y-241200000D02*
G75*
G02*
X232330844Y-241156068I103J300380D01*
G01*
X234287853Y-244200000D02*
G75*
G02*
X234444155Y-244243934I3J-299992D01*
G01*
X234444155Y-241156066D02*
G75*
G02*
X234287853Y-241200000I-156299J256058D01*
G01*
X234444155Y-241156066D02*
G75*
G02*
X235131434Y-241843345I260503J-426776D01*
G01*
X235087500Y-241999647D02*
G75*
G02*
X235131434Y-241843345I299992J3D01*
G01*
X235131434Y-243556655D02*
G75*
G02*
X234444155Y-244243934I-426776J-260503D01*
G01*
X235131434Y-243556655D02*
G75*
G02*
X235087500Y-243400353I256058J156299D01*
G01*
%TO.C,RGB_LED20*%
X207875000Y-156657500D02*
X207875000Y-155957147D01*
X207875000Y-156657500D02*
X207875000Y-157357853D01*
X209575000Y-155157500D02*
X208674647Y-155157500D01*
X209575000Y-155157500D02*
X210475353Y-155157500D01*
X209575000Y-158157500D02*
X208674647Y-158157500D01*
X209575000Y-158157500D02*
X210475353Y-158157500D01*
X211275000Y-156657500D02*
X211275000Y-155957147D01*
X211275000Y-156657500D02*
X211275000Y-157357853D01*
X207831066Y-155800845D02*
G75*
G02*
X207874982Y-155957147I-255666J-156155D01*
G01*
X207831066Y-155800845D02*
G75*
G02*
X208518345Y-155113566I426774J260505D01*
G01*
X207875000Y-157357853D02*
G75*
G02*
X207831066Y-157514155I-299370J-177D01*
G01*
X208518345Y-158201434D02*
G75*
G02*
X207831066Y-157514155I-260505J426774D01*
G01*
X208518345Y-158201434D02*
G75*
G02*
X208674647Y-158157503I156155J-255566D01*
G01*
X208674647Y-155157500D02*
G75*
G02*
X208518344Y-155113568I103J300380D01*
G01*
X210475353Y-158157500D02*
G75*
G02*
X210631655Y-158201434I3J-299992D01*
G01*
X210631655Y-155113566D02*
G75*
G02*
X210475353Y-155157500I-156299J256058D01*
G01*
X210631655Y-155113566D02*
G75*
G02*
X211318934Y-155800845I260503J-426776D01*
G01*
X211275000Y-155957147D02*
G75*
G02*
X211318934Y-155800845I299992J3D01*
G01*
X211318934Y-157514155D02*
G75*
G02*
X210631655Y-158201434I-426776J-260503D01*
G01*
X211318934Y-157514155D02*
G75*
G02*
X211275000Y-157357853I256058J156299D01*
G01*
%TO.C,RGB_LED42*%
X355512500Y-223650000D02*
X355512500Y-222949647D01*
X355512500Y-223650000D02*
X355512500Y-224350353D01*
X357212500Y-222150000D02*
X356312147Y-222150000D01*
X357212500Y-222150000D02*
X358112853Y-222150000D01*
X357212500Y-225150000D02*
X356312147Y-225150000D01*
X357212500Y-225150000D02*
X358112853Y-225150000D01*
X358912500Y-223650000D02*
X358912500Y-222949647D01*
X358912500Y-223650000D02*
X358912500Y-224350353D01*
X355468566Y-222793345D02*
G75*
G02*
X355512482Y-222949647I-255666J-156155D01*
G01*
X355468566Y-222793345D02*
G75*
G02*
X356155845Y-222106066I426774J260505D01*
G01*
X355512500Y-224350353D02*
G75*
G02*
X355468566Y-224506655I-299370J-177D01*
G01*
X356155845Y-225193934D02*
G75*
G02*
X355468566Y-224506655I-260505J426774D01*
G01*
X356155845Y-225193934D02*
G75*
G02*
X356312147Y-225150003I156155J-255566D01*
G01*
X356312147Y-222150000D02*
G75*
G02*
X356155844Y-222106068I103J300380D01*
G01*
X358112853Y-225150000D02*
G75*
G02*
X358269155Y-225193934I3J-299992D01*
G01*
X358269155Y-222106066D02*
G75*
G02*
X358112853Y-222150000I-156299J256058D01*
G01*
X358269155Y-222106066D02*
G75*
G02*
X358956434Y-222793345I260503J-426776D01*
G01*
X358912500Y-222949647D02*
G75*
G02*
X358956434Y-222793345I299992J3D01*
G01*
X358956434Y-224506655D02*
G75*
G02*
X358269155Y-225193934I-426776J-260503D01*
G01*
X358956434Y-224506655D02*
G75*
G02*
X358912500Y-224350353I256058J156299D01*
G01*
%TO.C,RGB_LED7*%
X169775000Y-185550000D02*
X169775000Y-184849647D01*
X169775000Y-185550000D02*
X169775000Y-186250353D01*
X171475000Y-184050000D02*
X170574647Y-184050000D01*
X171475000Y-184050000D02*
X172375353Y-184050000D01*
X171475000Y-187050000D02*
X170574647Y-187050000D01*
X171475000Y-187050000D02*
X172375353Y-187050000D01*
X173175000Y-185550000D02*
X173175000Y-184849647D01*
X173175000Y-185550000D02*
X173175000Y-186250353D01*
X169731066Y-184693345D02*
G75*
G02*
X169774982Y-184849647I-255666J-156155D01*
G01*
X169731066Y-184693345D02*
G75*
G02*
X170418345Y-184006066I426774J260505D01*
G01*
X169775000Y-186250353D02*
G75*
G02*
X169731066Y-186406655I-299370J-177D01*
G01*
X170418345Y-187093934D02*
G75*
G02*
X169731066Y-186406655I-260505J426774D01*
G01*
X170418345Y-187093934D02*
G75*
G02*
X170574647Y-187050003I156155J-255566D01*
G01*
X170574647Y-184050000D02*
G75*
G02*
X170418344Y-184006068I103J300380D01*
G01*
X172375353Y-187050000D02*
G75*
G02*
X172531655Y-187093934I3J-299992D01*
G01*
X172531655Y-184006066D02*
G75*
G02*
X172375353Y-184050000I-156299J256058D01*
G01*
X172531655Y-184006066D02*
G75*
G02*
X173218934Y-184693345I260503J-426776D01*
G01*
X173175000Y-184849647D02*
G75*
G02*
X173218934Y-184693345I299992J3D01*
G01*
X173218934Y-186406655D02*
G75*
G02*
X172531655Y-187093934I-426776J-260503D01*
G01*
X173218934Y-186406655D02*
G75*
G02*
X173175000Y-186250353I256058J156299D01*
G01*
%TO.C,RGB_LED55*%
X162631250Y-242700000D02*
X162631250Y-241999647D01*
X162631250Y-242700000D02*
X162631250Y-243400353D01*
X164331250Y-241200000D02*
X163430897Y-241200000D01*
X164331250Y-241200000D02*
X165231603Y-241200000D01*
X164331250Y-244200000D02*
X163430897Y-244200000D01*
X164331250Y-244200000D02*
X165231603Y-244200000D01*
X166031250Y-242700000D02*
X166031250Y-241999647D01*
X166031250Y-242700000D02*
X166031250Y-243400353D01*
X162587316Y-241843345D02*
G75*
G02*
X162631232Y-241999647I-255666J-156155D01*
G01*
X162587316Y-241843345D02*
G75*
G02*
X163274595Y-241156066I426774J260505D01*
G01*
X162631250Y-243400353D02*
G75*
G02*
X162587316Y-243556655I-299370J-177D01*
G01*
X163274595Y-244243934D02*
G75*
G02*
X162587316Y-243556655I-260505J426774D01*
G01*
X163274595Y-244243934D02*
G75*
G02*
X163430897Y-244200003I156155J-255566D01*
G01*
X163430897Y-241200000D02*
G75*
G02*
X163274594Y-241156068I103J300380D01*
G01*
X165231603Y-244200000D02*
G75*
G02*
X165387905Y-244243934I3J-299992D01*
G01*
X165387905Y-241156066D02*
G75*
G02*
X165231603Y-241200000I-156299J256058D01*
G01*
X165387905Y-241156066D02*
G75*
G02*
X166075184Y-241843345I260503J-426776D01*
G01*
X166031250Y-241999647D02*
G75*
G02*
X166075184Y-241843345I299992J3D01*
G01*
X166075184Y-243556655D02*
G75*
G02*
X165387905Y-244243934I-426776J-260503D01*
G01*
X166075184Y-243556655D02*
G75*
G02*
X166031250Y-243400353I256058J156299D01*
G01*
%TO.C,RGB_LED31*%
X326937500Y-242700000D02*
X326937500Y-241999647D01*
X326937500Y-242700000D02*
X326937500Y-243400353D01*
X328637500Y-241200000D02*
X327737147Y-241200000D01*
X328637500Y-241200000D02*
X329537853Y-241200000D01*
X328637500Y-244200000D02*
X327737147Y-244200000D01*
X328637500Y-244200000D02*
X329537853Y-244200000D01*
X330337500Y-242700000D02*
X330337500Y-241999647D01*
X330337500Y-242700000D02*
X330337500Y-243400353D01*
X326893566Y-241843345D02*
G75*
G02*
X326937482Y-241999647I-255666J-156155D01*
G01*
X326893566Y-241843345D02*
G75*
G02*
X327580845Y-241156066I426774J260505D01*
G01*
X326937500Y-243400353D02*
G75*
G02*
X326893566Y-243556655I-299370J-177D01*
G01*
X327580845Y-244243934D02*
G75*
G02*
X326893566Y-243556655I-260505J426774D01*
G01*
X327580845Y-244243934D02*
G75*
G02*
X327737147Y-244200003I156155J-255566D01*
G01*
X327737147Y-241200000D02*
G75*
G02*
X327580844Y-241156068I103J300380D01*
G01*
X329537853Y-244200000D02*
G75*
G02*
X329694155Y-244243934I3J-299992D01*
G01*
X329694155Y-241156066D02*
G75*
G02*
X329537853Y-241200000I-156299J256058D01*
G01*
X329694155Y-241156066D02*
G75*
G02*
X330381434Y-241843345I260503J-426776D01*
G01*
X330337500Y-241999647D02*
G75*
G02*
X330381434Y-241843345I299992J3D01*
G01*
X330381434Y-243556655D02*
G75*
G02*
X329694155Y-244243934I-426776J-260503D01*
G01*
X330381434Y-243556655D02*
G75*
G02*
X330337500Y-243400353I256058J156299D01*
G01*
%TO.C,RGB_LED15*%
X374562500Y-223650000D02*
X374562500Y-222949647D01*
X374562500Y-223650000D02*
X374562500Y-224350353D01*
X376262500Y-222150000D02*
X375362147Y-222150000D01*
X376262500Y-222150000D02*
X377162853Y-222150000D01*
X376262500Y-225150000D02*
X375362147Y-225150000D01*
X376262500Y-225150000D02*
X377162853Y-225150000D01*
X377962500Y-223650000D02*
X377962500Y-222949647D01*
X377962500Y-223650000D02*
X377962500Y-224350353D01*
X374518566Y-222793345D02*
G75*
G02*
X374562482Y-222949647I-255666J-156155D01*
G01*
X374518566Y-222793345D02*
G75*
G02*
X375205845Y-222106066I426774J260505D01*
G01*
X374562500Y-224350353D02*
G75*
G02*
X374518566Y-224506655I-299370J-177D01*
G01*
X375205845Y-225193934D02*
G75*
G02*
X374518566Y-224506655I-260505J426774D01*
G01*
X375205845Y-225193934D02*
G75*
G02*
X375362147Y-225150003I156155J-255566D01*
G01*
X375362147Y-222150000D02*
G75*
G02*
X375205844Y-222106068I103J300380D01*
G01*
X377162853Y-225150000D02*
G75*
G02*
X377319155Y-225193934I3J-299992D01*
G01*
X377319155Y-222106066D02*
G75*
G02*
X377162853Y-222150000I-156299J256058D01*
G01*
X377319155Y-222106066D02*
G75*
G02*
X378006434Y-222793345I260503J-426776D01*
G01*
X377962500Y-222949647D02*
G75*
G02*
X378006434Y-222793345I299992J3D01*
G01*
X378006434Y-224506655D02*
G75*
G02*
X377319155Y-225193934I-426776J-260503D01*
G01*
X378006434Y-224506655D02*
G75*
G02*
X377962500Y-224350353I256058J156299D01*
G01*
%TO.C,RGB_LED48*%
X303125000Y-185550000D02*
X303125000Y-184849647D01*
X303125000Y-185550000D02*
X303125000Y-186250353D01*
X304825000Y-184050000D02*
X303924647Y-184050000D01*
X304825000Y-184050000D02*
X305725353Y-184050000D01*
X304825000Y-187050000D02*
X303924647Y-187050000D01*
X304825000Y-187050000D02*
X305725353Y-187050000D01*
X306525000Y-185550000D02*
X306525000Y-184849647D01*
X306525000Y-185550000D02*
X306525000Y-186250353D01*
X303081066Y-184693345D02*
G75*
G02*
X303124982Y-184849647I-255666J-156155D01*
G01*
X303081066Y-184693345D02*
G75*
G02*
X303768345Y-184006066I426774J260505D01*
G01*
X303125000Y-186250353D02*
G75*
G02*
X303081066Y-186406655I-299370J-177D01*
G01*
X303768345Y-187093934D02*
G75*
G02*
X303081066Y-186406655I-260505J426774D01*
G01*
X303768345Y-187093934D02*
G75*
G02*
X303924647Y-187050003I156155J-255566D01*
G01*
X303924647Y-184050000D02*
G75*
G02*
X303768344Y-184006068I103J300380D01*
G01*
X305725353Y-187050000D02*
G75*
G02*
X305881655Y-187093934I3J-299992D01*
G01*
X305881655Y-184006066D02*
G75*
G02*
X305725353Y-184050000I-156299J256058D01*
G01*
X305881655Y-184006066D02*
G75*
G02*
X306568934Y-184693345I260503J-426776D01*
G01*
X306525000Y-184849647D02*
G75*
G02*
X306568934Y-184693345I299992J3D01*
G01*
X306568934Y-186406655D02*
G75*
G02*
X305881655Y-187093934I-426776J-260503D01*
G01*
X306568934Y-186406655D02*
G75*
G02*
X306525000Y-186250353I256058J156299D01*
G01*
%TO.C,RGB_LED37*%
X179300000Y-204600000D02*
X179300000Y-203899647D01*
X179300000Y-204600000D02*
X179300000Y-205300353D01*
X181000000Y-203100000D02*
X180099647Y-203100000D01*
X181000000Y-203100000D02*
X181900353Y-203100000D01*
X181000000Y-206100000D02*
X180099647Y-206100000D01*
X181000000Y-206100000D02*
X181900353Y-206100000D01*
X182700000Y-204600000D02*
X182700000Y-203899647D01*
X182700000Y-204600000D02*
X182700000Y-205300353D01*
X179256066Y-203743345D02*
G75*
G02*
X179299982Y-203899647I-255666J-156155D01*
G01*
X179256066Y-203743345D02*
G75*
G02*
X179943345Y-203056066I426774J260505D01*
G01*
X179300000Y-205300353D02*
G75*
G02*
X179256066Y-205456655I-299370J-177D01*
G01*
X179943345Y-206143934D02*
G75*
G02*
X179256066Y-205456655I-260505J426774D01*
G01*
X179943345Y-206143934D02*
G75*
G02*
X180099647Y-206100003I156155J-255566D01*
G01*
X180099647Y-203100000D02*
G75*
G02*
X179943344Y-203056068I103J300380D01*
G01*
X181900353Y-206100000D02*
G75*
G02*
X182056655Y-206143934I3J-299992D01*
G01*
X182056655Y-203056066D02*
G75*
G02*
X181900353Y-203100000I-156299J256058D01*
G01*
X182056655Y-203056066D02*
G75*
G02*
X182743934Y-203743345I260503J-426776D01*
G01*
X182700000Y-203899647D02*
G75*
G02*
X182743934Y-203743345I299992J3D01*
G01*
X182743934Y-205456655D02*
G75*
G02*
X182056655Y-206143934I-426776J-260503D01*
G01*
X182743934Y-205456655D02*
G75*
G02*
X182700000Y-205300353I256058J156299D01*
G01*
%TO.C,RGB_LED49*%
X155450000Y-204707500D02*
X155450000Y-204007147D01*
X155450000Y-204707500D02*
X155450000Y-205407853D01*
X157150000Y-203207500D02*
X156249647Y-203207500D01*
X157150000Y-203207500D02*
X158050353Y-203207500D01*
X157150000Y-206207500D02*
X156249647Y-206207500D01*
X157150000Y-206207500D02*
X158050353Y-206207500D01*
X158850000Y-204707500D02*
X158850000Y-204007147D01*
X158850000Y-204707500D02*
X158850000Y-205407853D01*
X155406066Y-203850845D02*
G75*
G02*
X155449982Y-204007147I-255666J-156155D01*
G01*
X155406066Y-203850845D02*
G75*
G02*
X156093345Y-203163566I426774J260505D01*
G01*
X155450000Y-205407853D02*
G75*
G02*
X155406066Y-205564155I-299370J-177D01*
G01*
X156093345Y-206251434D02*
G75*
G02*
X155406066Y-205564155I-260505J426774D01*
G01*
X156093345Y-206251434D02*
G75*
G02*
X156249647Y-206207503I156155J-255566D01*
G01*
X156249647Y-203207500D02*
G75*
G02*
X156093344Y-203163568I103J300380D01*
G01*
X158050353Y-206207500D02*
G75*
G02*
X158206655Y-206251434I3J-299992D01*
G01*
X158206655Y-203163566D02*
G75*
G02*
X158050353Y-203207500I-156299J256058D01*
G01*
X158206655Y-203163566D02*
G75*
G02*
X158893934Y-203850845I260503J-426776D01*
G01*
X158850000Y-204007147D02*
G75*
G02*
X158893934Y-203850845I299992J3D01*
G01*
X158893934Y-205564155D02*
G75*
G02*
X158206655Y-206251434I-426776J-260503D01*
G01*
X158893934Y-205564155D02*
G75*
G02*
X158850000Y-205407853I256058J156299D01*
G01*
%TO.C,RGB_LED2*%
X245975000Y-185550000D02*
X245975000Y-184849647D01*
X245975000Y-185550000D02*
X245975000Y-186250353D01*
X247675000Y-184050000D02*
X246774647Y-184050000D01*
X247675000Y-184050000D02*
X248575353Y-184050000D01*
X247675000Y-187050000D02*
X246774647Y-187050000D01*
X247675000Y-187050000D02*
X248575353Y-187050000D01*
X249375000Y-185550000D02*
X249375000Y-184849647D01*
X249375000Y-185550000D02*
X249375000Y-186250353D01*
X245931066Y-184693345D02*
G75*
G02*
X245974982Y-184849647I-255666J-156155D01*
G01*
X245931066Y-184693345D02*
G75*
G02*
X246618345Y-184006066I426774J260505D01*
G01*
X245975000Y-186250353D02*
G75*
G02*
X245931066Y-186406655I-299370J-177D01*
G01*
X246618345Y-187093934D02*
G75*
G02*
X245931066Y-186406655I-260505J426774D01*
G01*
X246618345Y-187093934D02*
G75*
G02*
X246774647Y-187050003I156155J-255566D01*
G01*
X246774647Y-184050000D02*
G75*
G02*
X246618344Y-184006068I103J300380D01*
G01*
X248575353Y-187050000D02*
G75*
G02*
X248731655Y-187093934I3J-299992D01*
G01*
X248731655Y-184006066D02*
G75*
G02*
X248575353Y-184050000I-156299J256058D01*
G01*
X248731655Y-184006066D02*
G75*
G02*
X249418934Y-184693345I260503J-426776D01*
G01*
X249375000Y-184849647D02*
G75*
G02*
X249418934Y-184693345I299992J3D01*
G01*
X249418934Y-186406655D02*
G75*
G02*
X248731655Y-187093934I-426776J-260503D01*
G01*
X249418934Y-186406655D02*
G75*
G02*
X249375000Y-186250353I256058J156299D01*
G01*
%TO.C,RGB_LED26*%
X412600000Y-204607500D02*
X412600000Y-203907147D01*
X412600000Y-204607500D02*
X412600000Y-205307853D01*
X414300000Y-203107500D02*
X413399647Y-203107500D01*
X414300000Y-203107500D02*
X415200353Y-203107500D01*
X414300000Y-206107500D02*
X413399647Y-206107500D01*
X414300000Y-206107500D02*
X415200353Y-206107500D01*
X416000000Y-204607500D02*
X416000000Y-203907147D01*
X416000000Y-204607500D02*
X416000000Y-205307853D01*
X412556066Y-203750845D02*
G75*
G02*
X412599982Y-203907147I-255666J-156155D01*
G01*
X412556066Y-203750845D02*
G75*
G02*
X413243345Y-203063566I426774J260505D01*
G01*
X412600000Y-205307853D02*
G75*
G02*
X412556066Y-205464155I-299370J-177D01*
G01*
X413243345Y-206151434D02*
G75*
G02*
X412556066Y-205464155I-260505J426774D01*
G01*
X413243345Y-206151434D02*
G75*
G02*
X413399647Y-206107503I156155J-255566D01*
G01*
X413399647Y-203107500D02*
G75*
G02*
X413243344Y-203063568I103J300380D01*
G01*
X415200353Y-206107500D02*
G75*
G02*
X415356655Y-206151434I3J-299992D01*
G01*
X415356655Y-203063566D02*
G75*
G02*
X415200353Y-203107500I-156299J256058D01*
G01*
X415356655Y-203063566D02*
G75*
G02*
X416043934Y-203750845I260503J-426776D01*
G01*
X416000000Y-203907147D02*
G75*
G02*
X416043934Y-203750845I299992J3D01*
G01*
X416043934Y-205464155D02*
G75*
G02*
X415356655Y-206151434I-426776J-260503D01*
G01*
X416043934Y-205464155D02*
G75*
G02*
X416000000Y-205307853I256058J156299D01*
G01*
%TO.C,RGB_LED17*%
X307887500Y-242700000D02*
X307887500Y-241999647D01*
X307887500Y-242700000D02*
X307887500Y-243400353D01*
X309587500Y-241200000D02*
X308687147Y-241200000D01*
X309587500Y-241200000D02*
X310487853Y-241200000D01*
X309587500Y-244200000D02*
X308687147Y-244200000D01*
X309587500Y-244200000D02*
X310487853Y-244200000D01*
X311287500Y-242700000D02*
X311287500Y-241999647D01*
X311287500Y-242700000D02*
X311287500Y-243400353D01*
X307843566Y-241843345D02*
G75*
G02*
X307887482Y-241999647I-255666J-156155D01*
G01*
X307843566Y-241843345D02*
G75*
G02*
X308530845Y-241156066I426774J260505D01*
G01*
X307887500Y-243400353D02*
G75*
G02*
X307843566Y-243556655I-299370J-177D01*
G01*
X308530845Y-244243934D02*
G75*
G02*
X307843566Y-243556655I-260505J426774D01*
G01*
X308530845Y-244243934D02*
G75*
G02*
X308687147Y-244200003I156155J-255566D01*
G01*
X308687147Y-241200000D02*
G75*
G02*
X308530844Y-241156068I103J300380D01*
G01*
X310487853Y-244200000D02*
G75*
G02*
X310644155Y-244243934I3J-299992D01*
G01*
X310644155Y-241156066D02*
G75*
G02*
X310487853Y-241200000I-156299J256058D01*
G01*
X310644155Y-241156066D02*
G75*
G02*
X311331434Y-241843345I260503J-426776D01*
G01*
X311287500Y-241999647D02*
G75*
G02*
X311331434Y-241843345I299992J3D01*
G01*
X311331434Y-243556655D02*
G75*
G02*
X310644155Y-244243934I-426776J-260503D01*
G01*
X311331434Y-243556655D02*
G75*
G02*
X311287500Y-243400353I256058J156299D01*
G01*
%TO.C,RGB_LED3*%
X360300000Y-185607500D02*
X360300000Y-184907147D01*
X360300000Y-185607500D02*
X360300000Y-186307853D01*
X362000000Y-184107500D02*
X361099647Y-184107500D01*
X362000000Y-184107500D02*
X362900353Y-184107500D01*
X362000000Y-187107500D02*
X361099647Y-187107500D01*
X362000000Y-187107500D02*
X362900353Y-187107500D01*
X363700000Y-185607500D02*
X363700000Y-184907147D01*
X363700000Y-185607500D02*
X363700000Y-186307853D01*
X360256066Y-184750845D02*
G75*
G02*
X360299982Y-184907147I-255666J-156155D01*
G01*
X360256066Y-184750845D02*
G75*
G02*
X360943345Y-184063566I426774J260505D01*
G01*
X360300000Y-186307853D02*
G75*
G02*
X360256066Y-186464155I-299370J-177D01*
G01*
X360943345Y-187151434D02*
G75*
G02*
X360256066Y-186464155I-260505J426774D01*
G01*
X360943345Y-187151434D02*
G75*
G02*
X361099647Y-187107503I156155J-255566D01*
G01*
X361099647Y-184107500D02*
G75*
G02*
X360943344Y-184063568I103J300380D01*
G01*
X362900353Y-187107500D02*
G75*
G02*
X363056655Y-187151434I3J-299992D01*
G01*
X363056655Y-184063566D02*
G75*
G02*
X362900353Y-184107500I-156299J256058D01*
G01*
X363056655Y-184063566D02*
G75*
G02*
X363743934Y-184750845I260503J-426776D01*
G01*
X363700000Y-184907147D02*
G75*
G02*
X363743934Y-184750845I299992J3D01*
G01*
X363743934Y-186464155D02*
G75*
G02*
X363056655Y-187151434I-426776J-260503D01*
G01*
X363743934Y-186464155D02*
G75*
G02*
X363700000Y-186307853I256058J156299D01*
G01*
%TO.C,RGB_LED66*%
X417425000Y-261750000D02*
X417425000Y-261049647D01*
X417425000Y-261750000D02*
X417425000Y-262450353D01*
X419125000Y-260250000D02*
X418224647Y-260250000D01*
X419125000Y-260250000D02*
X420025353Y-260250000D01*
X419125000Y-263250000D02*
X418224647Y-263250000D01*
X419125000Y-263250000D02*
X420025353Y-263250000D01*
X420825000Y-261750000D02*
X420825000Y-261049647D01*
X420825000Y-261750000D02*
X420825000Y-262450353D01*
X417381066Y-260893345D02*
G75*
G02*
X417424982Y-261049647I-255666J-156155D01*
G01*
X417381066Y-260893345D02*
G75*
G02*
X418068345Y-260206066I426774J260505D01*
G01*
X417425000Y-262450353D02*
G75*
G02*
X417381066Y-262606655I-299370J-177D01*
G01*
X418068345Y-263293934D02*
G75*
G02*
X417381066Y-262606655I-260505J426774D01*
G01*
X418068345Y-263293934D02*
G75*
G02*
X418224647Y-263250003I156155J-255566D01*
G01*
X418224647Y-260250000D02*
G75*
G02*
X418068344Y-260206068I103J300380D01*
G01*
X420025353Y-263250000D02*
G75*
G02*
X420181655Y-263293934I3J-299992D01*
G01*
X420181655Y-260206066D02*
G75*
G02*
X420025353Y-260250000I-156299J256058D01*
G01*
X420181655Y-260206066D02*
G75*
G02*
X420868934Y-260893345I260503J-426776D01*
G01*
X420825000Y-261049647D02*
G75*
G02*
X420868934Y-260893345I299992J3D01*
G01*
X420868934Y-262606655D02*
G75*
G02*
X420181655Y-263293934I-426776J-260503D01*
G01*
X420868934Y-262606655D02*
G75*
G02*
X420825000Y-262450353I256058J156299D01*
G01*
%TO.C,RGB_LED64*%
X365037500Y-242700000D02*
X365037500Y-241999647D01*
X365037500Y-242700000D02*
X365037500Y-243400353D01*
X366737500Y-241200000D02*
X365837147Y-241200000D01*
X366737500Y-241200000D02*
X367637853Y-241200000D01*
X366737500Y-244200000D02*
X365837147Y-244200000D01*
X366737500Y-244200000D02*
X367637853Y-244200000D01*
X368437500Y-242700000D02*
X368437500Y-241999647D01*
X368437500Y-242700000D02*
X368437500Y-243400353D01*
X364993566Y-241843345D02*
G75*
G02*
X365037482Y-241999647I-255666J-156155D01*
G01*
X364993566Y-241843345D02*
G75*
G02*
X365680845Y-241156066I426774J260505D01*
G01*
X365037500Y-243400353D02*
G75*
G02*
X364993566Y-243556655I-299370J-177D01*
G01*
X365680845Y-244243934D02*
G75*
G02*
X364993566Y-243556655I-260505J426774D01*
G01*
X365680845Y-244243934D02*
G75*
G02*
X365837147Y-244200003I156155J-255566D01*
G01*
X365837147Y-241200000D02*
G75*
G02*
X365680844Y-241156068I103J300380D01*
G01*
X367637853Y-244200000D02*
G75*
G02*
X367794155Y-244243934I3J-299992D01*
G01*
X367794155Y-241156066D02*
G75*
G02*
X367637853Y-241200000I-156299J256058D01*
G01*
X367794155Y-241156066D02*
G75*
G02*
X368481434Y-241843345I260503J-426776D01*
G01*
X368437500Y-241999647D02*
G75*
G02*
X368481434Y-241843345I299992J3D01*
G01*
X368481434Y-243556655D02*
G75*
G02*
X367794155Y-244243934I-426776J-260503D01*
G01*
X368481434Y-243556655D02*
G75*
G02*
X368437500Y-243400353I256058J156299D01*
G01*
%TO.C,RGB_LED29*%
X405600000Y-223607500D02*
X405600000Y-222907147D01*
X405600000Y-223607500D02*
X405600000Y-224307853D01*
X407300000Y-222107500D02*
X406399647Y-222107500D01*
X407300000Y-222107500D02*
X408200353Y-222107500D01*
X407300000Y-225107500D02*
X406399647Y-225107500D01*
X407300000Y-225107500D02*
X408200353Y-225107500D01*
X409000000Y-223607500D02*
X409000000Y-222907147D01*
X409000000Y-223607500D02*
X409000000Y-224307853D01*
X405556066Y-222750845D02*
G75*
G02*
X405599982Y-222907147I-255666J-156155D01*
G01*
X405556066Y-222750845D02*
G75*
G02*
X406243345Y-222063566I426774J260505D01*
G01*
X405600000Y-224307853D02*
G75*
G02*
X405556066Y-224464155I-299370J-177D01*
G01*
X406243345Y-225151434D02*
G75*
G02*
X405556066Y-224464155I-260505J426774D01*
G01*
X406243345Y-225151434D02*
G75*
G02*
X406399647Y-225107503I156155J-255566D01*
G01*
X406399647Y-222107500D02*
G75*
G02*
X406243344Y-222063568I103J300380D01*
G01*
X408200353Y-225107500D02*
G75*
G02*
X408356655Y-225151434I3J-299992D01*
G01*
X408356655Y-222063566D02*
G75*
G02*
X408200353Y-222107500I-156299J256058D01*
G01*
X408356655Y-222063566D02*
G75*
G02*
X409043934Y-222750845I260503J-426776D01*
G01*
X409000000Y-222907147D02*
G75*
G02*
X409043934Y-222750845I299992J3D01*
G01*
X409043934Y-224464155D02*
G75*
G02*
X408356655Y-225151434I-426776J-260503D01*
G01*
X409043934Y-224464155D02*
G75*
G02*
X409000000Y-224307853I256058J156299D01*
G01*
%TO.C,RGB_LED25*%
X331700000Y-204600000D02*
X331700000Y-203899647D01*
X331700000Y-204600000D02*
X331700000Y-205300353D01*
X333400000Y-203100000D02*
X332499647Y-203100000D01*
X333400000Y-203100000D02*
X334300353Y-203100000D01*
X333400000Y-206100000D02*
X332499647Y-206100000D01*
X333400000Y-206100000D02*
X334300353Y-206100000D01*
X335100000Y-204600000D02*
X335100000Y-203899647D01*
X335100000Y-204600000D02*
X335100000Y-205300353D01*
X331656066Y-203743345D02*
G75*
G02*
X331699982Y-203899647I-255666J-156155D01*
G01*
X331656066Y-203743345D02*
G75*
G02*
X332343345Y-203056066I426774J260505D01*
G01*
X331700000Y-205300353D02*
G75*
G02*
X331656066Y-205456655I-299370J-177D01*
G01*
X332343345Y-206143934D02*
G75*
G02*
X331656066Y-205456655I-260505J426774D01*
G01*
X332343345Y-206143934D02*
G75*
G02*
X332499647Y-206100003I156155J-255566D01*
G01*
X332499647Y-203100000D02*
G75*
G02*
X332343344Y-203056068I103J300380D01*
G01*
X334300353Y-206100000D02*
G75*
G02*
X334456655Y-206143934I3J-299992D01*
G01*
X334456655Y-203056066D02*
G75*
G02*
X334300353Y-203100000I-156299J256058D01*
G01*
X334456655Y-203056066D02*
G75*
G02*
X335143934Y-203743345I260503J-426776D01*
G01*
X335100000Y-203899647D02*
G75*
G02*
X335143934Y-203743345I299992J3D01*
G01*
X335143934Y-205456655D02*
G75*
G02*
X334456655Y-206143934I-426776J-260503D01*
G01*
X335143934Y-205456655D02*
G75*
G02*
X335100000Y-205300353I256058J156299D01*
G01*
%TO.C,RGB_LED51*%
X350750000Y-204600000D02*
X350750000Y-203899647D01*
X350750000Y-204600000D02*
X350750000Y-205300353D01*
X352450000Y-203100000D02*
X351549647Y-203100000D01*
X352450000Y-203100000D02*
X353350353Y-203100000D01*
X352450000Y-206100000D02*
X351549647Y-206100000D01*
X352450000Y-206100000D02*
X353350353Y-206100000D01*
X354150000Y-204600000D02*
X354150000Y-203899647D01*
X354150000Y-204600000D02*
X354150000Y-205300353D01*
X350706066Y-203743345D02*
G75*
G02*
X350749982Y-203899647I-255666J-156155D01*
G01*
X350706066Y-203743345D02*
G75*
G02*
X351393345Y-203056066I426774J260505D01*
G01*
X350750000Y-205300353D02*
G75*
G02*
X350706066Y-205456655I-299370J-177D01*
G01*
X351393345Y-206143934D02*
G75*
G02*
X350706066Y-205456655I-260505J426774D01*
G01*
X351393345Y-206143934D02*
G75*
G02*
X351549647Y-206100003I156155J-255566D01*
G01*
X351549647Y-203100000D02*
G75*
G02*
X351393344Y-203056068I103J300380D01*
G01*
X353350353Y-206100000D02*
G75*
G02*
X353506655Y-206143934I3J-299992D01*
G01*
X353506655Y-203056066D02*
G75*
G02*
X353350353Y-203100000I-156299J256058D01*
G01*
X353506655Y-203056066D02*
G75*
G02*
X354193934Y-203743345I260503J-426776D01*
G01*
X354150000Y-203899647D02*
G75*
G02*
X354193934Y-203743345I299992J3D01*
G01*
X354193934Y-205456655D02*
G75*
G02*
X353506655Y-206143934I-426776J-260503D01*
G01*
X354193934Y-205456655D02*
G75*
G02*
X354150000Y-205300353I256058J156299D01*
G01*
%TO.C,RGB_LED13*%
X222162500Y-223650000D02*
X222162500Y-222949647D01*
X222162500Y-223650000D02*
X222162500Y-224350353D01*
X223862500Y-222150000D02*
X222962147Y-222150000D01*
X223862500Y-222150000D02*
X224762853Y-222150000D01*
X223862500Y-225150000D02*
X222962147Y-225150000D01*
X223862500Y-225150000D02*
X224762853Y-225150000D01*
X225562500Y-223650000D02*
X225562500Y-222949647D01*
X225562500Y-223650000D02*
X225562500Y-224350353D01*
X222118566Y-222793345D02*
G75*
G02*
X222162482Y-222949647I-255666J-156155D01*
G01*
X222118566Y-222793345D02*
G75*
G02*
X222805845Y-222106066I426774J260505D01*
G01*
X222162500Y-224350353D02*
G75*
G02*
X222118566Y-224506655I-299370J-177D01*
G01*
X222805845Y-225193934D02*
G75*
G02*
X222118566Y-224506655I-260505J426774D01*
G01*
X222805845Y-225193934D02*
G75*
G02*
X222962147Y-225150003I156155J-255566D01*
G01*
X222962147Y-222150000D02*
G75*
G02*
X222805844Y-222106068I103J300380D01*
G01*
X224762853Y-225150000D02*
G75*
G02*
X224919155Y-225193934I3J-299992D01*
G01*
X224919155Y-222106066D02*
G75*
G02*
X224762853Y-222150000I-156299J256058D01*
G01*
X224919155Y-222106066D02*
G75*
G02*
X225606434Y-222793345I260503J-426776D01*
G01*
X225562500Y-222949647D02*
G75*
G02*
X225606434Y-222793345I299992J3D01*
G01*
X225606434Y-224506655D02*
G75*
G02*
X224919155Y-225193934I-426776J-260503D01*
G01*
X225606434Y-224506655D02*
G75*
G02*
X225562500Y-224350353I256058J156299D01*
G01*
%TO.C,RGB_LED22*%
X284075000Y-185550000D02*
X284075000Y-184849647D01*
X284075000Y-185550000D02*
X284075000Y-186250353D01*
X285775000Y-184050000D02*
X284874647Y-184050000D01*
X285775000Y-184050000D02*
X286675353Y-184050000D01*
X285775000Y-187050000D02*
X284874647Y-187050000D01*
X285775000Y-187050000D02*
X286675353Y-187050000D01*
X287475000Y-185550000D02*
X287475000Y-184849647D01*
X287475000Y-185550000D02*
X287475000Y-186250353D01*
X284031066Y-184693345D02*
G75*
G02*
X284074982Y-184849647I-255666J-156155D01*
G01*
X284031066Y-184693345D02*
G75*
G02*
X284718345Y-184006066I426774J260505D01*
G01*
X284075000Y-186250353D02*
G75*
G02*
X284031066Y-186406655I-299370J-177D01*
G01*
X284718345Y-187093934D02*
G75*
G02*
X284031066Y-186406655I-260505J426774D01*
G01*
X284718345Y-187093934D02*
G75*
G02*
X284874647Y-187050003I156155J-255566D01*
G01*
X284874647Y-184050000D02*
G75*
G02*
X284718344Y-184006068I103J300380D01*
G01*
X286675353Y-187050000D02*
G75*
G02*
X286831655Y-187093934I3J-299992D01*
G01*
X286831655Y-184006066D02*
G75*
G02*
X286675353Y-184050000I-156299J256058D01*
G01*
X286831655Y-184006066D02*
G75*
G02*
X287518934Y-184693345I260503J-426776D01*
G01*
X287475000Y-184849647D02*
G75*
G02*
X287518934Y-184693345I299992J3D01*
G01*
X287518934Y-186406655D02*
G75*
G02*
X286831655Y-187093934I-426776J-260503D01*
G01*
X287518934Y-186406655D02*
G75*
G02*
X287475000Y-186250353I256058J156299D01*
G01*
%TO.C,RGB_LED14*%
X298362500Y-223650000D02*
X298362500Y-222949647D01*
X298362500Y-223650000D02*
X298362500Y-224350353D01*
X300062500Y-222150000D02*
X299162147Y-222150000D01*
X300062500Y-222150000D02*
X300962853Y-222150000D01*
X300062500Y-225150000D02*
X299162147Y-225150000D01*
X300062500Y-225150000D02*
X300962853Y-225150000D01*
X301762500Y-223650000D02*
X301762500Y-222949647D01*
X301762500Y-223650000D02*
X301762500Y-224350353D01*
X298318566Y-222793345D02*
G75*
G02*
X298362482Y-222949647I-255666J-156155D01*
G01*
X298318566Y-222793345D02*
G75*
G02*
X299005845Y-222106066I426774J260505D01*
G01*
X298362500Y-224350353D02*
G75*
G02*
X298318566Y-224506655I-299370J-177D01*
G01*
X299005845Y-225193934D02*
G75*
G02*
X298318566Y-224506655I-260505J426774D01*
G01*
X299005845Y-225193934D02*
G75*
G02*
X299162147Y-225150003I156155J-255566D01*
G01*
X299162147Y-222150000D02*
G75*
G02*
X299005844Y-222106068I103J300380D01*
G01*
X300962853Y-225150000D02*
G75*
G02*
X301119155Y-225193934I3J-299992D01*
G01*
X301119155Y-222106066D02*
G75*
G02*
X300962853Y-222150000I-156299J256058D01*
G01*
X301119155Y-222106066D02*
G75*
G02*
X301806434Y-222793345I260503J-426776D01*
G01*
X301762500Y-222949647D02*
G75*
G02*
X301806434Y-222793345I299992J3D01*
G01*
X301806434Y-224506655D02*
G75*
G02*
X301119155Y-225193934I-426776J-260503D01*
G01*
X301806434Y-224506655D02*
G75*
G02*
X301762500Y-224350353I256058J156299D01*
G01*
%TO.C,RGB_LED60*%
X207875000Y-185550000D02*
X207875000Y-184849647D01*
X207875000Y-185550000D02*
X207875000Y-186250353D01*
X209575000Y-184050000D02*
X208674647Y-184050000D01*
X209575000Y-184050000D02*
X210475353Y-184050000D01*
X209575000Y-187050000D02*
X208674647Y-187050000D01*
X209575000Y-187050000D02*
X210475353Y-187050000D01*
X211275000Y-185550000D02*
X211275000Y-184849647D01*
X211275000Y-185550000D02*
X211275000Y-186250353D01*
X207831066Y-184693345D02*
G75*
G02*
X207874982Y-184849647I-255666J-156155D01*
G01*
X207831066Y-184693345D02*
G75*
G02*
X208518345Y-184006066I426774J260505D01*
G01*
X207875000Y-186250353D02*
G75*
G02*
X207831066Y-186406655I-299370J-177D01*
G01*
X208518345Y-187093934D02*
G75*
G02*
X207831066Y-186406655I-260505J426774D01*
G01*
X208518345Y-187093934D02*
G75*
G02*
X208674647Y-187050003I156155J-255566D01*
G01*
X208674647Y-184050000D02*
G75*
G02*
X208518344Y-184006068I103J300380D01*
G01*
X210475353Y-187050000D02*
G75*
G02*
X210631655Y-187093934I3J-299992D01*
G01*
X210631655Y-184006066D02*
G75*
G02*
X210475353Y-184050000I-156299J256058D01*
G01*
X210631655Y-184006066D02*
G75*
G02*
X211318934Y-184693345I260503J-426776D01*
G01*
X211275000Y-184849647D02*
G75*
G02*
X211318934Y-184693345I299992J3D01*
G01*
X211318934Y-186406655D02*
G75*
G02*
X210631655Y-187093934I-426776J-260503D01*
G01*
X211318934Y-186406655D02*
G75*
G02*
X211275000Y-186250353I256058J156299D01*
G01*
%TO.C,RGB_LED46*%
X379325000Y-261750000D02*
X379325000Y-261049647D01*
X379325000Y-261750000D02*
X379325000Y-262450353D01*
X381025000Y-260250000D02*
X380124647Y-260250000D01*
X381025000Y-260250000D02*
X381925353Y-260250000D01*
X381025000Y-263250000D02*
X380124647Y-263250000D01*
X381025000Y-263250000D02*
X381925353Y-263250000D01*
X382725000Y-261750000D02*
X382725000Y-261049647D01*
X382725000Y-261750000D02*
X382725000Y-262450353D01*
X379281066Y-260893345D02*
G75*
G02*
X379324982Y-261049647I-255666J-156155D01*
G01*
X379281066Y-260893345D02*
G75*
G02*
X379968345Y-260206066I426774J260505D01*
G01*
X379325000Y-262450353D02*
G75*
G02*
X379281066Y-262606655I-299370J-177D01*
G01*
X379968345Y-263293934D02*
G75*
G02*
X379281066Y-262606655I-260505J426774D01*
G01*
X379968345Y-263293934D02*
G75*
G02*
X380124647Y-263250003I156155J-255566D01*
G01*
X380124647Y-260250000D02*
G75*
G02*
X379968344Y-260206068I103J300380D01*
G01*
X381925353Y-263250000D02*
G75*
G02*
X382081655Y-263293934I3J-299992D01*
G01*
X382081655Y-260206066D02*
G75*
G02*
X381925353Y-260250000I-156299J256058D01*
G01*
X382081655Y-260206066D02*
G75*
G02*
X382768934Y-260893345I260503J-426776D01*
G01*
X382725000Y-261049647D02*
G75*
G02*
X382768934Y-260893345I299992J3D01*
G01*
X382768934Y-262606655D02*
G75*
G02*
X382081655Y-263293934I-426776J-260503D01*
G01*
X382768934Y-262606655D02*
G75*
G02*
X382725000Y-262450353I256058J156299D01*
G01*
%TO.C,RGB_LED62*%
X184062500Y-223650000D02*
X184062500Y-222949647D01*
X184062500Y-223650000D02*
X184062500Y-224350353D01*
X185762500Y-222150000D02*
X184862147Y-222150000D01*
X185762500Y-222150000D02*
X186662853Y-222150000D01*
X185762500Y-225150000D02*
X184862147Y-225150000D01*
X185762500Y-225150000D02*
X186662853Y-225150000D01*
X187462500Y-223650000D02*
X187462500Y-222949647D01*
X187462500Y-223650000D02*
X187462500Y-224350353D01*
X184018566Y-222793345D02*
G75*
G02*
X184062482Y-222949647I-255666J-156155D01*
G01*
X184018566Y-222793345D02*
G75*
G02*
X184705845Y-222106066I426774J260505D01*
G01*
X184062500Y-224350353D02*
G75*
G02*
X184018566Y-224506655I-299370J-177D01*
G01*
X184705845Y-225193934D02*
G75*
G02*
X184018566Y-224506655I-260505J426774D01*
G01*
X184705845Y-225193934D02*
G75*
G02*
X184862147Y-225150003I156155J-255566D01*
G01*
X184862147Y-222150000D02*
G75*
G02*
X184705844Y-222106068I103J300380D01*
G01*
X186662853Y-225150000D02*
G75*
G02*
X186819155Y-225193934I3J-299992D01*
G01*
X186819155Y-222106066D02*
G75*
G02*
X186662853Y-222150000I-156299J256058D01*
G01*
X186819155Y-222106066D02*
G75*
G02*
X187506434Y-222793345I260503J-426776D01*
G01*
X187462500Y-222949647D02*
G75*
G02*
X187506434Y-222793345I299992J3D01*
G01*
X187506434Y-224506655D02*
G75*
G02*
X186819155Y-225193934I-426776J-260503D01*
G01*
X187506434Y-224506655D02*
G75*
G02*
X187462500Y-224350353I256058J156299D01*
G01*
%TO.C,RGB_LED28*%
X317412500Y-223650000D02*
X317412500Y-222949647D01*
X317412500Y-223650000D02*
X317412500Y-224350353D01*
X319112500Y-222150000D02*
X318212147Y-222150000D01*
X319112500Y-222150000D02*
X320012853Y-222150000D01*
X319112500Y-225150000D02*
X318212147Y-225150000D01*
X319112500Y-225150000D02*
X320012853Y-225150000D01*
X320812500Y-223650000D02*
X320812500Y-222949647D01*
X320812500Y-223650000D02*
X320812500Y-224350353D01*
X317368566Y-222793345D02*
G75*
G02*
X317412482Y-222949647I-255666J-156155D01*
G01*
X317368566Y-222793345D02*
G75*
G02*
X318055845Y-222106066I426774J260505D01*
G01*
X317412500Y-224350353D02*
G75*
G02*
X317368566Y-224506655I-299370J-177D01*
G01*
X318055845Y-225193934D02*
G75*
G02*
X317368566Y-224506655I-260505J426774D01*
G01*
X318055845Y-225193934D02*
G75*
G02*
X318212147Y-225150003I156155J-255566D01*
G01*
X318212147Y-222150000D02*
G75*
G02*
X318055844Y-222106068I103J300380D01*
G01*
X320012853Y-225150000D02*
G75*
G02*
X320169155Y-225193934I3J-299992D01*
G01*
X320169155Y-222106066D02*
G75*
G02*
X320012853Y-222150000I-156299J256058D01*
G01*
X320169155Y-222106066D02*
G75*
G02*
X320856434Y-222793345I260503J-426776D01*
G01*
X320812500Y-222949647D02*
G75*
G02*
X320856434Y-222793345I299992J3D01*
G01*
X320856434Y-224506655D02*
G75*
G02*
X320169155Y-225193934I-426776J-260503D01*
G01*
X320856434Y-224506655D02*
G75*
G02*
X320812500Y-224350353I256058J156299D01*
G01*
%TO.C,RGB_LED54*%
X336462500Y-223650000D02*
X336462500Y-222949647D01*
X336462500Y-223650000D02*
X336462500Y-224350353D01*
X338162500Y-222150000D02*
X337262147Y-222150000D01*
X338162500Y-222150000D02*
X339062853Y-222150000D01*
X338162500Y-225150000D02*
X337262147Y-225150000D01*
X338162500Y-225150000D02*
X339062853Y-225150000D01*
X339862500Y-223650000D02*
X339862500Y-222949647D01*
X339862500Y-223650000D02*
X339862500Y-224350353D01*
X336418566Y-222793345D02*
G75*
G02*
X336462482Y-222949647I-255666J-156155D01*
G01*
X336418566Y-222793345D02*
G75*
G02*
X337105845Y-222106066I426774J260505D01*
G01*
X336462500Y-224350353D02*
G75*
G02*
X336418566Y-224506655I-299370J-177D01*
G01*
X337105845Y-225193934D02*
G75*
G02*
X336418566Y-224506655I-260505J426774D01*
G01*
X337105845Y-225193934D02*
G75*
G02*
X337262147Y-225150003I156155J-255566D01*
G01*
X337262147Y-222150000D02*
G75*
G02*
X337105844Y-222106068I103J300380D01*
G01*
X339062853Y-225150000D02*
G75*
G02*
X339219155Y-225193934I3J-299992D01*
G01*
X339219155Y-222106066D02*
G75*
G02*
X339062853Y-222150000I-156299J256058D01*
G01*
X339219155Y-222106066D02*
G75*
G02*
X339906434Y-222793345I260503J-426776D01*
G01*
X339862500Y-222949647D02*
G75*
G02*
X339906434Y-222793345I299992J3D01*
G01*
X339906434Y-224506655D02*
G75*
G02*
X339219155Y-225193934I-426776J-260503D01*
G01*
X339906434Y-224506655D02*
G75*
G02*
X339862500Y-224350353I256058J156299D01*
G01*
%TO.C,RGB_LED21*%
X188825000Y-185550000D02*
X188825000Y-184849647D01*
X188825000Y-185550000D02*
X188825000Y-186250353D01*
X190525000Y-184050000D02*
X189624647Y-184050000D01*
X190525000Y-184050000D02*
X191425353Y-184050000D01*
X190525000Y-187050000D02*
X189624647Y-187050000D01*
X190525000Y-187050000D02*
X191425353Y-187050000D01*
X192225000Y-185550000D02*
X192225000Y-184849647D01*
X192225000Y-185550000D02*
X192225000Y-186250353D01*
X188781066Y-184693345D02*
G75*
G02*
X188824982Y-184849647I-255666J-156155D01*
G01*
X188781066Y-184693345D02*
G75*
G02*
X189468345Y-184006066I426774J260505D01*
G01*
X188825000Y-186250353D02*
G75*
G02*
X188781066Y-186406655I-299370J-177D01*
G01*
X189468345Y-187093934D02*
G75*
G02*
X188781066Y-186406655I-260505J426774D01*
G01*
X189468345Y-187093934D02*
G75*
G02*
X189624647Y-187050003I156155J-255566D01*
G01*
X189624647Y-184050000D02*
G75*
G02*
X189468344Y-184006068I103J300380D01*
G01*
X191425353Y-187050000D02*
G75*
G02*
X191581655Y-187093934I3J-299992D01*
G01*
X191581655Y-184006066D02*
G75*
G02*
X191425353Y-184050000I-156299J256058D01*
G01*
X191581655Y-184006066D02*
G75*
G02*
X192268934Y-184693345I260503J-426776D01*
G01*
X192225000Y-184849647D02*
G75*
G02*
X192268934Y-184693345I299992J3D01*
G01*
X192268934Y-186406655D02*
G75*
G02*
X191581655Y-187093934I-426776J-260503D01*
G01*
X192268934Y-186406655D02*
G75*
G02*
X192225000Y-186250353I256058J156299D01*
G01*
%TO.C,RGB_LED65*%
X188800000Y-261707500D02*
X188800000Y-261007147D01*
X188800000Y-261707500D02*
X188800000Y-262407853D01*
X190500000Y-260207500D02*
X189599647Y-260207500D01*
X190500000Y-260207500D02*
X191400353Y-260207500D01*
X190500000Y-263207500D02*
X189599647Y-263207500D01*
X190500000Y-263207500D02*
X191400353Y-263207500D01*
X192200000Y-261707500D02*
X192200000Y-261007147D01*
X192200000Y-261707500D02*
X192200000Y-262407853D01*
X188756066Y-260850845D02*
G75*
G02*
X188799982Y-261007147I-255666J-156155D01*
G01*
X188756066Y-260850845D02*
G75*
G02*
X189443345Y-260163566I426774J260505D01*
G01*
X188800000Y-262407853D02*
G75*
G02*
X188756066Y-262564155I-299370J-177D01*
G01*
X189443345Y-263251434D02*
G75*
G02*
X188756066Y-262564155I-260505J426774D01*
G01*
X189443345Y-263251434D02*
G75*
G02*
X189599647Y-263207503I156155J-255566D01*
G01*
X189599647Y-260207500D02*
G75*
G02*
X189443344Y-260163568I103J300380D01*
G01*
X191400353Y-263207500D02*
G75*
G02*
X191556655Y-263251434I3J-299992D01*
G01*
X191556655Y-260163566D02*
G75*
G02*
X191400353Y-260207500I-156299J256058D01*
G01*
X191556655Y-260163566D02*
G75*
G02*
X192243934Y-260850845I260503J-426776D01*
G01*
X192200000Y-261007147D02*
G75*
G02*
X192243934Y-260850845I299992J3D01*
G01*
X192243934Y-262564155D02*
G75*
G02*
X191556655Y-263251434I-426776J-260503D01*
G01*
X192243934Y-262564155D02*
G75*
G02*
X192200000Y-262407853I256058J156299D01*
G01*
%TO.C,RGB_LED59*%
X150725128Y-185607500D02*
X150725128Y-184907147D01*
X150725128Y-185607500D02*
X150725128Y-186307853D01*
X152425128Y-184107500D02*
X151524775Y-184107500D01*
X152425128Y-184107500D02*
X153325481Y-184107500D01*
X152425128Y-187107500D02*
X151524775Y-187107500D01*
X152425128Y-187107500D02*
X153325481Y-187107500D01*
X154125128Y-185607500D02*
X154125128Y-184907147D01*
X154125128Y-185607500D02*
X154125128Y-186307853D01*
X150681194Y-184750845D02*
G75*
G02*
X150725110Y-184907147I-255666J-156155D01*
G01*
X150681194Y-184750845D02*
G75*
G02*
X151368473Y-184063566I426774J260505D01*
G01*
X150725128Y-186307853D02*
G75*
G02*
X150681194Y-186464155I-299370J-177D01*
G01*
X151368473Y-187151434D02*
G75*
G02*
X150681194Y-186464155I-260505J426774D01*
G01*
X151368473Y-187151434D02*
G75*
G02*
X151524775Y-187107503I156155J-255566D01*
G01*
X151524775Y-184107500D02*
G75*
G02*
X151368472Y-184063568I103J300380D01*
G01*
X153325481Y-187107500D02*
G75*
G02*
X153481783Y-187151434I3J-299992D01*
G01*
X153481783Y-184063566D02*
G75*
G02*
X153325481Y-184107500I-156299J256058D01*
G01*
X153481783Y-184063566D02*
G75*
G02*
X154169062Y-184750845I260503J-426776D01*
G01*
X154125128Y-184907147D02*
G75*
G02*
X154169062Y-184750845I299992J3D01*
G01*
X154169062Y-186464155D02*
G75*
G02*
X153481783Y-187151434I-426776J-260503D01*
G01*
X154169062Y-186464155D02*
G75*
G02*
X154125128Y-186307853I256058J156299D01*
G01*
%TO.C,RGB_LED43*%
X193587500Y-242700000D02*
X193587500Y-241999647D01*
X193587500Y-242700000D02*
X193587500Y-243400353D01*
X195287500Y-241200000D02*
X194387147Y-241200000D01*
X195287500Y-241200000D02*
X196187853Y-241200000D01*
X195287500Y-244200000D02*
X194387147Y-244200000D01*
X195287500Y-244200000D02*
X196187853Y-244200000D01*
X196987500Y-242700000D02*
X196987500Y-241999647D01*
X196987500Y-242700000D02*
X196987500Y-243400353D01*
X193543566Y-241843345D02*
G75*
G02*
X193587482Y-241999647I-255666J-156155D01*
G01*
X193543566Y-241843345D02*
G75*
G02*
X194230845Y-241156066I426774J260505D01*
G01*
X193587500Y-243400353D02*
G75*
G02*
X193543566Y-243556655I-299370J-177D01*
G01*
X194230845Y-244243934D02*
G75*
G02*
X193543566Y-243556655I-260505J426774D01*
G01*
X194230845Y-244243934D02*
G75*
G02*
X194387147Y-244200003I156155J-255566D01*
G01*
X194387147Y-241200000D02*
G75*
G02*
X194230844Y-241156068I103J300380D01*
G01*
X196187853Y-244200000D02*
G75*
G02*
X196344155Y-244243934I3J-299992D01*
G01*
X196344155Y-241156066D02*
G75*
G02*
X196187853Y-241200000I-156299J256058D01*
G01*
X196344155Y-241156066D02*
G75*
G02*
X197031434Y-241843345I260503J-426776D01*
G01*
X196987500Y-241999647D02*
G75*
G02*
X197031434Y-241843345I299992J3D01*
G01*
X197031434Y-243556655D02*
G75*
G02*
X196344155Y-244243934I-426776J-260503D01*
G01*
X197031434Y-243556655D02*
G75*
G02*
X196987500Y-243400353I256058J156299D01*
G01*
%TO.C,RGB_LED40*%
X203112500Y-223650000D02*
X203112500Y-222949647D01*
X203112500Y-223650000D02*
X203112500Y-224350353D01*
X204812500Y-222150000D02*
X203912147Y-222150000D01*
X204812500Y-222150000D02*
X205712853Y-222150000D01*
X204812500Y-225150000D02*
X203912147Y-225150000D01*
X204812500Y-225150000D02*
X205712853Y-225150000D01*
X206512500Y-223650000D02*
X206512500Y-222949647D01*
X206512500Y-223650000D02*
X206512500Y-224350353D01*
X203068566Y-222793345D02*
G75*
G02*
X203112482Y-222949647I-255666J-156155D01*
G01*
X203068566Y-222793345D02*
G75*
G02*
X203755845Y-222106066I426774J260505D01*
G01*
X203112500Y-224350353D02*
G75*
G02*
X203068566Y-224506655I-299370J-177D01*
G01*
X203755845Y-225193934D02*
G75*
G02*
X203068566Y-224506655I-260505J426774D01*
G01*
X203755845Y-225193934D02*
G75*
G02*
X203912147Y-225150003I156155J-255566D01*
G01*
X203912147Y-222150000D02*
G75*
G02*
X203755844Y-222106068I103J300380D01*
G01*
X205712853Y-225150000D02*
G75*
G02*
X205869155Y-225193934I3J-299992D01*
G01*
X205869155Y-222106066D02*
G75*
G02*
X205712853Y-222150000I-156299J256058D01*
G01*
X205869155Y-222106066D02*
G75*
G02*
X206556434Y-222793345I260503J-426776D01*
G01*
X206512500Y-222949647D02*
G75*
G02*
X206556434Y-222793345I299992J3D01*
G01*
X206556434Y-224506655D02*
G75*
G02*
X205869155Y-225193934I-426776J-260503D01*
G01*
X206556434Y-224506655D02*
G75*
G02*
X206512500Y-224350353I256058J156299D01*
G01*
%TO.C,RGB_LED38*%
X274550000Y-204600000D02*
X274550000Y-203899647D01*
X274550000Y-204600000D02*
X274550000Y-205300353D01*
X276250000Y-203100000D02*
X275349647Y-203100000D01*
X276250000Y-203100000D02*
X277150353Y-203100000D01*
X276250000Y-206100000D02*
X275349647Y-206100000D01*
X276250000Y-206100000D02*
X277150353Y-206100000D01*
X277950000Y-204600000D02*
X277950000Y-203899647D01*
X277950000Y-204600000D02*
X277950000Y-205300353D01*
X274506066Y-203743345D02*
G75*
G02*
X274549982Y-203899647I-255666J-156155D01*
G01*
X274506066Y-203743345D02*
G75*
G02*
X275193345Y-203056066I426774J260505D01*
G01*
X274550000Y-205300353D02*
G75*
G02*
X274506066Y-205456655I-299370J-177D01*
G01*
X275193345Y-206143934D02*
G75*
G02*
X274506066Y-205456655I-260505J426774D01*
G01*
X275193345Y-206143934D02*
G75*
G02*
X275349647Y-206100003I156155J-255566D01*
G01*
X275349647Y-203100000D02*
G75*
G02*
X275193344Y-203056068I103J300380D01*
G01*
X277150353Y-206100000D02*
G75*
G02*
X277306655Y-206143934I3J-299992D01*
G01*
X277306655Y-203056066D02*
G75*
G02*
X277150353Y-203100000I-156299J256058D01*
G01*
X277306655Y-203056066D02*
G75*
G02*
X277993934Y-203743345I260503J-426776D01*
G01*
X277950000Y-203899647D02*
G75*
G02*
X277993934Y-203743345I299992J3D01*
G01*
X277993934Y-205456655D02*
G75*
G02*
X277306655Y-206143934I-426776J-260503D01*
G01*
X277993934Y-205456655D02*
G75*
G02*
X277950000Y-205300353I256058J156299D01*
G01*
%TO.C,RGB_LED10*%
X217400000Y-204600000D02*
X217400000Y-203899647D01*
X217400000Y-204600000D02*
X217400000Y-205300353D01*
X219100000Y-203100000D02*
X218199647Y-203100000D01*
X219100000Y-203100000D02*
X220000353Y-203100000D01*
X219100000Y-206100000D02*
X218199647Y-206100000D01*
X219100000Y-206100000D02*
X220000353Y-206100000D01*
X220800000Y-204600000D02*
X220800000Y-203899647D01*
X220800000Y-204600000D02*
X220800000Y-205300353D01*
X217356066Y-203743345D02*
G75*
G02*
X217399982Y-203899647I-255666J-156155D01*
G01*
X217356066Y-203743345D02*
G75*
G02*
X218043345Y-203056066I426774J260505D01*
G01*
X217400000Y-205300353D02*
G75*
G02*
X217356066Y-205456655I-299370J-177D01*
G01*
X218043345Y-206143934D02*
G75*
G02*
X217356066Y-205456655I-260505J426774D01*
G01*
X218043345Y-206143934D02*
G75*
G02*
X218199647Y-206100003I156155J-255566D01*
G01*
X218199647Y-203100000D02*
G75*
G02*
X218043344Y-203056068I103J300380D01*
G01*
X220000353Y-206100000D02*
G75*
G02*
X220156655Y-206143934I3J-299992D01*
G01*
X220156655Y-203056066D02*
G75*
G02*
X220000353Y-203100000I-156299J256058D01*
G01*
X220156655Y-203056066D02*
G75*
G02*
X220843934Y-203743345I260503J-426776D01*
G01*
X220800000Y-203899647D02*
G75*
G02*
X220843934Y-203743345I299992J3D01*
G01*
X220843934Y-205456655D02*
G75*
G02*
X220156655Y-206143934I-426776J-260503D01*
G01*
X220843934Y-205456655D02*
G75*
G02*
X220800000Y-205300353I256058J156299D01*
G01*
%TD*%
M02*
