%TF.GenerationSoftware,KiCad,Pcbnew,10.0.5*%
%TF.CreationDate,2026-10-02T10:27:15-07:00*%
%TF.ProjectId,Custom Keyboard,43757374-6f6d-4204-9b65-79626f617264,rev?*%
%TF.SameCoordinates,Original*%
%TF.FileFunction,Other,ECO2*%
%FSLAX46Y46*%
G04 Gerber Fmt 4.6, Leading zero omitted, Abs format (unit mm)*
G04 Created by KiCad (PCBNEW 10.0.5) date 2026-10-02 10:27:15*
%MOMM*%
%LPD*%
G01*
G04 APERTURE LIST*
%ADD10C,0.050000*%
G04 APERTURE END LIST*
%TO.C,MX2*%
D10*
X149025000Y-232942501D02*
X149025000Y-245942501D01*
X149525000Y-232442501D02*
X155275000Y-232442501D01*
X149525000Y-246442501D02*
X155275000Y-246442501D01*
X155775000Y-232942501D02*
X155775000Y-245942501D01*
X172837500Y-232942501D02*
X172837500Y-245942501D01*
X173337500Y-232442501D02*
X179086289Y-232442501D01*
X173337500Y-246442501D02*
X179087500Y-246442501D01*
X179586289Y-232942501D02*
X179587500Y-245942501D01*
X149025000Y-232942501D02*
G75*
G02*
X149525000Y-232442501I500001J-1D01*
G01*
X149525000Y-246442501D02*
G75*
G02*
X149025000Y-245942501I1J500001D01*
G01*
X155275000Y-232442501D02*
G75*
G02*
X155775000Y-232942501I-1J-500001D01*
G01*
X155775000Y-245942501D02*
G75*
G02*
X155275000Y-246442501I-500001J1D01*
G01*
X172837500Y-232942501D02*
G75*
G02*
X173337500Y-232442450I500050J1D01*
G01*
X173337500Y-246442501D02*
G75*
G02*
X172837549Y-245942501I50J500001D01*
G01*
X179086289Y-232442501D02*
G75*
G02*
X179586249Y-232942501I-39J-499999D01*
G01*
X179587500Y-245942501D02*
G75*
G02*
X179087500Y-246442550I-500050J1D01*
G01*
%TO.C,MX3*%
X391912500Y-213892501D02*
X391912500Y-226892501D01*
X392412500Y-213392501D02*
X398162500Y-213392501D01*
X392412500Y-227392501D02*
X398162500Y-227392501D01*
X398662500Y-213892501D02*
X398662500Y-226892501D01*
X415725000Y-213892501D02*
X415725000Y-226892501D01*
X416225000Y-213392501D02*
X421973789Y-213392501D01*
X416225000Y-227392501D02*
X421975000Y-227392501D01*
X422473789Y-213892501D02*
X422475000Y-226892501D01*
X391912500Y-213892501D02*
G75*
G02*
X392412500Y-213392501I500001J-1D01*
G01*
X392412500Y-227392501D02*
G75*
G02*
X391912500Y-226892501I1J500001D01*
G01*
X398162500Y-213392501D02*
G75*
G02*
X398662500Y-213892501I-1J-500001D01*
G01*
X398662500Y-226892501D02*
G75*
G02*
X398162500Y-227392501I-500001J1D01*
G01*
X415725000Y-213892501D02*
G75*
G02*
X416225000Y-213392450I500050J1D01*
G01*
X416225000Y-227392501D02*
G75*
G02*
X415725049Y-226892501I50J500001D01*
G01*
X421973789Y-213392501D02*
G75*
G02*
X422473749Y-213892501I-39J-499999D01*
G01*
X422475000Y-226892501D02*
G75*
G02*
X421975000Y-227392550I-500050J1D01*
G01*
%TO.C,MX5*%
X260943750Y-251992501D02*
X260943750Y-264992501D01*
X261443750Y-251492501D02*
X267193750Y-251492501D01*
X261443750Y-265492501D02*
X267193750Y-265492501D01*
X267693750Y-251992501D02*
X267693750Y-264992501D01*
X284756250Y-251992501D02*
X284756250Y-264992501D01*
X285256250Y-251492501D02*
X291005039Y-251492501D01*
X285256250Y-265492501D02*
X291006250Y-265492501D01*
X291505039Y-251992501D02*
X291506250Y-264992501D01*
X260943750Y-251992501D02*
G75*
G02*
X261443750Y-251492501I500001J-1D01*
G01*
X261443750Y-265492501D02*
G75*
G02*
X260943750Y-264992501I1J500001D01*
G01*
X267193750Y-251492501D02*
G75*
G02*
X267693750Y-251992501I-1J-500001D01*
G01*
X267693750Y-264992501D02*
G75*
G02*
X267193750Y-265492501I-500001J1D01*
G01*
X284756250Y-251992501D02*
G75*
G02*
X285256250Y-251492450I500050J1D01*
G01*
X285256250Y-265492501D02*
G75*
G02*
X284756299Y-264992501I50J500001D01*
G01*
X291005039Y-251492501D02*
G75*
G02*
X291504999Y-251992501I-39J-499999D01*
G01*
X291506250Y-264992501D02*
G75*
G02*
X291006250Y-265492550I-500050J1D01*
G01*
X394293750Y-175792501D02*
X394293750Y-188792501D01*
X394793750Y-175292501D02*
X400543750Y-175292501D01*
X394793750Y-189292501D02*
X400543750Y-189292501D01*
X401043750Y-175792501D02*
X401043750Y-188792501D01*
X418106250Y-175792501D02*
X418106250Y-188792501D01*
X418606250Y-175292501D02*
X424355039Y-175292501D01*
X418606250Y-189292501D02*
X424356250Y-189292501D01*
X424855039Y-175792501D02*
X424856250Y-188792501D01*
X394293750Y-175792501D02*
G75*
G02*
X394793750Y-175292501I500001J-1D01*
G01*
X394793750Y-189292501D02*
G75*
G02*
X394293750Y-188792501I1J500001D01*
G01*
X400543750Y-175292501D02*
G75*
G02*
X401043750Y-175792501I-1J-500001D01*
G01*
X401043750Y-188792501D02*
G75*
G02*
X400543750Y-189292501I-500001J1D01*
G01*
X418106250Y-175792501D02*
G75*
G02*
X418606250Y-175292450I500050J1D01*
G01*
X418606250Y-189292501D02*
G75*
G02*
X418106299Y-188792501I50J500001D01*
G01*
X424355039Y-175292501D02*
G75*
G02*
X424854999Y-175792501I-39J-499999D01*
G01*
X424856250Y-188792501D02*
G75*
G02*
X424356250Y-189292550I-500050J1D01*
G01*
%TO.C,MX4*%
X387150000Y-232942501D02*
X387150000Y-245942501D01*
X387650000Y-232442501D02*
X393400000Y-232442501D01*
X387650000Y-246442501D02*
X393400000Y-246442501D01*
X393900000Y-232942501D02*
X393900000Y-245942501D01*
X410962500Y-232942501D02*
X410962500Y-245942501D01*
X411462500Y-232442501D02*
X417211289Y-232442501D01*
X411462500Y-246442501D02*
X417212500Y-246442501D01*
X417711289Y-232942501D02*
X417712500Y-245942501D01*
X387150000Y-232942501D02*
G75*
G02*
X387650000Y-232442501I500001J-1D01*
G01*
X387650000Y-246442501D02*
G75*
G02*
X387150000Y-245942501I1J500001D01*
G01*
X393400000Y-232442501D02*
G75*
G02*
X393900000Y-232942501I-1J-500001D01*
G01*
X393900000Y-245942501D02*
G75*
G02*
X393400000Y-246442501I-500001J1D01*
G01*
X410962500Y-232942501D02*
G75*
G02*
X411462500Y-232442450I500050J1D01*
G01*
X411462500Y-246442501D02*
G75*
G02*
X410962549Y-245942501I50J500001D01*
G01*
X417211289Y-232442501D02*
G75*
G02*
X417711249Y-232942501I-39J-499999D01*
G01*
X417712500Y-245942501D02*
G75*
G02*
X417212500Y-246442550I-500050J1D01*
G01*
%TO.C,MX1*%
X222843750Y-251992501D02*
X222843750Y-264992501D01*
X223343750Y-251492501D02*
X229093750Y-251492501D01*
X223343750Y-265492501D02*
X229093750Y-265492501D01*
X229593750Y-251992501D02*
X229593750Y-264992501D01*
X322856250Y-251992501D02*
X322856250Y-264992501D01*
X323356250Y-251492501D02*
X329105039Y-251492501D01*
X323356250Y-265492501D02*
X329106250Y-265492501D01*
X329605039Y-251992501D02*
X329606250Y-264992501D01*
X222843750Y-251992501D02*
G75*
G02*
X223343750Y-251492501I500001J-1D01*
G01*
X223343750Y-265492501D02*
G75*
G02*
X222843750Y-264992501I1J500001D01*
G01*
X229093750Y-251492501D02*
G75*
G02*
X229593750Y-251992501I-1J-500001D01*
G01*
X229593750Y-264992501D02*
G75*
G02*
X229093750Y-265492501I-500001J1D01*
G01*
X322856250Y-251992501D02*
G75*
G02*
X323356250Y-251492450I500050J1D01*
G01*
X323356250Y-265492501D02*
G75*
G02*
X322856299Y-264992501I50J500001D01*
G01*
X329105039Y-251492501D02*
G75*
G02*
X329604999Y-251992501I-39J-499999D01*
G01*
X329606250Y-264992501D02*
G75*
G02*
X329106250Y-265492550I-500050J1D01*
G01*
%TD*%
M02*
