%TF.GenerationSoftware,KiCad,Pcbnew,10.0.5*%
%TF.CreationDate,2026-10-02T10:27:15-07:00*%
%TF.ProjectId,Custom Keyboard,43757374-6f6d-4204-9b65-79626f617264,rev?*%
%TF.SameCoordinates,Original*%
%TF.FileFunction,Soldermask,Top*%
%TF.FilePolarity,Negative*%
%FSLAX46Y46*%
G04 Gerber Fmt 4.6, Leading zero omitted, Abs format (unit mm)*
G04 Created by KiCad (PCBNEW 10.0.5) date 2026-10-02 10:27:15*
%MOMM*%
%LPD*%
G01*
G04 APERTURE LIST*
G04 Aperture macros list*
%AMRoundRect*
0 Rectangle with rounded corners*
0 $1 Rounding radius*
0 $2 $3 $4 $5 $6 $7 $8 $9 X,Y pos of 4 corners*
0 Add a 4 corners polygon primitive as box body*
4,1,4,$2,$3,$4,$5,$6,$7,$8,$9,$2,$3,0*
0 Add four circle primitives for the rounded corners*
1,1,$1+$1,$2,$3*
1,1,$1+$1,$4,$5*
1,1,$1+$1,$6,$7*
1,1,$1+$1,$8,$9*
0 Add four rect primitives between the rounded corners*
20,1,$1+$1,$2,$3,$4,$5,0*
20,1,$1+$1,$4,$5,$6,$7,0*
20,1,$1+$1,$6,$7,$8,$9,0*
20,1,$1+$1,$8,$9,$2,$3,0*%
%AMFreePoly0*
4,1,37,0.800000,0.796148,0.878414,0.796148,1.032228,0.765552,1.177117,0.705537,1.307515,0.618408,1.418408,0.507515,1.505537,0.377117,1.565552,0.232228,1.596148,0.078414,1.596148,-0.078414,1.565552,-0.232228,1.505537,-0.377117,1.418408,-0.507515,1.307515,-0.618408,1.177117,-0.705537,1.032228,-0.765552,0.878414,-0.796148,0.800000,-0.796148,0.800000,-0.800000,-1.400000,-0.800000,
-1.403843,-0.796157,-1.439018,-0.796157,-1.511114,-0.766294,-1.566294,-0.711114,-1.596157,-0.639018,-1.596157,-0.603843,-1.600000,-0.600000,-1.600000,0.600000,-1.596157,0.603843,-1.596157,0.639018,-1.566294,0.711114,-1.511114,0.766294,-1.439018,0.796157,-1.403843,0.796157,-1.400000,0.800000,0.800000,0.800000,0.800000,0.796148,0.800000,0.796148,$1*%
%AMFreePoly1*
4,1,37,1.403843,0.796157,1.439018,0.796157,1.511114,0.766294,1.566294,0.711114,1.596157,0.639018,1.596157,0.603843,1.600000,0.600000,1.600000,-0.600000,1.596157,-0.603843,1.596157,-0.639018,1.566294,-0.711114,1.511114,-0.766294,1.439018,-0.796157,1.403843,-0.796157,1.400000,-0.800000,-0.800000,-0.800000,-0.800000,-0.796148,-0.878414,-0.796148,-1.032228,-0.765552,-1.177117,-0.705537,
-1.307515,-0.618408,-1.418408,-0.507515,-1.505537,-0.377117,-1.565552,-0.232228,-1.596148,-0.078414,-1.596148,0.078414,-1.565552,0.232228,-1.505537,0.377117,-1.418408,0.507515,-1.307515,0.618408,-1.177117,0.705537,-1.032228,0.765552,-0.878414,0.796148,-0.800000,0.796148,-0.800000,0.800000,1.400000,0.800000,1.403843,0.796157,1.403843,0.796157,$1*%
%AMFreePoly2*
4,1,37,0.603843,0.796157,0.639018,0.796157,0.711114,0.766294,0.766294,0.711114,0.796157,0.639018,0.796157,0.603843,0.800000,0.600000,0.800000,-0.600000,0.796157,-0.603843,0.796157,-0.639018,0.766294,-0.711114,0.711114,-0.766294,0.639018,-0.796157,0.603843,-0.796157,0.600000,-0.800000,0.000000,-0.800000,0.000000,-0.796148,-0.078414,-0.796148,-0.232228,-0.765552,-0.377117,-0.705537,
-0.507515,-0.618408,-0.618408,-0.507515,-0.705537,-0.377117,-0.765552,-0.232228,-0.796148,-0.078414,-0.796148,0.078414,-0.765552,0.232228,-0.705537,0.377117,-0.618408,0.507515,-0.507515,0.618408,-0.377117,0.705537,-0.232228,0.765552,-0.078414,0.796148,0.000000,0.796148,0.000000,0.800000,0.600000,0.800000,0.603843,0.796157,0.603843,0.796157,$1*%
%AMFreePoly3*
4,1,37,0.000000,0.796148,0.078414,0.796148,0.232228,0.765552,0.377117,0.705537,0.507515,0.618408,0.618408,0.507515,0.705537,0.377117,0.765552,0.232228,0.796148,0.078414,0.796148,-0.078414,0.765552,-0.232228,0.705537,-0.377117,0.618408,-0.507515,0.507515,-0.618408,0.377117,-0.705537,0.232228,-0.765552,0.078414,-0.796148,0.000000,-0.796148,0.000000,-0.800000,-0.600000,-0.800000,
-0.603843,-0.796157,-0.639018,-0.796157,-0.711114,-0.766294,-0.766294,-0.711114,-0.796157,-0.639018,-0.796157,-0.603843,-0.800000,-0.600000,-0.800000,0.600000,-0.796157,0.603843,-0.796157,0.639018,-0.766294,0.711114,-0.711114,0.766294,-0.639018,0.796157,-0.603843,0.796157,-0.600000,0.800000,0.000000,0.800000,0.000000,0.796148,0.000000,0.796148,$1*%
G04 Aperture macros list end*
%ADD10C,1.750000*%
%ADD11C,3.500000*%
%ADD12C,3.987800*%
%ADD13RoundRect,0.250000X0.550000X-0.550000X0.550000X0.550000X-0.550000X0.550000X-0.550000X-0.550000X0*%
%ADD14C,1.600000*%
%ADD15RoundRect,0.170000X0.680000X-0.680000X0.680000X0.680000X-0.680000X0.680000X-0.680000X-0.680000X0*%
%ADD16C,1.700000*%
%ADD17C,3.200000*%
%ADD18RoundRect,0.250000X-0.550000X-0.550000X0.550000X-0.550000X0.550000X0.550000X-0.550000X0.550000X0*%
%ADD19C,3.048000*%
%ADD20O,7.000000X3.000000*%
%ADD21R,2.000000X2.000000*%
%ADD22C,2.000000*%
%ADD23C,2.200000*%
%ADD24C,1.850000*%
%ADD25FreePoly0,0.000000*%
%ADD26RoundRect,0.200000X-0.600000X-0.600000X0.600000X-0.600000X0.600000X0.600000X-0.600000X0.600000X0*%
%ADD27RoundRect,0.800000X-0.800000X-0.000010X0.800000X-0.000010X0.800000X0.000010X-0.800000X0.000010X0*%
%ADD28FreePoly1,0.000000*%
%ADD29FreePoly2,0.000000*%
%ADD30FreePoly3,0.000000*%
%ADD31RoundRect,0.250000X0.550000X0.550000X-0.550000X0.550000X-0.550000X-0.550000X0.550000X-0.550000X0*%
G04 APERTURE END LIST*
D10*
%TO.C,SW49*%
X209240500Y-238420000D03*
D11*
X210570500Y-235770000D03*
D12*
X214320500Y-238420000D03*
D11*
X217020500Y-233170000D03*
D10*
X219400500Y-238420000D03*
%TD*%
%TO.C,SW65*%
X394978000Y-257470000D03*
D11*
X396308000Y-254820000D03*
D12*
X400058000Y-257470000D03*
D11*
X402758000Y-252220000D03*
D10*
X405138000Y-257470000D03*
%TD*%
%TO.C,SW18*%
X375928000Y-181270000D03*
D11*
X377258000Y-178620000D03*
D12*
X381008000Y-181270000D03*
D11*
X383708000Y-176020000D03*
D10*
X386088000Y-181270000D03*
%TD*%
D13*
%TO.C,D56*%
X357187500Y-243205000D03*
D14*
X357187500Y-235585000D03*
%TD*%
D10*
%TO.C,SW22*%
X194953000Y-200320000D03*
D11*
X196283000Y-197670000D03*
D12*
X200033000Y-200320000D03*
D11*
X202733000Y-195070000D03*
D10*
X205113000Y-200320000D03*
%TD*%
D13*
%TO.C,D42*%
X328612500Y-224155000D03*
D14*
X328612500Y-216535000D03*
%TD*%
D10*
%TO.C,SW48*%
X190190500Y-238420000D03*
D11*
X191520500Y-235770000D03*
D12*
X195270500Y-238420000D03*
D11*
X197970500Y-233170000D03*
D10*
X200350500Y-238420000D03*
%TD*%
D13*
%TO.C,D7*%
X180975000Y-186055000D03*
D14*
X180975000Y-178435000D03*
%TD*%
D10*
%TO.C,SW2*%
X185428000Y-152377500D03*
D11*
X186758000Y-149727500D03*
D12*
X190508000Y-152377500D03*
D11*
X193208000Y-147127500D03*
D10*
X195588000Y-152377500D03*
%TD*%
%TO.C,SW38*%
X237815500Y-219370000D03*
D11*
X239145500Y-216720000D03*
D12*
X242895500Y-219370000D03*
D11*
X245595500Y-214120000D03*
D10*
X247975500Y-219370000D03*
%TD*%
D14*
%TO.C,R1*%
X451900000Y-257500000D03*
X451900000Y-249880000D03*
%TD*%
D13*
%TO.C,D54*%
X319087500Y-243205000D03*
D14*
X319087500Y-235585000D03*
%TD*%
D13*
%TO.C,D53*%
X300037500Y-243205000D03*
D14*
X300037500Y-235585000D03*
%TD*%
D13*
%TO.C,D58*%
X411956250Y-243205000D03*
D14*
X411956250Y-235585000D03*
%TD*%
%TO.C,R2*%
X421325000Y-144275000D03*
X428945000Y-144275000D03*
%TD*%
D13*
%TO.C,D21*%
X190500000Y-205105000D03*
D14*
X190500000Y-197485000D03*
%TD*%
D10*
%TO.C,SW55*%
X323540500Y-238420000D03*
D11*
X324870500Y-235770000D03*
D12*
X328620500Y-238420000D03*
D11*
X331320500Y-233170000D03*
D10*
X333700500Y-238420000D03*
%TD*%
D13*
%TO.C,D26*%
X285750000Y-205105000D03*
D14*
X285750000Y-197485000D03*
%TD*%
D13*
%TO.C,D63*%
X371475000Y-262255000D03*
D14*
X371475000Y-254635000D03*
%TD*%
D13*
%TO.C,D60*%
X180975000Y-262255000D03*
D14*
X180975000Y-254635000D03*
%TD*%
D10*
%TO.C,SW28*%
X309253000Y-200320000D03*
D11*
X310583000Y-197670000D03*
D12*
X314333000Y-200320000D03*
D11*
X317033000Y-195070000D03*
D10*
X319413000Y-200320000D03*
%TD*%
%TO.C,SW63*%
X356878000Y-257470000D03*
D11*
X358208000Y-254820000D03*
D12*
X361958000Y-257470000D03*
D11*
X364658000Y-252220000D03*
D10*
X367038000Y-257470000D03*
%TD*%
D13*
%TO.C,D20*%
X166687500Y-205105000D03*
D14*
X166687500Y-197485000D03*
%TD*%
D10*
%TO.C,SW12*%
X261628000Y-181270000D03*
D11*
X262958000Y-178620000D03*
D12*
X266708000Y-181270000D03*
D11*
X269408000Y-176020000D03*
D10*
X271788000Y-181270000D03*
%TD*%
D13*
%TO.C,D25*%
X266700000Y-205105000D03*
D14*
X266700000Y-197485000D03*
%TD*%
D10*
%TO.C,SW39*%
X256865500Y-219370000D03*
D11*
X258195500Y-216720000D03*
D12*
X261945500Y-219370000D03*
D11*
X264645500Y-214120000D03*
D10*
X267025500Y-219370000D03*
%TD*%
%TO.C,SW36*%
X199715500Y-219370000D03*
D11*
X201045500Y-216720000D03*
D12*
X204795500Y-219370000D03*
D11*
X207495500Y-214120000D03*
D10*
X209875500Y-219370000D03*
%TD*%
D13*
%TO.C,D1*%
X161925000Y-156210000D03*
D14*
X161925000Y-148590000D03*
%TD*%
D10*
%TO.C,SW53*%
X285440500Y-238420000D03*
D11*
X286770500Y-235770000D03*
D12*
X290520500Y-238420000D03*
D11*
X293220500Y-233170000D03*
D10*
X295600500Y-238420000D03*
%TD*%
D13*
%TO.C,D38*%
X252412500Y-224155000D03*
D14*
X252412500Y-216535000D03*
%TD*%
D13*
%TO.C,D19*%
X419100000Y-186055000D03*
D14*
X419100000Y-178435000D03*
%TD*%
D13*
%TO.C,D9*%
X219075000Y-186055000D03*
D14*
X219075000Y-178435000D03*
%TD*%
D10*
%TO.C,SW60*%
X166378000Y-257470000D03*
D11*
X167708000Y-254820000D03*
D12*
X171458000Y-257470000D03*
D11*
X174158000Y-252220000D03*
D10*
X176538000Y-257470000D03*
%TD*%
%TO.C,SW26*%
X271153000Y-200320000D03*
D11*
X272483000Y-197670000D03*
D12*
X276233000Y-200320000D03*
D11*
X278933000Y-195070000D03*
D10*
X281313000Y-200320000D03*
%TD*%
D13*
%TO.C,D2*%
X200025000Y-157162500D03*
D14*
X200025000Y-149542500D03*
%TD*%
D10*
%TO.C,SW32*%
X385453000Y-200320000D03*
D11*
X386783000Y-197670000D03*
D12*
X390533000Y-200320000D03*
D11*
X393233000Y-195070000D03*
D10*
X395613000Y-200320000D03*
%TD*%
D15*
%TO.C,U1*%
X268275000Y-156235000D03*
D16*
X268275000Y-153695000D03*
X268275000Y-151155000D03*
X268275000Y-148615000D03*
%TD*%
D13*
%TO.C,D22*%
X209550000Y-205105000D03*
D14*
X209550000Y-197485000D03*
%TD*%
D13*
%TO.C,D5*%
X257175000Y-157162500D03*
D14*
X257175000Y-149542500D03*
%TD*%
D10*
%TO.C,SW35*%
X180665500Y-219370000D03*
D11*
X181995500Y-216720000D03*
D12*
X185745500Y-219370000D03*
D11*
X188445500Y-214120000D03*
D10*
X190825500Y-219370000D03*
%TD*%
D13*
%TO.C,D12*%
X276225000Y-186055000D03*
D14*
X276225000Y-178435000D03*
%TD*%
D10*
%TO.C,SW66*%
X414028000Y-257470000D03*
D11*
X415358000Y-254820000D03*
D12*
X419108000Y-257470000D03*
D11*
X421808000Y-252220000D03*
D10*
X424188000Y-257470000D03*
%TD*%
%TO.C,SW62*%
X271153000Y-257470000D03*
D11*
X272483000Y-254820000D03*
D12*
X276233000Y-257470000D03*
D11*
X278933000Y-252220000D03*
D10*
X281313000Y-257470000D03*
%TD*%
%TO.C,SW20*%
X152090500Y-200320000D03*
D11*
X153420500Y-197670000D03*
D12*
X157170500Y-200320000D03*
D11*
X159870500Y-195070000D03*
D10*
X162250500Y-200320000D03*
%TD*%
D17*
%TO.C,Screw_Mount*%
X478800000Y-141900000D03*
%TD*%
D13*
%TO.C,D23*%
X228600000Y-205105000D03*
D14*
X228600000Y-197485000D03*
%TD*%
%TO.C,C3*%
X480300000Y-249800000D03*
X480300000Y-244800000D03*
%TD*%
D10*
%TO.C,SW56*%
X342590500Y-238420000D03*
D11*
X343920500Y-235770000D03*
D12*
X347670500Y-238420000D03*
D11*
X350370500Y-233170000D03*
D10*
X352750500Y-238420000D03*
%TD*%
D17*
%TO.C,Screw_Mount*%
X137100000Y-141900000D03*
%TD*%
D10*
%TO.C,SW15*%
X318778000Y-181270000D03*
D11*
X320108000Y-178620000D03*
D12*
X323858000Y-181270000D03*
D11*
X326558000Y-176020000D03*
D10*
X328938000Y-181270000D03*
%TD*%
%TO.C,SW5*%
X242578000Y-152377500D03*
D11*
X243908000Y-149727500D03*
D12*
X247658000Y-152377500D03*
D11*
X250358000Y-147127500D03*
D10*
X252738000Y-152377500D03*
%TD*%
D13*
%TO.C,D51*%
X261937500Y-243205000D03*
D14*
X261937500Y-235585000D03*
%TD*%
D13*
%TO.C,D30*%
X361950000Y-205105000D03*
D14*
X361950000Y-197485000D03*
%TD*%
D10*
%TO.C,SW4*%
X223528000Y-152377500D03*
D11*
X224858000Y-149727500D03*
D12*
X228608000Y-152377500D03*
D11*
X231308000Y-147127500D03*
D10*
X233688000Y-152377500D03*
%TD*%
D13*
%TO.C,D6*%
X161925000Y-186055000D03*
D14*
X161925000Y-178435000D03*
%TD*%
D10*
%TO.C,SW8*%
X185428000Y-181270000D03*
D11*
X186758000Y-178620000D03*
D12*
X190508000Y-181270000D03*
D11*
X193208000Y-176020000D03*
D10*
X195588000Y-181270000D03*
%TD*%
%TO.C,SW61*%
X185428000Y-257470000D03*
D11*
X186758000Y-254820000D03*
D12*
X190508000Y-257470000D03*
D11*
X193208000Y-252220000D03*
D10*
X195588000Y-257470000D03*
%TD*%
D13*
%TO.C,D34*%
X169068750Y-224631250D03*
D14*
X169068750Y-217011250D03*
%TD*%
D10*
%TO.C,SW27*%
X290203000Y-200320000D03*
D11*
X291533000Y-197670000D03*
D12*
X295283000Y-200320000D03*
D11*
X297983000Y-195070000D03*
D10*
X300363000Y-200320000D03*
%TD*%
D13*
%TO.C,D13*%
X295275000Y-186055000D03*
D14*
X295275000Y-178435000D03*
%TD*%
D13*
%TO.C,D15*%
X333375000Y-186055000D03*
D14*
X333375000Y-178435000D03*
%TD*%
%TO.C,U2*%
X458330000Y-255525000D03*
D18*
X458330000Y-252985000D03*
D14*
X458330000Y-258065000D03*
X458330000Y-263145000D03*
X458330000Y-260605000D03*
X458330000Y-265685000D03*
X467120000Y-265685000D03*
X467120000Y-263145000D03*
X467120000Y-268225000D03*
X467120000Y-258065000D03*
X467120000Y-255525000D03*
X467120000Y-260605000D03*
X458330000Y-268225000D03*
X467120000Y-252985000D03*
%TD*%
D13*
%TO.C,D49*%
X223837500Y-243205000D03*
D14*
X223837500Y-235585000D03*
%TD*%
D13*
%TO.C,D4*%
X238125000Y-156210000D03*
D14*
X238125000Y-148590000D03*
%TD*%
D10*
%TO.C,SW25*%
X252103000Y-200320000D03*
D11*
X253433000Y-197670000D03*
D12*
X257183000Y-200320000D03*
D11*
X259883000Y-195070000D03*
D10*
X262263000Y-200320000D03*
%TD*%
D13*
%TO.C,D17*%
X371475000Y-186055000D03*
D14*
X371475000Y-178435000D03*
%TD*%
D13*
%TO.C,D62*%
X285750000Y-262255000D03*
D14*
X285750000Y-254635000D03*
%TD*%
D10*
%TO.C,SW34*%
X154471750Y-219370000D03*
D11*
X155801750Y-216720000D03*
D12*
X159551750Y-219370000D03*
D11*
X162251750Y-214120000D03*
D10*
X164631750Y-219370000D03*
%TD*%
D13*
%TO.C,D11*%
X257175000Y-186055000D03*
D14*
X257175000Y-178435000D03*
%TD*%
D13*
%TO.C,D65*%
X409575000Y-262255000D03*
D14*
X409575000Y-254635000D03*
%TD*%
D10*
%TO.C,SW33*%
X409265500Y-200320000D03*
D11*
X410595500Y-197670000D03*
D12*
X414345500Y-200320000D03*
D11*
X417045500Y-195070000D03*
D10*
X419425500Y-200320000D03*
%TD*%
D18*
%TO.C,U4*%
X432400000Y-142620000D03*
D14*
X432400000Y-145160000D03*
X432400000Y-147700000D03*
X432400000Y-150240000D03*
X432400000Y-152780000D03*
X432400000Y-155320000D03*
X432400000Y-157860000D03*
X432400000Y-160400000D03*
X440020000Y-160400000D03*
X440020000Y-157860000D03*
X440020000Y-155320000D03*
X440020000Y-152780000D03*
X440020000Y-150240000D03*
X440020000Y-147700000D03*
X440020000Y-145160000D03*
X440020000Y-142620000D03*
%TD*%
D13*
%TO.C,D41*%
X309562500Y-224155000D03*
D14*
X309562500Y-216535000D03*
%TD*%
D13*
%TO.C,D45*%
X385762500Y-224155000D03*
D14*
X385762500Y-216535000D03*
%TD*%
D10*
%TO.C,SW64*%
X375928000Y-257470000D03*
D11*
X377258000Y-254820000D03*
D12*
X381008000Y-257470000D03*
D11*
X383708000Y-252220000D03*
D10*
X386088000Y-257470000D03*
%TD*%
D19*
%TO.C,MX2*%
X152400000Y-231457500D03*
D12*
X152400000Y-246697500D03*
D19*
X176212500Y-231457500D03*
D12*
X176212500Y-246697500D03*
%TD*%
D10*
%TO.C,SW7*%
X166378000Y-181270000D03*
D11*
X167708000Y-178620000D03*
D12*
X171458000Y-181270000D03*
D11*
X174158000Y-176020000D03*
D10*
X176538000Y-181270000D03*
%TD*%
%TO.C,SW19*%
X404503000Y-181270000D03*
D11*
X405833000Y-178620000D03*
D12*
X409583000Y-181270000D03*
D11*
X412283000Y-176020000D03*
D10*
X414663000Y-181270000D03*
%TD*%
%TO.C,SW3*%
X204478000Y-152377500D03*
D11*
X205808000Y-149727500D03*
D12*
X209558000Y-152377500D03*
D11*
X212258000Y-147127500D03*
D10*
X214638000Y-152377500D03*
%TD*%
D20*
%TO.C,TS2*%
X385900000Y-152400000D03*
X385900000Y-159400000D03*
%TD*%
D19*
%TO.C,MX3*%
X395287500Y-212407500D03*
D12*
X395287500Y-227647500D03*
D19*
X419100000Y-212407500D03*
D12*
X419100000Y-227647500D03*
%TD*%
D13*
%TO.C,D24*%
X247650000Y-205105000D03*
D14*
X247650000Y-197485000D03*
%TD*%
D10*
%TO.C,SW43*%
X333065500Y-219370000D03*
D11*
X334395500Y-216720000D03*
D12*
X338145500Y-219370000D03*
D11*
X340845500Y-214120000D03*
D10*
X343225500Y-219370000D03*
%TD*%
%TO.C,SW13*%
X280678000Y-181270000D03*
D11*
X282008000Y-178620000D03*
D12*
X285758000Y-181270000D03*
D11*
X288458000Y-176020000D03*
D10*
X290838000Y-181270000D03*
%TD*%
D13*
%TO.C,D66*%
X428625000Y-262255000D03*
D14*
X428625000Y-254635000D03*
%TD*%
D13*
%TO.C,D10*%
X238125000Y-186055000D03*
D14*
X238125000Y-178435000D03*
%TD*%
D10*
%TO.C,SW31*%
X366403000Y-200320000D03*
D11*
X367733000Y-197670000D03*
D12*
X371483000Y-200320000D03*
D11*
X374183000Y-195070000D03*
D10*
X376563000Y-200320000D03*
%TD*%
D13*
%TO.C,D61*%
X200025000Y-262255000D03*
D14*
X200025000Y-254635000D03*
%TD*%
D10*
%TO.C,SW44*%
X352115500Y-219370000D03*
D11*
X353445500Y-216720000D03*
D12*
X357195500Y-219370000D03*
D11*
X359895500Y-214120000D03*
D10*
X362275500Y-219370000D03*
%TD*%
D13*
%TO.C,D43*%
X347662500Y-224155000D03*
D14*
X347662500Y-216535000D03*
%TD*%
D10*
%TO.C,SW52*%
X266390500Y-238420000D03*
D11*
X267720500Y-235770000D03*
D12*
X271470500Y-238420000D03*
D11*
X274170500Y-233170000D03*
D10*
X276550500Y-238420000D03*
%TD*%
D13*
%TO.C,D29*%
X342900000Y-205105000D03*
D14*
X342900000Y-197485000D03*
%TD*%
D13*
%TO.C,D48*%
X204787500Y-243205000D03*
D14*
X204787500Y-235585000D03*
%TD*%
%TO.C,R3*%
X421325000Y-148325000D03*
X428945000Y-148325000D03*
%TD*%
D19*
%TO.C,MX5*%
X264318750Y-250507500D03*
D12*
X264318750Y-265747500D03*
D19*
X288131250Y-250507500D03*
D12*
X288131250Y-265747500D03*
%TD*%
D21*
%TO.C,RE2*%
X321100000Y-149062500D03*
D22*
X335600000Y-149062500D03*
X321100000Y-154062500D03*
X321100000Y-151562500D03*
D17*
X328600000Y-145962500D03*
X328600000Y-157162500D03*
D22*
X335600000Y-154062500D03*
%TD*%
D13*
%TO.C,D37*%
X233362500Y-224155000D03*
D14*
X233362500Y-216535000D03*
%TD*%
D13*
%TO.C,D33*%
X423862500Y-205105000D03*
D14*
X423862500Y-197485000D03*
%TD*%
D13*
%TO.C,D55*%
X338137500Y-243205000D03*
D14*
X338137500Y-235585000D03*
%TD*%
D10*
%TO.C,SW45*%
X371165500Y-219370000D03*
D11*
X372495500Y-216720000D03*
D12*
X376245500Y-219370000D03*
D11*
X378945500Y-214120000D03*
D10*
X381325500Y-219370000D03*
%TD*%
%TO.C,SW42*%
X314015500Y-219370000D03*
D11*
X315345500Y-216720000D03*
D12*
X319095500Y-219370000D03*
D11*
X321795500Y-214120000D03*
D10*
X324175500Y-219370000D03*
%TD*%
%TO.C,SW1*%
X147328000Y-152377500D03*
D11*
X148658000Y-149727500D03*
D12*
X152408000Y-152377500D03*
D11*
X155108000Y-147127500D03*
D10*
X157488000Y-152377500D03*
%TD*%
%TO.C,SW51*%
X247340500Y-238420000D03*
D11*
X248670500Y-235770000D03*
D12*
X252420500Y-238420000D03*
D11*
X255120500Y-233170000D03*
D10*
X257500500Y-238420000D03*
%TD*%
%TO.C,SW14*%
X299728000Y-181270000D03*
D11*
X301058000Y-178620000D03*
D12*
X304808000Y-181270000D03*
D11*
X307508000Y-176020000D03*
D10*
X309888000Y-181270000D03*
%TD*%
D20*
%TO.C,TS2*%
X411100000Y-152400000D03*
X411100000Y-159400000D03*
%TD*%
D10*
%TO.C,SW29*%
X328303000Y-200320000D03*
D11*
X329633000Y-197670000D03*
D12*
X333383000Y-200320000D03*
D11*
X336083000Y-195070000D03*
D10*
X338463000Y-200320000D03*
%TD*%
D13*
%TO.C,D50*%
X242887500Y-243205000D03*
D14*
X242887500Y-235585000D03*
%TD*%
D10*
%TO.C,SW41*%
X294965500Y-219370000D03*
D11*
X296295500Y-216720000D03*
D12*
X300045500Y-219370000D03*
D11*
X302745500Y-214120000D03*
D10*
X305125500Y-219370000D03*
%TD*%
%TO.C,SW37*%
X218765500Y-219370000D03*
D11*
X220095500Y-216720000D03*
D12*
X223845500Y-219370000D03*
D11*
X226545500Y-214120000D03*
D10*
X228925500Y-219370000D03*
%TD*%
D21*
%TO.C,RE1*%
X349687500Y-149062500D03*
D22*
X349687500Y-154062500D03*
X349687500Y-151562500D03*
D17*
X357187500Y-145962500D03*
X357187500Y-157162500D03*
D22*
X364187500Y-154062500D03*
X364187500Y-149062500D03*
%TD*%
D13*
%TO.C,D8*%
X200025000Y-186055000D03*
D14*
X200025000Y-178435000D03*
%TD*%
D13*
%TO.C,D57*%
X376237500Y-243205000D03*
D14*
X376237500Y-235585000D03*
%TD*%
D13*
%TO.C,D39*%
X271462500Y-224155000D03*
D14*
X271462500Y-216535000D03*
%TD*%
D10*
%TO.C,SW16*%
X337828000Y-181270000D03*
D11*
X339158000Y-178620000D03*
D12*
X342908000Y-181270000D03*
D11*
X345608000Y-176020000D03*
D10*
X347988000Y-181270000D03*
%TD*%
D13*
%TO.C,D16*%
X352425000Y-186055000D03*
D14*
X352425000Y-178435000D03*
%TD*%
D13*
%TO.C,D18*%
X390525000Y-186055000D03*
D14*
X390525000Y-178435000D03*
%TD*%
D23*
%TO.C,A1*%
X454675000Y-140147500D03*
D24*
X454975000Y-143177500D03*
X459825000Y-143177500D03*
D23*
X460125000Y-140147500D03*
D25*
X447710000Y-140017500D03*
D26*
X448510000Y-140017500D03*
D27*
X447710000Y-142557500D03*
D14*
X448510000Y-142557500D03*
D28*
X447710000Y-145097500D03*
D29*
X448510000Y-145097500D03*
D27*
X447710000Y-147637500D03*
D14*
X448510000Y-147637500D03*
D27*
X447710000Y-150177500D03*
D14*
X448510000Y-150177500D03*
D27*
X447710000Y-152717500D03*
D14*
X448510000Y-152717500D03*
D27*
X447710000Y-155257500D03*
D14*
X448510000Y-155257500D03*
D28*
X447710000Y-157797500D03*
D29*
X448510000Y-157797500D03*
D27*
X447710000Y-160337500D03*
D14*
X448510000Y-160337500D03*
D27*
X447710000Y-162877500D03*
D14*
X448510000Y-162877500D03*
D27*
X447710000Y-165417500D03*
D14*
X448510000Y-165417500D03*
D27*
X447710000Y-167957500D03*
D14*
X448510000Y-167957500D03*
D28*
X447710000Y-170497500D03*
D29*
X448510000Y-170497500D03*
D27*
X447710000Y-173037500D03*
D14*
X448510000Y-173037500D03*
D27*
X447710000Y-175577500D03*
D14*
X448510000Y-175577500D03*
D27*
X447710000Y-178117500D03*
D14*
X448510000Y-178117500D03*
D27*
X447710000Y-180657500D03*
D14*
X448510000Y-180657500D03*
D28*
X447710000Y-183197500D03*
D29*
X448510000Y-183197500D03*
D27*
X447710000Y-185737500D03*
D14*
X448510000Y-185737500D03*
D27*
X447710000Y-188277500D03*
D14*
X448510000Y-188277500D03*
X466290000Y-188277500D03*
D27*
X467090000Y-188277500D03*
D14*
X466290000Y-185737500D03*
D27*
X467090000Y-185737500D03*
D30*
X466290000Y-183197500D03*
D25*
X467090000Y-183197500D03*
D14*
X466290000Y-180657500D03*
D27*
X467090000Y-180657500D03*
D14*
X466290000Y-178117500D03*
D27*
X467090000Y-178117500D03*
D14*
X466290000Y-175577500D03*
D27*
X467090000Y-175577500D03*
D14*
X466290000Y-173037500D03*
D27*
X467090000Y-173037500D03*
D30*
X466290000Y-170497500D03*
D25*
X467090000Y-170497500D03*
D14*
X466290000Y-167957500D03*
D27*
X467090000Y-167957500D03*
D14*
X466290000Y-165417500D03*
D27*
X467090000Y-165417500D03*
D14*
X466290000Y-162877500D03*
D27*
X467090000Y-162877500D03*
D14*
X466290000Y-160337500D03*
D27*
X467090000Y-160337500D03*
D30*
X466290000Y-157797500D03*
D25*
X467090000Y-157797500D03*
D14*
X466290000Y-155257500D03*
D27*
X467090000Y-155257500D03*
D14*
X466290000Y-152717500D03*
D27*
X467090000Y-152717500D03*
D14*
X466290000Y-150177500D03*
D27*
X467090000Y-150177500D03*
D14*
X466290000Y-147637500D03*
D27*
X467090000Y-147637500D03*
D30*
X466290000Y-145097500D03*
D25*
X467090000Y-145097500D03*
D14*
X466290000Y-142557500D03*
D27*
X467090000Y-142557500D03*
D14*
X466290000Y-140017500D03*
D27*
X467090000Y-140017500D03*
%TD*%
D13*
%TO.C,D59*%
X161925000Y-262255000D03*
D14*
X161925000Y-254635000D03*
%TD*%
D19*
%TO.C,MX5*%
X397668750Y-174307500D03*
D12*
X397668750Y-189547500D03*
D19*
X421481250Y-174307500D03*
D12*
X421481250Y-189547500D03*
%TD*%
D10*
%TO.C,SW9*%
X204478000Y-181270000D03*
D11*
X205808000Y-178620000D03*
D12*
X209558000Y-181270000D03*
D11*
X212258000Y-176020000D03*
D10*
X214638000Y-181270000D03*
%TD*%
D13*
%TO.C,D47*%
X173831250Y-243205000D03*
D14*
X173831250Y-235585000D03*
%TD*%
D10*
%TO.C,SW23*%
X214003000Y-200320000D03*
D11*
X215333000Y-197670000D03*
D12*
X219083000Y-200320000D03*
D11*
X221783000Y-195070000D03*
D10*
X224163000Y-200320000D03*
%TD*%
D13*
%TO.C,D40*%
X290512500Y-224155000D03*
D14*
X290512500Y-216535000D03*
%TD*%
D13*
%TO.C,D44*%
X366712500Y-224155000D03*
D14*
X366712500Y-216535000D03*
%TD*%
D19*
%TO.C,MX4*%
X390525000Y-231457500D03*
D12*
X390525000Y-246697500D03*
D19*
X414337500Y-231457500D03*
D12*
X414337500Y-246697500D03*
%TD*%
D10*
%TO.C,SW21*%
X175903000Y-200320000D03*
D11*
X177233000Y-197670000D03*
D12*
X180983000Y-200320000D03*
D11*
X183683000Y-195070000D03*
D10*
X186063000Y-200320000D03*
%TD*%
D13*
%TO.C,D32*%
X400050000Y-205105000D03*
D14*
X400050000Y-197485000D03*
%TD*%
D13*
%TO.C,D28*%
X323850000Y-205105000D03*
D14*
X323850000Y-197485000D03*
%TD*%
D13*
%TO.C,D27*%
X304800000Y-205105000D03*
D14*
X304800000Y-197485000D03*
%TD*%
D10*
%TO.C,SW58*%
X397359250Y-238420000D03*
D11*
X398689250Y-235770000D03*
D12*
X402439250Y-238420000D03*
D11*
X405139250Y-233170000D03*
D10*
X407519250Y-238420000D03*
%TD*%
D13*
%TO.C,D52*%
X280987500Y-243205000D03*
D14*
X280987500Y-235585000D03*
%TD*%
D10*
%TO.C,SW57*%
X361640500Y-238420000D03*
D11*
X362970500Y-235770000D03*
D12*
X366720500Y-238420000D03*
D11*
X369420500Y-233170000D03*
D10*
X371800500Y-238420000D03*
%TD*%
D13*
%TO.C,D46*%
X416718750Y-224155000D03*
D14*
X416718750Y-216535000D03*
%TD*%
D10*
%TO.C,SW24*%
X233053000Y-200320000D03*
D11*
X234383000Y-197670000D03*
D12*
X238133000Y-200320000D03*
D11*
X240833000Y-195070000D03*
D10*
X243213000Y-200320000D03*
%TD*%
%TO.C,SW30*%
X347353000Y-200320000D03*
D11*
X348683000Y-197670000D03*
D12*
X352433000Y-200320000D03*
D11*
X355133000Y-195070000D03*
D10*
X357513000Y-200320000D03*
%TD*%
D13*
%TO.C,D64*%
X390525000Y-262255000D03*
D14*
X390525000Y-254635000D03*
%TD*%
D10*
%TO.C,SW11*%
X242578000Y-181270000D03*
D11*
X243908000Y-178620000D03*
D12*
X247658000Y-181270000D03*
D11*
X250358000Y-176020000D03*
D10*
X252738000Y-181270000D03*
%TD*%
%TO.C,SW17*%
X356878000Y-181270000D03*
D11*
X358208000Y-178620000D03*
D12*
X361958000Y-181270000D03*
D11*
X364658000Y-176020000D03*
D10*
X367038000Y-181270000D03*
%TD*%
%TO.C,SW6*%
X147328000Y-181270000D03*
D11*
X148658000Y-178620000D03*
D12*
X152408000Y-181270000D03*
D11*
X155108000Y-176020000D03*
D10*
X157488000Y-181270000D03*
%TD*%
%TO.C,SW50*%
X228290500Y-238420000D03*
D11*
X229620500Y-235770000D03*
D12*
X233370500Y-238420000D03*
D11*
X236070500Y-233170000D03*
D10*
X238450500Y-238420000D03*
%TD*%
D13*
%TO.C,D35*%
X195262500Y-224155000D03*
D14*
X195262500Y-216535000D03*
%TD*%
D13*
%TO.C,D31*%
X381000000Y-205105000D03*
D14*
X381000000Y-197485000D03*
%TD*%
D10*
%TO.C,SW10*%
X223528000Y-181270000D03*
D11*
X224858000Y-178620000D03*
D12*
X228608000Y-181270000D03*
D11*
X231308000Y-176020000D03*
D10*
X233688000Y-181270000D03*
%TD*%
D17*
%TO.C,Screw_Mount*%
X137100000Y-267700000D03*
%TD*%
D10*
%TO.C,SW59*%
X147328000Y-257470000D03*
D11*
X148658000Y-254820000D03*
D12*
X152408000Y-257470000D03*
D11*
X155108000Y-252220000D03*
D10*
X157488000Y-257470000D03*
%TD*%
D12*
%TO.C,MX1*%
X226218750Y-265747500D03*
X326231250Y-265747500D03*
%TD*%
D13*
%TO.C,D14*%
X314325000Y-186055000D03*
D14*
X314325000Y-178435000D03*
%TD*%
D13*
%TO.C,D36*%
X214312500Y-224155000D03*
D14*
X214312500Y-216535000D03*
%TD*%
D10*
%TO.C,SW47*%
X159234250Y-238420000D03*
D11*
X160564250Y-235770000D03*
D12*
X164314250Y-238420000D03*
D11*
X167014250Y-233170000D03*
D10*
X169394250Y-238420000D03*
%TD*%
D17*
%TO.C,Screw_Mount*%
X478800000Y-267700000D03*
%TD*%
D10*
%TO.C,SW40*%
X275915500Y-219370000D03*
D11*
X277245500Y-216720000D03*
D12*
X280995500Y-219370000D03*
D11*
X283695500Y-214120000D03*
D10*
X286075500Y-219370000D03*
%TD*%
%TO.C,SW54*%
X304490500Y-238420000D03*
D11*
X305820500Y-235770000D03*
D12*
X309570500Y-238420000D03*
D11*
X312270500Y-233170000D03*
D10*
X314650500Y-238420000D03*
%TD*%
D14*
%TO.C,C2*%
X429600000Y-163000000D03*
X429600000Y-158000000D03*
%TD*%
D10*
%TO.C,SW46*%
X402121750Y-219370000D03*
D11*
X403451750Y-216720000D03*
D12*
X407201750Y-219370000D03*
D11*
X409901750Y-214120000D03*
D10*
X412281750Y-219370000D03*
%TD*%
D13*
%TO.C,D3*%
X219075000Y-157162500D03*
D14*
X219075000Y-149542500D03*
%TD*%
D31*
%TO.C,C1*%
X209300000Y-255400000D03*
D14*
X205800000Y-255400000D03*
%TD*%
M02*
