%TF.GenerationSoftware,KiCad,Pcbnew,10.0.5*%
%TF.CreationDate,2026-10-02T10:27:15-07:00*%
%TF.ProjectId,Custom Keyboard,43757374-6f6d-4204-9b65-79626f617264,rev?*%
%TF.SameCoordinates,Original*%
%TF.FileFunction,Other,Comment*%
%FSLAX46Y46*%
G04 Gerber Fmt 4.6, Leading zero omitted, Abs format (unit mm)*
G04 Created by KiCad (PCBNEW 10.0.5) date 2026-10-02 10:27:15*
%MOMM*%
%LPD*%
G01*
G04 APERTURE LIST*
%ADD10C,0.150000*%
%ADD11C,0.050000*%
%ADD12C,0.075000*%
G04 APERTURE END LIST*
D10*
X161520535Y-247025319D02*
X161520535Y-246025319D01*
X161520535Y-246025319D02*
X161853868Y-246739604D01*
X161853868Y-246739604D02*
X162187201Y-246025319D01*
X162187201Y-246025319D02*
X162187201Y-247025319D01*
X162568154Y-246025319D02*
X163234820Y-247025319D01*
X163234820Y-246025319D02*
X162568154Y-247025319D01*
X163377678Y-247120557D02*
X164139582Y-247120557D01*
X164330059Y-246977700D02*
X164425297Y-247025319D01*
X164425297Y-247025319D02*
X164615773Y-247025319D01*
X164615773Y-247025319D02*
X164711011Y-246977700D01*
X164711011Y-246977700D02*
X164758630Y-246882461D01*
X164758630Y-246882461D02*
X164758630Y-246834842D01*
X164758630Y-246834842D02*
X164711011Y-246739604D01*
X164711011Y-246739604D02*
X164615773Y-246691985D01*
X164615773Y-246691985D02*
X164472916Y-246691985D01*
X164472916Y-246691985D02*
X164377678Y-246644366D01*
X164377678Y-246644366D02*
X164330059Y-246549128D01*
X164330059Y-246549128D02*
X164330059Y-246501509D01*
X164330059Y-246501509D02*
X164377678Y-246406271D01*
X164377678Y-246406271D02*
X164472916Y-246358652D01*
X164472916Y-246358652D02*
X164615773Y-246358652D01*
X164615773Y-246358652D02*
X164711011Y-246406271D01*
X165044345Y-246358652D02*
X165425297Y-246358652D01*
X165187202Y-246025319D02*
X165187202Y-246882461D01*
X165187202Y-246882461D02*
X165234821Y-246977700D01*
X165234821Y-246977700D02*
X165330059Y-247025319D01*
X165330059Y-247025319D02*
X165425297Y-247025319D01*
X166187202Y-247025319D02*
X166187202Y-246501509D01*
X166187202Y-246501509D02*
X166139583Y-246406271D01*
X166139583Y-246406271D02*
X166044345Y-246358652D01*
X166044345Y-246358652D02*
X165853869Y-246358652D01*
X165853869Y-246358652D02*
X165758631Y-246406271D01*
X166187202Y-246977700D02*
X166091964Y-247025319D01*
X166091964Y-247025319D02*
X165853869Y-247025319D01*
X165853869Y-247025319D02*
X165758631Y-246977700D01*
X165758631Y-246977700D02*
X165711012Y-246882461D01*
X165711012Y-246882461D02*
X165711012Y-246787223D01*
X165711012Y-246787223D02*
X165758631Y-246691985D01*
X165758631Y-246691985D02*
X165853869Y-246644366D01*
X165853869Y-246644366D02*
X166091964Y-246644366D01*
X166091964Y-246644366D02*
X166187202Y-246596747D01*
X166663393Y-247025319D02*
X166663393Y-246025319D01*
X166663393Y-246406271D02*
X166758631Y-246358652D01*
X166758631Y-246358652D02*
X166949107Y-246358652D01*
X166949107Y-246358652D02*
X167044345Y-246406271D01*
X167044345Y-246406271D02*
X167091964Y-246453890D01*
X167091964Y-246453890D02*
X167139583Y-246549128D01*
X167139583Y-246549128D02*
X167139583Y-246834842D01*
X167139583Y-246834842D02*
X167091964Y-246930080D01*
X167091964Y-246930080D02*
X167044345Y-246977700D01*
X167044345Y-246977700D02*
X166949107Y-247025319D01*
X166949107Y-247025319D02*
X166758631Y-247025319D01*
X166758631Y-247025319D02*
X166663393Y-246977700D01*
X404408035Y-227975319D02*
X404408035Y-226975319D01*
X404408035Y-226975319D02*
X404741368Y-227689604D01*
X404741368Y-227689604D02*
X405074701Y-226975319D01*
X405074701Y-226975319D02*
X405074701Y-227975319D01*
X405455654Y-226975319D02*
X406122320Y-227975319D01*
X406122320Y-226975319D02*
X405455654Y-227975319D01*
X406265178Y-228070557D02*
X407027082Y-228070557D01*
X407217559Y-227927700D02*
X407312797Y-227975319D01*
X407312797Y-227975319D02*
X407503273Y-227975319D01*
X407503273Y-227975319D02*
X407598511Y-227927700D01*
X407598511Y-227927700D02*
X407646130Y-227832461D01*
X407646130Y-227832461D02*
X407646130Y-227784842D01*
X407646130Y-227784842D02*
X407598511Y-227689604D01*
X407598511Y-227689604D02*
X407503273Y-227641985D01*
X407503273Y-227641985D02*
X407360416Y-227641985D01*
X407360416Y-227641985D02*
X407265178Y-227594366D01*
X407265178Y-227594366D02*
X407217559Y-227499128D01*
X407217559Y-227499128D02*
X407217559Y-227451509D01*
X407217559Y-227451509D02*
X407265178Y-227356271D01*
X407265178Y-227356271D02*
X407360416Y-227308652D01*
X407360416Y-227308652D02*
X407503273Y-227308652D01*
X407503273Y-227308652D02*
X407598511Y-227356271D01*
X407931845Y-227308652D02*
X408312797Y-227308652D01*
X408074702Y-226975319D02*
X408074702Y-227832461D01*
X408074702Y-227832461D02*
X408122321Y-227927700D01*
X408122321Y-227927700D02*
X408217559Y-227975319D01*
X408217559Y-227975319D02*
X408312797Y-227975319D01*
X409074702Y-227975319D02*
X409074702Y-227451509D01*
X409074702Y-227451509D02*
X409027083Y-227356271D01*
X409027083Y-227356271D02*
X408931845Y-227308652D01*
X408931845Y-227308652D02*
X408741369Y-227308652D01*
X408741369Y-227308652D02*
X408646131Y-227356271D01*
X409074702Y-227927700D02*
X408979464Y-227975319D01*
X408979464Y-227975319D02*
X408741369Y-227975319D01*
X408741369Y-227975319D02*
X408646131Y-227927700D01*
X408646131Y-227927700D02*
X408598512Y-227832461D01*
X408598512Y-227832461D02*
X408598512Y-227737223D01*
X408598512Y-227737223D02*
X408646131Y-227641985D01*
X408646131Y-227641985D02*
X408741369Y-227594366D01*
X408741369Y-227594366D02*
X408979464Y-227594366D01*
X408979464Y-227594366D02*
X409074702Y-227546747D01*
X409550893Y-227975319D02*
X409550893Y-226975319D01*
X409550893Y-227356271D02*
X409646131Y-227308652D01*
X409646131Y-227308652D02*
X409836607Y-227308652D01*
X409836607Y-227308652D02*
X409931845Y-227356271D01*
X409931845Y-227356271D02*
X409979464Y-227403890D01*
X409979464Y-227403890D02*
X410027083Y-227499128D01*
X410027083Y-227499128D02*
X410027083Y-227784842D01*
X410027083Y-227784842D02*
X409979464Y-227880080D01*
X409979464Y-227880080D02*
X409931845Y-227927700D01*
X409931845Y-227927700D02*
X409836607Y-227975319D01*
X409836607Y-227975319D02*
X409646131Y-227975319D01*
X409646131Y-227975319D02*
X409550893Y-227927700D01*
X273439285Y-266075319D02*
X273439285Y-265075319D01*
X273439285Y-265075319D02*
X273772618Y-265789604D01*
X273772618Y-265789604D02*
X274105951Y-265075319D01*
X274105951Y-265075319D02*
X274105951Y-266075319D01*
X274486904Y-265075319D02*
X275153570Y-266075319D01*
X275153570Y-265075319D02*
X274486904Y-266075319D01*
X275296428Y-266170557D02*
X276058332Y-266170557D01*
X276248809Y-266027700D02*
X276344047Y-266075319D01*
X276344047Y-266075319D02*
X276534523Y-266075319D01*
X276534523Y-266075319D02*
X276629761Y-266027700D01*
X276629761Y-266027700D02*
X276677380Y-265932461D01*
X276677380Y-265932461D02*
X276677380Y-265884842D01*
X276677380Y-265884842D02*
X276629761Y-265789604D01*
X276629761Y-265789604D02*
X276534523Y-265741985D01*
X276534523Y-265741985D02*
X276391666Y-265741985D01*
X276391666Y-265741985D02*
X276296428Y-265694366D01*
X276296428Y-265694366D02*
X276248809Y-265599128D01*
X276248809Y-265599128D02*
X276248809Y-265551509D01*
X276248809Y-265551509D02*
X276296428Y-265456271D01*
X276296428Y-265456271D02*
X276391666Y-265408652D01*
X276391666Y-265408652D02*
X276534523Y-265408652D01*
X276534523Y-265408652D02*
X276629761Y-265456271D01*
X276963095Y-265408652D02*
X277344047Y-265408652D01*
X277105952Y-265075319D02*
X277105952Y-265932461D01*
X277105952Y-265932461D02*
X277153571Y-266027700D01*
X277153571Y-266027700D02*
X277248809Y-266075319D01*
X277248809Y-266075319D02*
X277344047Y-266075319D01*
X278105952Y-266075319D02*
X278105952Y-265551509D01*
X278105952Y-265551509D02*
X278058333Y-265456271D01*
X278058333Y-265456271D02*
X277963095Y-265408652D01*
X277963095Y-265408652D02*
X277772619Y-265408652D01*
X277772619Y-265408652D02*
X277677381Y-265456271D01*
X278105952Y-266027700D02*
X278010714Y-266075319D01*
X278010714Y-266075319D02*
X277772619Y-266075319D01*
X277772619Y-266075319D02*
X277677381Y-266027700D01*
X277677381Y-266027700D02*
X277629762Y-265932461D01*
X277629762Y-265932461D02*
X277629762Y-265837223D01*
X277629762Y-265837223D02*
X277677381Y-265741985D01*
X277677381Y-265741985D02*
X277772619Y-265694366D01*
X277772619Y-265694366D02*
X278010714Y-265694366D01*
X278010714Y-265694366D02*
X278105952Y-265646747D01*
X278582143Y-266075319D02*
X278582143Y-265075319D01*
X278582143Y-265456271D02*
X278677381Y-265408652D01*
X278677381Y-265408652D02*
X278867857Y-265408652D01*
X278867857Y-265408652D02*
X278963095Y-265456271D01*
X278963095Y-265456271D02*
X279010714Y-265503890D01*
X279010714Y-265503890D02*
X279058333Y-265599128D01*
X279058333Y-265599128D02*
X279058333Y-265884842D01*
X279058333Y-265884842D02*
X279010714Y-265980080D01*
X279010714Y-265980080D02*
X278963095Y-266027700D01*
X278963095Y-266027700D02*
X278867857Y-266075319D01*
X278867857Y-266075319D02*
X278677381Y-266075319D01*
X278677381Y-266075319D02*
X278582143Y-266027700D01*
D11*
X454877005Y-153103527D02*
X454877005Y-152992427D01*
X455051591Y-152944813D02*
X455051591Y-153103527D01*
X455051591Y-153103527D02*
X454718291Y-153103527D01*
X454718291Y-153103527D02*
X454718291Y-152944813D01*
X455051591Y-152833713D02*
X454829391Y-152659128D01*
X454829391Y-152833713D02*
X455051591Y-152659128D01*
X454829391Y-152532156D02*
X455162691Y-152532156D01*
X454845262Y-152532156D02*
X454829391Y-152500414D01*
X454829391Y-152500414D02*
X454829391Y-152436928D01*
X454829391Y-152436928D02*
X454845262Y-152405185D01*
X454845262Y-152405185D02*
X454861134Y-152389314D01*
X454861134Y-152389314D02*
X454892877Y-152373442D01*
X454892877Y-152373442D02*
X454988105Y-152373442D01*
X454988105Y-152373442D02*
X455019848Y-152389314D01*
X455019848Y-152389314D02*
X455035720Y-152405185D01*
X455035720Y-152405185D02*
X455051591Y-152436928D01*
X455051591Y-152436928D02*
X455051591Y-152500414D01*
X455051591Y-152500414D02*
X455035720Y-152532156D01*
X455051591Y-152182985D02*
X455035720Y-152214728D01*
X455035720Y-152214728D02*
X455019848Y-152230599D01*
X455019848Y-152230599D02*
X454988105Y-152246471D01*
X454988105Y-152246471D02*
X454892877Y-152246471D01*
X454892877Y-152246471D02*
X454861134Y-152230599D01*
X454861134Y-152230599D02*
X454845262Y-152214728D01*
X454845262Y-152214728D02*
X454829391Y-152182985D01*
X454829391Y-152182985D02*
X454829391Y-152135371D01*
X454829391Y-152135371D02*
X454845262Y-152103628D01*
X454845262Y-152103628D02*
X454861134Y-152087757D01*
X454861134Y-152087757D02*
X454892877Y-152071885D01*
X454892877Y-152071885D02*
X454988105Y-152071885D01*
X454988105Y-152071885D02*
X455019848Y-152087757D01*
X455019848Y-152087757D02*
X455035720Y-152103628D01*
X455035720Y-152103628D02*
X455051591Y-152135371D01*
X455051591Y-152135371D02*
X455051591Y-152182985D01*
X455035720Y-151944914D02*
X455051591Y-151913171D01*
X455051591Y-151913171D02*
X455051591Y-151849685D01*
X455051591Y-151849685D02*
X455035720Y-151817942D01*
X455035720Y-151817942D02*
X455003977Y-151802071D01*
X455003977Y-151802071D02*
X454988105Y-151802071D01*
X454988105Y-151802071D02*
X454956362Y-151817942D01*
X454956362Y-151817942D02*
X454940491Y-151849685D01*
X454940491Y-151849685D02*
X454940491Y-151897300D01*
X454940491Y-151897300D02*
X454924620Y-151929042D01*
X454924620Y-151929042D02*
X454892877Y-151944914D01*
X454892877Y-151944914D02*
X454877005Y-151944914D01*
X454877005Y-151944914D02*
X454845262Y-151929042D01*
X454845262Y-151929042D02*
X454829391Y-151897300D01*
X454829391Y-151897300D02*
X454829391Y-151849685D01*
X454829391Y-151849685D02*
X454845262Y-151817942D01*
X455035720Y-151532257D02*
X455051591Y-151564000D01*
X455051591Y-151564000D02*
X455051591Y-151627486D01*
X455051591Y-151627486D02*
X455035720Y-151659228D01*
X455035720Y-151659228D02*
X455003977Y-151675100D01*
X455003977Y-151675100D02*
X454877005Y-151675100D01*
X454877005Y-151675100D02*
X454845262Y-151659228D01*
X454845262Y-151659228D02*
X454829391Y-151627486D01*
X454829391Y-151627486D02*
X454829391Y-151564000D01*
X454829391Y-151564000D02*
X454845262Y-151532257D01*
X454845262Y-151532257D02*
X454877005Y-151516386D01*
X454877005Y-151516386D02*
X454908748Y-151516386D01*
X454908748Y-151516386D02*
X454940491Y-151675100D01*
X455051591Y-151230700D02*
X454718291Y-151230700D01*
X455035720Y-151230700D02*
X455051591Y-151262442D01*
X455051591Y-151262442D02*
X455051591Y-151325928D01*
X455051591Y-151325928D02*
X455035720Y-151357671D01*
X455035720Y-151357671D02*
X455019848Y-151373542D01*
X455019848Y-151373542D02*
X454988105Y-151389414D01*
X454988105Y-151389414D02*
X454892877Y-151389414D01*
X454892877Y-151389414D02*
X454861134Y-151373542D01*
X454861134Y-151373542D02*
X454845262Y-151357671D01*
X454845262Y-151357671D02*
X454829391Y-151325928D01*
X454829391Y-151325928D02*
X454829391Y-151262442D01*
X454829391Y-151262442D02*
X454845262Y-151230700D01*
X455019848Y-150627585D02*
X455035720Y-150643457D01*
X455035720Y-150643457D02*
X455051591Y-150691071D01*
X455051591Y-150691071D02*
X455051591Y-150722814D01*
X455051591Y-150722814D02*
X455035720Y-150770428D01*
X455035720Y-150770428D02*
X455003977Y-150802171D01*
X455003977Y-150802171D02*
X454972234Y-150818042D01*
X454972234Y-150818042D02*
X454908748Y-150833914D01*
X454908748Y-150833914D02*
X454861134Y-150833914D01*
X454861134Y-150833914D02*
X454797648Y-150818042D01*
X454797648Y-150818042D02*
X454765905Y-150802171D01*
X454765905Y-150802171D02*
X454734162Y-150770428D01*
X454734162Y-150770428D02*
X454718291Y-150722814D01*
X454718291Y-150722814D02*
X454718291Y-150691071D01*
X454718291Y-150691071D02*
X454734162Y-150643457D01*
X454734162Y-150643457D02*
X454750034Y-150627585D01*
X455051591Y-150437128D02*
X455035720Y-150468871D01*
X455035720Y-150468871D02*
X455019848Y-150484742D01*
X455019848Y-150484742D02*
X454988105Y-150500614D01*
X454988105Y-150500614D02*
X454892877Y-150500614D01*
X454892877Y-150500614D02*
X454861134Y-150484742D01*
X454861134Y-150484742D02*
X454845262Y-150468871D01*
X454845262Y-150468871D02*
X454829391Y-150437128D01*
X454829391Y-150437128D02*
X454829391Y-150389514D01*
X454829391Y-150389514D02*
X454845262Y-150357771D01*
X454845262Y-150357771D02*
X454861134Y-150341900D01*
X454861134Y-150341900D02*
X454892877Y-150326028D01*
X454892877Y-150326028D02*
X454988105Y-150326028D01*
X454988105Y-150326028D02*
X455019848Y-150341900D01*
X455019848Y-150341900D02*
X455035720Y-150357771D01*
X455035720Y-150357771D02*
X455051591Y-150389514D01*
X455051591Y-150389514D02*
X455051591Y-150437128D01*
X454829391Y-150183185D02*
X455162691Y-150183185D01*
X454845262Y-150183185D02*
X454829391Y-150151443D01*
X454829391Y-150151443D02*
X454829391Y-150087957D01*
X454829391Y-150087957D02*
X454845262Y-150056214D01*
X454845262Y-150056214D02*
X454861134Y-150040343D01*
X454861134Y-150040343D02*
X454892877Y-150024471D01*
X454892877Y-150024471D02*
X454988105Y-150024471D01*
X454988105Y-150024471D02*
X455019848Y-150040343D01*
X455019848Y-150040343D02*
X455035720Y-150056214D01*
X455035720Y-150056214D02*
X455051591Y-150087957D01*
X455051591Y-150087957D02*
X455051591Y-150151443D01*
X455051591Y-150151443D02*
X455035720Y-150183185D01*
X454829391Y-149881628D02*
X455162691Y-149881628D01*
X454845262Y-149881628D02*
X454829391Y-149849886D01*
X454829391Y-149849886D02*
X454829391Y-149786400D01*
X454829391Y-149786400D02*
X454845262Y-149754657D01*
X454845262Y-149754657D02*
X454861134Y-149738786D01*
X454861134Y-149738786D02*
X454892877Y-149722914D01*
X454892877Y-149722914D02*
X454988105Y-149722914D01*
X454988105Y-149722914D02*
X455019848Y-149738786D01*
X455019848Y-149738786D02*
X455035720Y-149754657D01*
X455035720Y-149754657D02*
X455051591Y-149786400D01*
X455051591Y-149786400D02*
X455051591Y-149849886D01*
X455051591Y-149849886D02*
X455035720Y-149881628D01*
X455035720Y-149453100D02*
X455051591Y-149484843D01*
X455051591Y-149484843D02*
X455051591Y-149548329D01*
X455051591Y-149548329D02*
X455035720Y-149580071D01*
X455035720Y-149580071D02*
X455003977Y-149595943D01*
X455003977Y-149595943D02*
X454877005Y-149595943D01*
X454877005Y-149595943D02*
X454845262Y-149580071D01*
X454845262Y-149580071D02*
X454829391Y-149548329D01*
X454829391Y-149548329D02*
X454829391Y-149484843D01*
X454829391Y-149484843D02*
X454845262Y-149453100D01*
X454845262Y-149453100D02*
X454877005Y-149437229D01*
X454877005Y-149437229D02*
X454908748Y-149437229D01*
X454908748Y-149437229D02*
X454940491Y-149595943D01*
X455051591Y-149294385D02*
X454829391Y-149294385D01*
X454892877Y-149294385D02*
X454861134Y-149278514D01*
X454861134Y-149278514D02*
X454845262Y-149262643D01*
X454845262Y-149262643D02*
X454829391Y-149230900D01*
X454829391Y-149230900D02*
X454829391Y-149199157D01*
X455051591Y-148834113D02*
X454718291Y-148834113D01*
X455051591Y-148643656D02*
X454861134Y-148786499D01*
X454718291Y-148643656D02*
X454908748Y-148834113D01*
X455035720Y-148373842D02*
X455051591Y-148405585D01*
X455051591Y-148405585D02*
X455051591Y-148469071D01*
X455051591Y-148469071D02*
X455035720Y-148500813D01*
X455035720Y-148500813D02*
X455003977Y-148516685D01*
X455003977Y-148516685D02*
X454877005Y-148516685D01*
X454877005Y-148516685D02*
X454845262Y-148500813D01*
X454845262Y-148500813D02*
X454829391Y-148469071D01*
X454829391Y-148469071D02*
X454829391Y-148405585D01*
X454829391Y-148405585D02*
X454845262Y-148373842D01*
X454845262Y-148373842D02*
X454877005Y-148357971D01*
X454877005Y-148357971D02*
X454908748Y-148357971D01*
X454908748Y-148357971D02*
X454940491Y-148516685D01*
X455035720Y-148088156D02*
X455051591Y-148119899D01*
X455051591Y-148119899D02*
X455051591Y-148183385D01*
X455051591Y-148183385D02*
X455035720Y-148215127D01*
X455035720Y-148215127D02*
X455003977Y-148230999D01*
X455003977Y-148230999D02*
X454877005Y-148230999D01*
X454877005Y-148230999D02*
X454845262Y-148215127D01*
X454845262Y-148215127D02*
X454829391Y-148183385D01*
X454829391Y-148183385D02*
X454829391Y-148119899D01*
X454829391Y-148119899D02*
X454845262Y-148088156D01*
X454845262Y-148088156D02*
X454877005Y-148072285D01*
X454877005Y-148072285D02*
X454908748Y-148072285D01*
X454908748Y-148072285D02*
X454940491Y-148230999D01*
X454829391Y-147929441D02*
X455162691Y-147929441D01*
X454845262Y-147929441D02*
X454829391Y-147897699D01*
X454829391Y-147897699D02*
X454829391Y-147834213D01*
X454829391Y-147834213D02*
X454845262Y-147802470D01*
X454845262Y-147802470D02*
X454861134Y-147786599D01*
X454861134Y-147786599D02*
X454892877Y-147770727D01*
X454892877Y-147770727D02*
X454988105Y-147770727D01*
X454988105Y-147770727D02*
X455019848Y-147786599D01*
X455019848Y-147786599D02*
X455035720Y-147802470D01*
X455035720Y-147802470D02*
X455051591Y-147834213D01*
X455051591Y-147834213D02*
X455051591Y-147897699D01*
X455051591Y-147897699D02*
X455035720Y-147929441D01*
X454718291Y-147310456D02*
X454718291Y-147246970D01*
X454718291Y-147246970D02*
X454734162Y-147215227D01*
X454734162Y-147215227D02*
X454765905Y-147183484D01*
X454765905Y-147183484D02*
X454829391Y-147167613D01*
X454829391Y-147167613D02*
X454940491Y-147167613D01*
X454940491Y-147167613D02*
X455003977Y-147183484D01*
X455003977Y-147183484D02*
X455035720Y-147215227D01*
X455035720Y-147215227D02*
X455051591Y-147246970D01*
X455051591Y-147246970D02*
X455051591Y-147310456D01*
X455051591Y-147310456D02*
X455035720Y-147342199D01*
X455035720Y-147342199D02*
X455003977Y-147373941D01*
X455003977Y-147373941D02*
X454940491Y-147389813D01*
X454940491Y-147389813D02*
X454829391Y-147389813D01*
X454829391Y-147389813D02*
X454765905Y-147373941D01*
X454765905Y-147373941D02*
X454734162Y-147342199D01*
X454734162Y-147342199D02*
X454718291Y-147310456D01*
X454829391Y-146881928D02*
X455051591Y-146881928D01*
X454829391Y-147024770D02*
X455003977Y-147024770D01*
X455003977Y-147024770D02*
X455035720Y-147008899D01*
X455035720Y-147008899D02*
X455051591Y-146977156D01*
X455051591Y-146977156D02*
X455051591Y-146929542D01*
X455051591Y-146929542D02*
X455035720Y-146897799D01*
X455035720Y-146897799D02*
X455019848Y-146881928D01*
X454829391Y-146770828D02*
X454829391Y-146643856D01*
X454718291Y-146723213D02*
X455003977Y-146723213D01*
X455003977Y-146723213D02*
X455035720Y-146707342D01*
X455035720Y-146707342D02*
X455051591Y-146675599D01*
X455051591Y-146675599D02*
X455051591Y-146643856D01*
D10*
X453661904Y-124867319D02*
X453661904Y-125676842D01*
X453661904Y-125676842D02*
X453709523Y-125772080D01*
X453709523Y-125772080D02*
X453757142Y-125819700D01*
X453757142Y-125819700D02*
X453852380Y-125867319D01*
X453852380Y-125867319D02*
X454042856Y-125867319D01*
X454042856Y-125867319D02*
X454138094Y-125819700D01*
X454138094Y-125819700D02*
X454185713Y-125772080D01*
X454185713Y-125772080D02*
X454233332Y-125676842D01*
X454233332Y-125676842D02*
X454233332Y-124867319D01*
X454661904Y-125819700D02*
X454804761Y-125867319D01*
X454804761Y-125867319D02*
X455042856Y-125867319D01*
X455042856Y-125867319D02*
X455138094Y-125819700D01*
X455138094Y-125819700D02*
X455185713Y-125772080D01*
X455185713Y-125772080D02*
X455233332Y-125676842D01*
X455233332Y-125676842D02*
X455233332Y-125581604D01*
X455233332Y-125581604D02*
X455185713Y-125486366D01*
X455185713Y-125486366D02*
X455138094Y-125438747D01*
X455138094Y-125438747D02*
X455042856Y-125391128D01*
X455042856Y-125391128D02*
X454852380Y-125343509D01*
X454852380Y-125343509D02*
X454757142Y-125295890D01*
X454757142Y-125295890D02*
X454709523Y-125248271D01*
X454709523Y-125248271D02*
X454661904Y-125153033D01*
X454661904Y-125153033D02*
X454661904Y-125057795D01*
X454661904Y-125057795D02*
X454709523Y-124962557D01*
X454709523Y-124962557D02*
X454757142Y-124914938D01*
X454757142Y-124914938D02*
X454852380Y-124867319D01*
X454852380Y-124867319D02*
X455090475Y-124867319D01*
X455090475Y-124867319D02*
X455233332Y-124914938D01*
X455995237Y-125343509D02*
X456138094Y-125391128D01*
X456138094Y-125391128D02*
X456185713Y-125438747D01*
X456185713Y-125438747D02*
X456233332Y-125533985D01*
X456233332Y-125533985D02*
X456233332Y-125676842D01*
X456233332Y-125676842D02*
X456185713Y-125772080D01*
X456185713Y-125772080D02*
X456138094Y-125819700D01*
X456138094Y-125819700D02*
X456042856Y-125867319D01*
X456042856Y-125867319D02*
X455661904Y-125867319D01*
X455661904Y-125867319D02*
X455661904Y-124867319D01*
X455661904Y-124867319D02*
X455995237Y-124867319D01*
X455995237Y-124867319D02*
X456090475Y-124914938D01*
X456090475Y-124914938D02*
X456138094Y-124962557D01*
X456138094Y-124962557D02*
X456185713Y-125057795D01*
X456185713Y-125057795D02*
X456185713Y-125153033D01*
X456185713Y-125153033D02*
X456138094Y-125248271D01*
X456138094Y-125248271D02*
X456090475Y-125295890D01*
X456090475Y-125295890D02*
X455995237Y-125343509D01*
X455995237Y-125343509D02*
X455661904Y-125343509D01*
X457995237Y-125772080D02*
X457947618Y-125819700D01*
X457947618Y-125819700D02*
X457804761Y-125867319D01*
X457804761Y-125867319D02*
X457709523Y-125867319D01*
X457709523Y-125867319D02*
X457566666Y-125819700D01*
X457566666Y-125819700D02*
X457471428Y-125724461D01*
X457471428Y-125724461D02*
X457423809Y-125629223D01*
X457423809Y-125629223D02*
X457376190Y-125438747D01*
X457376190Y-125438747D02*
X457376190Y-125295890D01*
X457376190Y-125295890D02*
X457423809Y-125105414D01*
X457423809Y-125105414D02*
X457471428Y-125010176D01*
X457471428Y-125010176D02*
X457566666Y-124914938D01*
X457566666Y-124914938D02*
X457709523Y-124867319D01*
X457709523Y-124867319D02*
X457804761Y-124867319D01*
X457804761Y-124867319D02*
X457947618Y-124914938D01*
X457947618Y-124914938D02*
X457995237Y-124962557D01*
X458852380Y-125867319D02*
X458852380Y-125343509D01*
X458852380Y-125343509D02*
X458804761Y-125248271D01*
X458804761Y-125248271D02*
X458709523Y-125200652D01*
X458709523Y-125200652D02*
X458519047Y-125200652D01*
X458519047Y-125200652D02*
X458423809Y-125248271D01*
X458852380Y-125819700D02*
X458757142Y-125867319D01*
X458757142Y-125867319D02*
X458519047Y-125867319D01*
X458519047Y-125867319D02*
X458423809Y-125819700D01*
X458423809Y-125819700D02*
X458376190Y-125724461D01*
X458376190Y-125724461D02*
X458376190Y-125629223D01*
X458376190Y-125629223D02*
X458423809Y-125533985D01*
X458423809Y-125533985D02*
X458519047Y-125486366D01*
X458519047Y-125486366D02*
X458757142Y-125486366D01*
X458757142Y-125486366D02*
X458852380Y-125438747D01*
X459328571Y-125867319D02*
X459328571Y-124867319D01*
X459328571Y-125248271D02*
X459423809Y-125200652D01*
X459423809Y-125200652D02*
X459614285Y-125200652D01*
X459614285Y-125200652D02*
X459709523Y-125248271D01*
X459709523Y-125248271D02*
X459757142Y-125295890D01*
X459757142Y-125295890D02*
X459804761Y-125391128D01*
X459804761Y-125391128D02*
X459804761Y-125676842D01*
X459804761Y-125676842D02*
X459757142Y-125772080D01*
X459757142Y-125772080D02*
X459709523Y-125819700D01*
X459709523Y-125819700D02*
X459614285Y-125867319D01*
X459614285Y-125867319D02*
X459423809Y-125867319D01*
X459423809Y-125867319D02*
X459328571Y-125819700D01*
X460376190Y-125867319D02*
X460280952Y-125819700D01*
X460280952Y-125819700D02*
X460233333Y-125724461D01*
X460233333Y-125724461D02*
X460233333Y-124867319D01*
X461138095Y-125819700D02*
X461042857Y-125867319D01*
X461042857Y-125867319D02*
X460852381Y-125867319D01*
X460852381Y-125867319D02*
X460757143Y-125819700D01*
X460757143Y-125819700D02*
X460709524Y-125724461D01*
X460709524Y-125724461D02*
X460709524Y-125343509D01*
X460709524Y-125343509D02*
X460757143Y-125248271D01*
X460757143Y-125248271D02*
X460852381Y-125200652D01*
X460852381Y-125200652D02*
X461042857Y-125200652D01*
X461042857Y-125200652D02*
X461138095Y-125248271D01*
X461138095Y-125248271D02*
X461185714Y-125343509D01*
X461185714Y-125343509D02*
X461185714Y-125438747D01*
X461185714Y-125438747D02*
X460709524Y-125533985D01*
X454185714Y-128407319D02*
X454185714Y-127407319D01*
X454757142Y-128407319D02*
X454328571Y-127835890D01*
X454757142Y-127407319D02*
X454185714Y-127978747D01*
X455566666Y-128359700D02*
X455471428Y-128407319D01*
X455471428Y-128407319D02*
X455280952Y-128407319D01*
X455280952Y-128407319D02*
X455185714Y-128359700D01*
X455185714Y-128359700D02*
X455138095Y-128264461D01*
X455138095Y-128264461D02*
X455138095Y-127883509D01*
X455138095Y-127883509D02*
X455185714Y-127788271D01*
X455185714Y-127788271D02*
X455280952Y-127740652D01*
X455280952Y-127740652D02*
X455471428Y-127740652D01*
X455471428Y-127740652D02*
X455566666Y-127788271D01*
X455566666Y-127788271D02*
X455614285Y-127883509D01*
X455614285Y-127883509D02*
X455614285Y-127978747D01*
X455614285Y-127978747D02*
X455138095Y-128073985D01*
X456423809Y-128359700D02*
X456328571Y-128407319D01*
X456328571Y-128407319D02*
X456138095Y-128407319D01*
X456138095Y-128407319D02*
X456042857Y-128359700D01*
X456042857Y-128359700D02*
X455995238Y-128264461D01*
X455995238Y-128264461D02*
X455995238Y-127883509D01*
X455995238Y-127883509D02*
X456042857Y-127788271D01*
X456042857Y-127788271D02*
X456138095Y-127740652D01*
X456138095Y-127740652D02*
X456328571Y-127740652D01*
X456328571Y-127740652D02*
X456423809Y-127788271D01*
X456423809Y-127788271D02*
X456471428Y-127883509D01*
X456471428Y-127883509D02*
X456471428Y-127978747D01*
X456471428Y-127978747D02*
X455995238Y-128073985D01*
X456900000Y-127740652D02*
X456900000Y-128740652D01*
X456900000Y-127788271D02*
X456995238Y-127740652D01*
X456995238Y-127740652D02*
X457185714Y-127740652D01*
X457185714Y-127740652D02*
X457280952Y-127788271D01*
X457280952Y-127788271D02*
X457328571Y-127835890D01*
X457328571Y-127835890D02*
X457376190Y-127931128D01*
X457376190Y-127931128D02*
X457376190Y-128216842D01*
X457376190Y-128216842D02*
X457328571Y-128312080D01*
X457328571Y-128312080D02*
X457280952Y-128359700D01*
X457280952Y-128359700D02*
X457185714Y-128407319D01*
X457185714Y-128407319D02*
X456995238Y-128407319D01*
X456995238Y-128407319D02*
X456900000Y-128359700D01*
X458757143Y-127407319D02*
X458947619Y-127407319D01*
X458947619Y-127407319D02*
X459042857Y-127454938D01*
X459042857Y-127454938D02*
X459138095Y-127550176D01*
X459138095Y-127550176D02*
X459185714Y-127740652D01*
X459185714Y-127740652D02*
X459185714Y-128073985D01*
X459185714Y-128073985D02*
X459138095Y-128264461D01*
X459138095Y-128264461D02*
X459042857Y-128359700D01*
X459042857Y-128359700D02*
X458947619Y-128407319D01*
X458947619Y-128407319D02*
X458757143Y-128407319D01*
X458757143Y-128407319D02*
X458661905Y-128359700D01*
X458661905Y-128359700D02*
X458566667Y-128264461D01*
X458566667Y-128264461D02*
X458519048Y-128073985D01*
X458519048Y-128073985D02*
X458519048Y-127740652D01*
X458519048Y-127740652D02*
X458566667Y-127550176D01*
X458566667Y-127550176D02*
X458661905Y-127454938D01*
X458661905Y-127454938D02*
X458757143Y-127407319D01*
X460042857Y-127740652D02*
X460042857Y-128407319D01*
X459614286Y-127740652D02*
X459614286Y-128264461D01*
X459614286Y-128264461D02*
X459661905Y-128359700D01*
X459661905Y-128359700D02*
X459757143Y-128407319D01*
X459757143Y-128407319D02*
X459900000Y-128407319D01*
X459900000Y-128407319D02*
X459995238Y-128359700D01*
X459995238Y-128359700D02*
X460042857Y-128312080D01*
X460376191Y-127740652D02*
X460757143Y-127740652D01*
X460519048Y-127407319D02*
X460519048Y-128264461D01*
X460519048Y-128264461D02*
X460566667Y-128359700D01*
X460566667Y-128359700D02*
X460661905Y-128407319D01*
X460661905Y-128407319D02*
X460757143Y-128407319D01*
D11*
X456463586Y-139507005D02*
X456574686Y-139507005D01*
X456622300Y-139681591D02*
X456463586Y-139681591D01*
X456463586Y-139681591D02*
X456463586Y-139348291D01*
X456463586Y-139348291D02*
X456622300Y-139348291D01*
X456733400Y-139681591D02*
X456907986Y-139459391D01*
X456733400Y-139459391D02*
X456907986Y-139681591D01*
X457034957Y-139459391D02*
X457034957Y-139792691D01*
X457034957Y-139475262D02*
X457066700Y-139459391D01*
X457066700Y-139459391D02*
X457130185Y-139459391D01*
X457130185Y-139459391D02*
X457161928Y-139475262D01*
X457161928Y-139475262D02*
X457177800Y-139491134D01*
X457177800Y-139491134D02*
X457193671Y-139522877D01*
X457193671Y-139522877D02*
X457193671Y-139618105D01*
X457193671Y-139618105D02*
X457177800Y-139649848D01*
X457177800Y-139649848D02*
X457161928Y-139665720D01*
X457161928Y-139665720D02*
X457130185Y-139681591D01*
X457130185Y-139681591D02*
X457066700Y-139681591D01*
X457066700Y-139681591D02*
X457034957Y-139665720D01*
X457384128Y-139681591D02*
X457352385Y-139665720D01*
X457352385Y-139665720D02*
X457336514Y-139649848D01*
X457336514Y-139649848D02*
X457320642Y-139618105D01*
X457320642Y-139618105D02*
X457320642Y-139522877D01*
X457320642Y-139522877D02*
X457336514Y-139491134D01*
X457336514Y-139491134D02*
X457352385Y-139475262D01*
X457352385Y-139475262D02*
X457384128Y-139459391D01*
X457384128Y-139459391D02*
X457431742Y-139459391D01*
X457431742Y-139459391D02*
X457463485Y-139475262D01*
X457463485Y-139475262D02*
X457479357Y-139491134D01*
X457479357Y-139491134D02*
X457495228Y-139522877D01*
X457495228Y-139522877D02*
X457495228Y-139618105D01*
X457495228Y-139618105D02*
X457479357Y-139649848D01*
X457479357Y-139649848D02*
X457463485Y-139665720D01*
X457463485Y-139665720D02*
X457431742Y-139681591D01*
X457431742Y-139681591D02*
X457384128Y-139681591D01*
X457622199Y-139665720D02*
X457653942Y-139681591D01*
X457653942Y-139681591D02*
X457717428Y-139681591D01*
X457717428Y-139681591D02*
X457749171Y-139665720D01*
X457749171Y-139665720D02*
X457765042Y-139633977D01*
X457765042Y-139633977D02*
X457765042Y-139618105D01*
X457765042Y-139618105D02*
X457749171Y-139586362D01*
X457749171Y-139586362D02*
X457717428Y-139570491D01*
X457717428Y-139570491D02*
X457669814Y-139570491D01*
X457669814Y-139570491D02*
X457638071Y-139554620D01*
X457638071Y-139554620D02*
X457622199Y-139522877D01*
X457622199Y-139522877D02*
X457622199Y-139507005D01*
X457622199Y-139507005D02*
X457638071Y-139475262D01*
X457638071Y-139475262D02*
X457669814Y-139459391D01*
X457669814Y-139459391D02*
X457717428Y-139459391D01*
X457717428Y-139459391D02*
X457749171Y-139475262D01*
X458034856Y-139665720D02*
X458003113Y-139681591D01*
X458003113Y-139681591D02*
X457939628Y-139681591D01*
X457939628Y-139681591D02*
X457907885Y-139665720D01*
X457907885Y-139665720D02*
X457892013Y-139633977D01*
X457892013Y-139633977D02*
X457892013Y-139507005D01*
X457892013Y-139507005D02*
X457907885Y-139475262D01*
X457907885Y-139475262D02*
X457939628Y-139459391D01*
X457939628Y-139459391D02*
X458003113Y-139459391D01*
X458003113Y-139459391D02*
X458034856Y-139475262D01*
X458034856Y-139475262D02*
X458050728Y-139507005D01*
X458050728Y-139507005D02*
X458050728Y-139538748D01*
X458050728Y-139538748D02*
X457892013Y-139570491D01*
X458336414Y-139681591D02*
X458336414Y-139348291D01*
X458336414Y-139665720D02*
X458304671Y-139681591D01*
X458304671Y-139681591D02*
X458241185Y-139681591D01*
X458241185Y-139681591D02*
X458209442Y-139665720D01*
X458209442Y-139665720D02*
X458193571Y-139649848D01*
X458193571Y-139649848D02*
X458177699Y-139618105D01*
X458177699Y-139618105D02*
X458177699Y-139522877D01*
X458177699Y-139522877D02*
X458193571Y-139491134D01*
X458193571Y-139491134D02*
X458209442Y-139475262D01*
X458209442Y-139475262D02*
X458241185Y-139459391D01*
X458241185Y-139459391D02*
X458304671Y-139459391D01*
X458304671Y-139459391D02*
X458336414Y-139475262D01*
X456804821Y-140284848D02*
X456788949Y-140300720D01*
X456788949Y-140300720D02*
X456741335Y-140316591D01*
X456741335Y-140316591D02*
X456709592Y-140316591D01*
X456709592Y-140316591D02*
X456661978Y-140300720D01*
X456661978Y-140300720D02*
X456630235Y-140268977D01*
X456630235Y-140268977D02*
X456614364Y-140237234D01*
X456614364Y-140237234D02*
X456598492Y-140173748D01*
X456598492Y-140173748D02*
X456598492Y-140126134D01*
X456598492Y-140126134D02*
X456614364Y-140062648D01*
X456614364Y-140062648D02*
X456630235Y-140030905D01*
X456630235Y-140030905D02*
X456661978Y-139999162D01*
X456661978Y-139999162D02*
X456709592Y-139983291D01*
X456709592Y-139983291D02*
X456741335Y-139983291D01*
X456741335Y-139983291D02*
X456788949Y-139999162D01*
X456788949Y-139999162D02*
X456804821Y-140015034D01*
X456995278Y-140316591D02*
X456963535Y-140300720D01*
X456963535Y-140300720D02*
X456947664Y-140284848D01*
X456947664Y-140284848D02*
X456931792Y-140253105D01*
X456931792Y-140253105D02*
X456931792Y-140157877D01*
X456931792Y-140157877D02*
X456947664Y-140126134D01*
X456947664Y-140126134D02*
X456963535Y-140110262D01*
X456963535Y-140110262D02*
X456995278Y-140094391D01*
X456995278Y-140094391D02*
X457042892Y-140094391D01*
X457042892Y-140094391D02*
X457074635Y-140110262D01*
X457074635Y-140110262D02*
X457090507Y-140126134D01*
X457090507Y-140126134D02*
X457106378Y-140157877D01*
X457106378Y-140157877D02*
X457106378Y-140253105D01*
X457106378Y-140253105D02*
X457090507Y-140284848D01*
X457090507Y-140284848D02*
X457074635Y-140300720D01*
X457074635Y-140300720D02*
X457042892Y-140316591D01*
X457042892Y-140316591D02*
X456995278Y-140316591D01*
X457249221Y-140094391D02*
X457249221Y-140427691D01*
X457249221Y-140110262D02*
X457280964Y-140094391D01*
X457280964Y-140094391D02*
X457344449Y-140094391D01*
X457344449Y-140094391D02*
X457376192Y-140110262D01*
X457376192Y-140110262D02*
X457392064Y-140126134D01*
X457392064Y-140126134D02*
X457407935Y-140157877D01*
X457407935Y-140157877D02*
X457407935Y-140253105D01*
X457407935Y-140253105D02*
X457392064Y-140284848D01*
X457392064Y-140284848D02*
X457376192Y-140300720D01*
X457376192Y-140300720D02*
X457344449Y-140316591D01*
X457344449Y-140316591D02*
X457280964Y-140316591D01*
X457280964Y-140316591D02*
X457249221Y-140300720D01*
X457550778Y-140094391D02*
X457550778Y-140427691D01*
X457550778Y-140110262D02*
X457582521Y-140094391D01*
X457582521Y-140094391D02*
X457646006Y-140094391D01*
X457646006Y-140094391D02*
X457677749Y-140110262D01*
X457677749Y-140110262D02*
X457693621Y-140126134D01*
X457693621Y-140126134D02*
X457709492Y-140157877D01*
X457709492Y-140157877D02*
X457709492Y-140253105D01*
X457709492Y-140253105D02*
X457693621Y-140284848D01*
X457693621Y-140284848D02*
X457677749Y-140300720D01*
X457677749Y-140300720D02*
X457646006Y-140316591D01*
X457646006Y-140316591D02*
X457582521Y-140316591D01*
X457582521Y-140316591D02*
X457550778Y-140300720D01*
X457979306Y-140300720D02*
X457947563Y-140316591D01*
X457947563Y-140316591D02*
X457884078Y-140316591D01*
X457884078Y-140316591D02*
X457852335Y-140300720D01*
X457852335Y-140300720D02*
X457836463Y-140268977D01*
X457836463Y-140268977D02*
X457836463Y-140142005D01*
X457836463Y-140142005D02*
X457852335Y-140110262D01*
X457852335Y-140110262D02*
X457884078Y-140094391D01*
X457884078Y-140094391D02*
X457947563Y-140094391D01*
X457947563Y-140094391D02*
X457979306Y-140110262D01*
X457979306Y-140110262D02*
X457995178Y-140142005D01*
X457995178Y-140142005D02*
X457995178Y-140173748D01*
X457995178Y-140173748D02*
X457836463Y-140205491D01*
X458138021Y-140316591D02*
X458138021Y-140094391D01*
X458138021Y-140157877D02*
X458153892Y-140126134D01*
X458153892Y-140126134D02*
X458169764Y-140110262D01*
X458169764Y-140110262D02*
X458201506Y-140094391D01*
X458201506Y-140094391D02*
X458233249Y-140094391D01*
X456876243Y-142981591D02*
X456876243Y-142648291D01*
X457066700Y-142981591D02*
X456923857Y-142791134D01*
X457066700Y-142648291D02*
X456876243Y-142838748D01*
X457336514Y-142965720D02*
X457304771Y-142981591D01*
X457304771Y-142981591D02*
X457241286Y-142981591D01*
X457241286Y-142981591D02*
X457209543Y-142965720D01*
X457209543Y-142965720D02*
X457193671Y-142933977D01*
X457193671Y-142933977D02*
X457193671Y-142807005D01*
X457193671Y-142807005D02*
X457209543Y-142775262D01*
X457209543Y-142775262D02*
X457241286Y-142759391D01*
X457241286Y-142759391D02*
X457304771Y-142759391D01*
X457304771Y-142759391D02*
X457336514Y-142775262D01*
X457336514Y-142775262D02*
X457352386Y-142807005D01*
X457352386Y-142807005D02*
X457352386Y-142838748D01*
X457352386Y-142838748D02*
X457193671Y-142870491D01*
X457622200Y-142965720D02*
X457590457Y-142981591D01*
X457590457Y-142981591D02*
X457526972Y-142981591D01*
X457526972Y-142981591D02*
X457495229Y-142965720D01*
X457495229Y-142965720D02*
X457479357Y-142933977D01*
X457479357Y-142933977D02*
X457479357Y-142807005D01*
X457479357Y-142807005D02*
X457495229Y-142775262D01*
X457495229Y-142775262D02*
X457526972Y-142759391D01*
X457526972Y-142759391D02*
X457590457Y-142759391D01*
X457590457Y-142759391D02*
X457622200Y-142775262D01*
X457622200Y-142775262D02*
X457638072Y-142807005D01*
X457638072Y-142807005D02*
X457638072Y-142838748D01*
X457638072Y-142838748D02*
X457479357Y-142870491D01*
X457780915Y-142759391D02*
X457780915Y-143092691D01*
X457780915Y-142775262D02*
X457812658Y-142759391D01*
X457812658Y-142759391D02*
X457876143Y-142759391D01*
X457876143Y-142759391D02*
X457907886Y-142775262D01*
X457907886Y-142775262D02*
X457923758Y-142791134D01*
X457923758Y-142791134D02*
X457939629Y-142822877D01*
X457939629Y-142822877D02*
X457939629Y-142918105D01*
X457939629Y-142918105D02*
X457923758Y-142949848D01*
X457923758Y-142949848D02*
X457907886Y-142965720D01*
X457907886Y-142965720D02*
X457876143Y-142981591D01*
X457876143Y-142981591D02*
X457812658Y-142981591D01*
X457812658Y-142981591D02*
X457780915Y-142965720D01*
X457122250Y-143283291D02*
X457185736Y-143283291D01*
X457185736Y-143283291D02*
X457217479Y-143299162D01*
X457217479Y-143299162D02*
X457249222Y-143330905D01*
X457249222Y-143330905D02*
X457265093Y-143394391D01*
X457265093Y-143394391D02*
X457265093Y-143505491D01*
X457265093Y-143505491D02*
X457249222Y-143568977D01*
X457249222Y-143568977D02*
X457217479Y-143600720D01*
X457217479Y-143600720D02*
X457185736Y-143616591D01*
X457185736Y-143616591D02*
X457122250Y-143616591D01*
X457122250Y-143616591D02*
X457090508Y-143600720D01*
X457090508Y-143600720D02*
X457058765Y-143568977D01*
X457058765Y-143568977D02*
X457042893Y-143505491D01*
X457042893Y-143505491D02*
X457042893Y-143394391D01*
X457042893Y-143394391D02*
X457058765Y-143330905D01*
X457058765Y-143330905D02*
X457090508Y-143299162D01*
X457090508Y-143299162D02*
X457122250Y-143283291D01*
X457550779Y-143394391D02*
X457550779Y-143616591D01*
X457407936Y-143394391D02*
X457407936Y-143568977D01*
X457407936Y-143568977D02*
X457423807Y-143600720D01*
X457423807Y-143600720D02*
X457455550Y-143616591D01*
X457455550Y-143616591D02*
X457503164Y-143616591D01*
X457503164Y-143616591D02*
X457534907Y-143600720D01*
X457534907Y-143600720D02*
X457550779Y-143584848D01*
X457661878Y-143394391D02*
X457788850Y-143394391D01*
X457709493Y-143283291D02*
X457709493Y-143568977D01*
X457709493Y-143568977D02*
X457725364Y-143600720D01*
X457725364Y-143600720D02*
X457757107Y-143616591D01*
X457757107Y-143616591D02*
X457788850Y-143616591D01*
D10*
X451161904Y-184287319D02*
X451161904Y-183287319D01*
X451161904Y-183287319D02*
X451542856Y-183287319D01*
X451542856Y-183287319D02*
X451638094Y-183334938D01*
X451638094Y-183334938D02*
X451685713Y-183382557D01*
X451685713Y-183382557D02*
X451733332Y-183477795D01*
X451733332Y-183477795D02*
X451733332Y-183620652D01*
X451733332Y-183620652D02*
X451685713Y-183715890D01*
X451685713Y-183715890D02*
X451638094Y-183763509D01*
X451638094Y-183763509D02*
X451542856Y-183811128D01*
X451542856Y-183811128D02*
X451161904Y-183811128D01*
X452304761Y-184287319D02*
X452209523Y-184239700D01*
X452209523Y-184239700D02*
X452161904Y-184192080D01*
X452161904Y-184192080D02*
X452114285Y-184096842D01*
X452114285Y-184096842D02*
X452114285Y-183811128D01*
X452114285Y-183811128D02*
X452161904Y-183715890D01*
X452161904Y-183715890D02*
X452209523Y-183668271D01*
X452209523Y-183668271D02*
X452304761Y-183620652D01*
X452304761Y-183620652D02*
X452447618Y-183620652D01*
X452447618Y-183620652D02*
X452542856Y-183668271D01*
X452542856Y-183668271D02*
X452590475Y-183715890D01*
X452590475Y-183715890D02*
X452638094Y-183811128D01*
X452638094Y-183811128D02*
X452638094Y-184096842D01*
X452638094Y-184096842D02*
X452590475Y-184192080D01*
X452590475Y-184192080D02*
X452542856Y-184239700D01*
X452542856Y-184239700D02*
X452447618Y-184287319D01*
X452447618Y-184287319D02*
X452304761Y-184287319D01*
X453019047Y-184239700D02*
X453114285Y-184287319D01*
X453114285Y-184287319D02*
X453304761Y-184287319D01*
X453304761Y-184287319D02*
X453399999Y-184239700D01*
X453399999Y-184239700D02*
X453447618Y-184144461D01*
X453447618Y-184144461D02*
X453447618Y-184096842D01*
X453447618Y-184096842D02*
X453399999Y-184001604D01*
X453399999Y-184001604D02*
X453304761Y-183953985D01*
X453304761Y-183953985D02*
X453161904Y-183953985D01*
X453161904Y-183953985D02*
X453066666Y-183906366D01*
X453066666Y-183906366D02*
X453019047Y-183811128D01*
X453019047Y-183811128D02*
X453019047Y-183763509D01*
X453019047Y-183763509D02*
X453066666Y-183668271D01*
X453066666Y-183668271D02*
X453161904Y-183620652D01*
X453161904Y-183620652D02*
X453304761Y-183620652D01*
X453304761Y-183620652D02*
X453399999Y-183668271D01*
X453828571Y-184239700D02*
X453923809Y-184287319D01*
X453923809Y-184287319D02*
X454114285Y-184287319D01*
X454114285Y-184287319D02*
X454209523Y-184239700D01*
X454209523Y-184239700D02*
X454257142Y-184144461D01*
X454257142Y-184144461D02*
X454257142Y-184096842D01*
X454257142Y-184096842D02*
X454209523Y-184001604D01*
X454209523Y-184001604D02*
X454114285Y-183953985D01*
X454114285Y-183953985D02*
X453971428Y-183953985D01*
X453971428Y-183953985D02*
X453876190Y-183906366D01*
X453876190Y-183906366D02*
X453828571Y-183811128D01*
X453828571Y-183811128D02*
X453828571Y-183763509D01*
X453828571Y-183763509D02*
X453876190Y-183668271D01*
X453876190Y-183668271D02*
X453971428Y-183620652D01*
X453971428Y-183620652D02*
X454114285Y-183620652D01*
X454114285Y-183620652D02*
X454209523Y-183668271D01*
X454685714Y-184287319D02*
X454685714Y-183620652D01*
X454685714Y-183287319D02*
X454638095Y-183334938D01*
X454638095Y-183334938D02*
X454685714Y-183382557D01*
X454685714Y-183382557D02*
X454733333Y-183334938D01*
X454733333Y-183334938D02*
X454685714Y-183287319D01*
X454685714Y-183287319D02*
X454685714Y-183382557D01*
X455161904Y-184287319D02*
X455161904Y-183287319D01*
X455161904Y-183668271D02*
X455257142Y-183620652D01*
X455257142Y-183620652D02*
X455447618Y-183620652D01*
X455447618Y-183620652D02*
X455542856Y-183668271D01*
X455542856Y-183668271D02*
X455590475Y-183715890D01*
X455590475Y-183715890D02*
X455638094Y-183811128D01*
X455638094Y-183811128D02*
X455638094Y-184096842D01*
X455638094Y-184096842D02*
X455590475Y-184192080D01*
X455590475Y-184192080D02*
X455542856Y-184239700D01*
X455542856Y-184239700D02*
X455447618Y-184287319D01*
X455447618Y-184287319D02*
X455257142Y-184287319D01*
X455257142Y-184287319D02*
X455161904Y-184239700D01*
X456209523Y-184287319D02*
X456114285Y-184239700D01*
X456114285Y-184239700D02*
X456066666Y-184144461D01*
X456066666Y-184144461D02*
X456066666Y-183287319D01*
X456971428Y-184239700D02*
X456876190Y-184287319D01*
X456876190Y-184287319D02*
X456685714Y-184287319D01*
X456685714Y-184287319D02*
X456590476Y-184239700D01*
X456590476Y-184239700D02*
X456542857Y-184144461D01*
X456542857Y-184144461D02*
X456542857Y-183763509D01*
X456542857Y-183763509D02*
X456590476Y-183668271D01*
X456590476Y-183668271D02*
X456685714Y-183620652D01*
X456685714Y-183620652D02*
X456876190Y-183620652D01*
X456876190Y-183620652D02*
X456971428Y-183668271D01*
X456971428Y-183668271D02*
X457019047Y-183763509D01*
X457019047Y-183763509D02*
X457019047Y-183858747D01*
X457019047Y-183858747D02*
X456542857Y-183953985D01*
X458161905Y-184001604D02*
X458638095Y-184001604D01*
X458066667Y-184287319D02*
X458400000Y-183287319D01*
X458400000Y-183287319D02*
X458733333Y-184287319D01*
X459066667Y-183620652D02*
X459066667Y-184287319D01*
X459066667Y-183715890D02*
X459114286Y-183668271D01*
X459114286Y-183668271D02*
X459209524Y-183620652D01*
X459209524Y-183620652D02*
X459352381Y-183620652D01*
X459352381Y-183620652D02*
X459447619Y-183668271D01*
X459447619Y-183668271D02*
X459495238Y-183763509D01*
X459495238Y-183763509D02*
X459495238Y-184287319D01*
X459828572Y-183620652D02*
X460209524Y-183620652D01*
X459971429Y-183287319D02*
X459971429Y-184144461D01*
X459971429Y-184144461D02*
X460019048Y-184239700D01*
X460019048Y-184239700D02*
X460114286Y-184287319D01*
X460114286Y-184287319D02*
X460209524Y-184287319D01*
X460923810Y-184239700D02*
X460828572Y-184287319D01*
X460828572Y-184287319D02*
X460638096Y-184287319D01*
X460638096Y-184287319D02*
X460542858Y-184239700D01*
X460542858Y-184239700D02*
X460495239Y-184144461D01*
X460495239Y-184144461D02*
X460495239Y-183763509D01*
X460495239Y-183763509D02*
X460542858Y-183668271D01*
X460542858Y-183668271D02*
X460638096Y-183620652D01*
X460638096Y-183620652D02*
X460828572Y-183620652D01*
X460828572Y-183620652D02*
X460923810Y-183668271D01*
X460923810Y-183668271D02*
X460971429Y-183763509D01*
X460971429Y-183763509D02*
X460971429Y-183858747D01*
X460971429Y-183858747D02*
X460495239Y-183953985D01*
X461400001Y-183620652D02*
X461400001Y-184287319D01*
X461400001Y-183715890D02*
X461447620Y-183668271D01*
X461447620Y-183668271D02*
X461542858Y-183620652D01*
X461542858Y-183620652D02*
X461685715Y-183620652D01*
X461685715Y-183620652D02*
X461780953Y-183668271D01*
X461780953Y-183668271D02*
X461828572Y-183763509D01*
X461828572Y-183763509D02*
X461828572Y-184287319D01*
X462304763Y-183620652D02*
X462304763Y-184287319D01*
X462304763Y-183715890D02*
X462352382Y-183668271D01*
X462352382Y-183668271D02*
X462447620Y-183620652D01*
X462447620Y-183620652D02*
X462590477Y-183620652D01*
X462590477Y-183620652D02*
X462685715Y-183668271D01*
X462685715Y-183668271D02*
X462733334Y-183763509D01*
X462733334Y-183763509D02*
X462733334Y-184287319D01*
X463638096Y-184287319D02*
X463638096Y-183763509D01*
X463638096Y-183763509D02*
X463590477Y-183668271D01*
X463590477Y-183668271D02*
X463495239Y-183620652D01*
X463495239Y-183620652D02*
X463304763Y-183620652D01*
X463304763Y-183620652D02*
X463209525Y-183668271D01*
X463638096Y-184239700D02*
X463542858Y-184287319D01*
X463542858Y-184287319D02*
X463304763Y-184287319D01*
X463304763Y-184287319D02*
X463209525Y-184239700D01*
X463209525Y-184239700D02*
X463161906Y-184144461D01*
X463161906Y-184144461D02*
X463161906Y-184049223D01*
X463161906Y-184049223D02*
X463209525Y-183953985D01*
X463209525Y-183953985D02*
X463304763Y-183906366D01*
X463304763Y-183906366D02*
X463542858Y-183906366D01*
X463542858Y-183906366D02*
X463638096Y-183858747D01*
X454185714Y-186192319D02*
X454185714Y-185192319D01*
X454757142Y-186192319D02*
X454328571Y-185620890D01*
X454757142Y-185192319D02*
X454185714Y-185763747D01*
X455566666Y-186144700D02*
X455471428Y-186192319D01*
X455471428Y-186192319D02*
X455280952Y-186192319D01*
X455280952Y-186192319D02*
X455185714Y-186144700D01*
X455185714Y-186144700D02*
X455138095Y-186049461D01*
X455138095Y-186049461D02*
X455138095Y-185668509D01*
X455138095Y-185668509D02*
X455185714Y-185573271D01*
X455185714Y-185573271D02*
X455280952Y-185525652D01*
X455280952Y-185525652D02*
X455471428Y-185525652D01*
X455471428Y-185525652D02*
X455566666Y-185573271D01*
X455566666Y-185573271D02*
X455614285Y-185668509D01*
X455614285Y-185668509D02*
X455614285Y-185763747D01*
X455614285Y-185763747D02*
X455138095Y-185858985D01*
X456423809Y-186144700D02*
X456328571Y-186192319D01*
X456328571Y-186192319D02*
X456138095Y-186192319D01*
X456138095Y-186192319D02*
X456042857Y-186144700D01*
X456042857Y-186144700D02*
X455995238Y-186049461D01*
X455995238Y-186049461D02*
X455995238Y-185668509D01*
X455995238Y-185668509D02*
X456042857Y-185573271D01*
X456042857Y-185573271D02*
X456138095Y-185525652D01*
X456138095Y-185525652D02*
X456328571Y-185525652D01*
X456328571Y-185525652D02*
X456423809Y-185573271D01*
X456423809Y-185573271D02*
X456471428Y-185668509D01*
X456471428Y-185668509D02*
X456471428Y-185763747D01*
X456471428Y-185763747D02*
X455995238Y-185858985D01*
X456900000Y-185525652D02*
X456900000Y-186525652D01*
X456900000Y-185573271D02*
X456995238Y-185525652D01*
X456995238Y-185525652D02*
X457185714Y-185525652D01*
X457185714Y-185525652D02*
X457280952Y-185573271D01*
X457280952Y-185573271D02*
X457328571Y-185620890D01*
X457328571Y-185620890D02*
X457376190Y-185716128D01*
X457376190Y-185716128D02*
X457376190Y-186001842D01*
X457376190Y-186001842D02*
X457328571Y-186097080D01*
X457328571Y-186097080D02*
X457280952Y-186144700D01*
X457280952Y-186144700D02*
X457185714Y-186192319D01*
X457185714Y-186192319D02*
X456995238Y-186192319D01*
X456995238Y-186192319D02*
X456900000Y-186144700D01*
X458757143Y-185192319D02*
X458947619Y-185192319D01*
X458947619Y-185192319D02*
X459042857Y-185239938D01*
X459042857Y-185239938D02*
X459138095Y-185335176D01*
X459138095Y-185335176D02*
X459185714Y-185525652D01*
X459185714Y-185525652D02*
X459185714Y-185858985D01*
X459185714Y-185858985D02*
X459138095Y-186049461D01*
X459138095Y-186049461D02*
X459042857Y-186144700D01*
X459042857Y-186144700D02*
X458947619Y-186192319D01*
X458947619Y-186192319D02*
X458757143Y-186192319D01*
X458757143Y-186192319D02*
X458661905Y-186144700D01*
X458661905Y-186144700D02*
X458566667Y-186049461D01*
X458566667Y-186049461D02*
X458519048Y-185858985D01*
X458519048Y-185858985D02*
X458519048Y-185525652D01*
X458519048Y-185525652D02*
X458566667Y-185335176D01*
X458566667Y-185335176D02*
X458661905Y-185239938D01*
X458661905Y-185239938D02*
X458757143Y-185192319D01*
X460042857Y-185525652D02*
X460042857Y-186192319D01*
X459614286Y-185525652D02*
X459614286Y-186049461D01*
X459614286Y-186049461D02*
X459661905Y-186144700D01*
X459661905Y-186144700D02*
X459757143Y-186192319D01*
X459757143Y-186192319D02*
X459900000Y-186192319D01*
X459900000Y-186192319D02*
X459995238Y-186144700D01*
X459995238Y-186144700D02*
X460042857Y-186097080D01*
X460376191Y-185525652D02*
X460757143Y-185525652D01*
X460519048Y-185192319D02*
X460519048Y-186049461D01*
X460519048Y-186049461D02*
X460566667Y-186144700D01*
X460566667Y-186144700D02*
X460661905Y-186192319D01*
X460661905Y-186192319D02*
X460757143Y-186192319D01*
D11*
X454193972Y-198732005D02*
X454305072Y-198732005D01*
X454352686Y-198906591D02*
X454193972Y-198906591D01*
X454193972Y-198906591D02*
X454193972Y-198573291D01*
X454193972Y-198573291D02*
X454352686Y-198573291D01*
X454463786Y-198906591D02*
X454638372Y-198684391D01*
X454463786Y-198684391D02*
X454638372Y-198906591D01*
X454765343Y-198684391D02*
X454765343Y-199017691D01*
X454765343Y-198700262D02*
X454797086Y-198684391D01*
X454797086Y-198684391D02*
X454860571Y-198684391D01*
X454860571Y-198684391D02*
X454892314Y-198700262D01*
X454892314Y-198700262D02*
X454908186Y-198716134D01*
X454908186Y-198716134D02*
X454924057Y-198747877D01*
X454924057Y-198747877D02*
X454924057Y-198843105D01*
X454924057Y-198843105D02*
X454908186Y-198874848D01*
X454908186Y-198874848D02*
X454892314Y-198890720D01*
X454892314Y-198890720D02*
X454860571Y-198906591D01*
X454860571Y-198906591D02*
X454797086Y-198906591D01*
X454797086Y-198906591D02*
X454765343Y-198890720D01*
X455114514Y-198906591D02*
X455082771Y-198890720D01*
X455082771Y-198890720D02*
X455066900Y-198874848D01*
X455066900Y-198874848D02*
X455051028Y-198843105D01*
X455051028Y-198843105D02*
X455051028Y-198747877D01*
X455051028Y-198747877D02*
X455066900Y-198716134D01*
X455066900Y-198716134D02*
X455082771Y-198700262D01*
X455082771Y-198700262D02*
X455114514Y-198684391D01*
X455114514Y-198684391D02*
X455162128Y-198684391D01*
X455162128Y-198684391D02*
X455193871Y-198700262D01*
X455193871Y-198700262D02*
X455209743Y-198716134D01*
X455209743Y-198716134D02*
X455225614Y-198747877D01*
X455225614Y-198747877D02*
X455225614Y-198843105D01*
X455225614Y-198843105D02*
X455209743Y-198874848D01*
X455209743Y-198874848D02*
X455193871Y-198890720D01*
X455193871Y-198890720D02*
X455162128Y-198906591D01*
X455162128Y-198906591D02*
X455114514Y-198906591D01*
X455352585Y-198890720D02*
X455384328Y-198906591D01*
X455384328Y-198906591D02*
X455447814Y-198906591D01*
X455447814Y-198906591D02*
X455479557Y-198890720D01*
X455479557Y-198890720D02*
X455495428Y-198858977D01*
X455495428Y-198858977D02*
X455495428Y-198843105D01*
X455495428Y-198843105D02*
X455479557Y-198811362D01*
X455479557Y-198811362D02*
X455447814Y-198795491D01*
X455447814Y-198795491D02*
X455400200Y-198795491D01*
X455400200Y-198795491D02*
X455368457Y-198779620D01*
X455368457Y-198779620D02*
X455352585Y-198747877D01*
X455352585Y-198747877D02*
X455352585Y-198732005D01*
X455352585Y-198732005D02*
X455368457Y-198700262D01*
X455368457Y-198700262D02*
X455400200Y-198684391D01*
X455400200Y-198684391D02*
X455447814Y-198684391D01*
X455447814Y-198684391D02*
X455479557Y-198700262D01*
X455765242Y-198890720D02*
X455733499Y-198906591D01*
X455733499Y-198906591D02*
X455670014Y-198906591D01*
X455670014Y-198906591D02*
X455638271Y-198890720D01*
X455638271Y-198890720D02*
X455622399Y-198858977D01*
X455622399Y-198858977D02*
X455622399Y-198732005D01*
X455622399Y-198732005D02*
X455638271Y-198700262D01*
X455638271Y-198700262D02*
X455670014Y-198684391D01*
X455670014Y-198684391D02*
X455733499Y-198684391D01*
X455733499Y-198684391D02*
X455765242Y-198700262D01*
X455765242Y-198700262D02*
X455781114Y-198732005D01*
X455781114Y-198732005D02*
X455781114Y-198763748D01*
X455781114Y-198763748D02*
X455622399Y-198795491D01*
X456066800Y-198906591D02*
X456066800Y-198573291D01*
X456066800Y-198890720D02*
X456035057Y-198906591D01*
X456035057Y-198906591D02*
X455971571Y-198906591D01*
X455971571Y-198906591D02*
X455939828Y-198890720D01*
X455939828Y-198890720D02*
X455923957Y-198874848D01*
X455923957Y-198874848D02*
X455908085Y-198843105D01*
X455908085Y-198843105D02*
X455908085Y-198747877D01*
X455908085Y-198747877D02*
X455923957Y-198716134D01*
X455923957Y-198716134D02*
X455939828Y-198700262D01*
X455939828Y-198700262D02*
X455971571Y-198684391D01*
X455971571Y-198684391D02*
X456035057Y-198684391D01*
X456035057Y-198684391D02*
X456066800Y-198700262D01*
X456669914Y-198874848D02*
X456654042Y-198890720D01*
X456654042Y-198890720D02*
X456606428Y-198906591D01*
X456606428Y-198906591D02*
X456574685Y-198906591D01*
X456574685Y-198906591D02*
X456527071Y-198890720D01*
X456527071Y-198890720D02*
X456495328Y-198858977D01*
X456495328Y-198858977D02*
X456479457Y-198827234D01*
X456479457Y-198827234D02*
X456463585Y-198763748D01*
X456463585Y-198763748D02*
X456463585Y-198716134D01*
X456463585Y-198716134D02*
X456479457Y-198652648D01*
X456479457Y-198652648D02*
X456495328Y-198620905D01*
X456495328Y-198620905D02*
X456527071Y-198589162D01*
X456527071Y-198589162D02*
X456574685Y-198573291D01*
X456574685Y-198573291D02*
X456606428Y-198573291D01*
X456606428Y-198573291D02*
X456654042Y-198589162D01*
X456654042Y-198589162D02*
X456669914Y-198605034D01*
X456860371Y-198906591D02*
X456828628Y-198890720D01*
X456828628Y-198890720D02*
X456812757Y-198874848D01*
X456812757Y-198874848D02*
X456796885Y-198843105D01*
X456796885Y-198843105D02*
X456796885Y-198747877D01*
X456796885Y-198747877D02*
X456812757Y-198716134D01*
X456812757Y-198716134D02*
X456828628Y-198700262D01*
X456828628Y-198700262D02*
X456860371Y-198684391D01*
X456860371Y-198684391D02*
X456907985Y-198684391D01*
X456907985Y-198684391D02*
X456939728Y-198700262D01*
X456939728Y-198700262D02*
X456955600Y-198716134D01*
X456955600Y-198716134D02*
X456971471Y-198747877D01*
X456971471Y-198747877D02*
X456971471Y-198843105D01*
X456971471Y-198843105D02*
X456955600Y-198874848D01*
X456955600Y-198874848D02*
X456939728Y-198890720D01*
X456939728Y-198890720D02*
X456907985Y-198906591D01*
X456907985Y-198906591D02*
X456860371Y-198906591D01*
X457114314Y-198684391D02*
X457114314Y-199017691D01*
X457114314Y-198700262D02*
X457146057Y-198684391D01*
X457146057Y-198684391D02*
X457209542Y-198684391D01*
X457209542Y-198684391D02*
X457241285Y-198700262D01*
X457241285Y-198700262D02*
X457257157Y-198716134D01*
X457257157Y-198716134D02*
X457273028Y-198747877D01*
X457273028Y-198747877D02*
X457273028Y-198843105D01*
X457273028Y-198843105D02*
X457257157Y-198874848D01*
X457257157Y-198874848D02*
X457241285Y-198890720D01*
X457241285Y-198890720D02*
X457209542Y-198906591D01*
X457209542Y-198906591D02*
X457146057Y-198906591D01*
X457146057Y-198906591D02*
X457114314Y-198890720D01*
X457415871Y-198684391D02*
X457415871Y-199017691D01*
X457415871Y-198700262D02*
X457447614Y-198684391D01*
X457447614Y-198684391D02*
X457511099Y-198684391D01*
X457511099Y-198684391D02*
X457542842Y-198700262D01*
X457542842Y-198700262D02*
X457558714Y-198716134D01*
X457558714Y-198716134D02*
X457574585Y-198747877D01*
X457574585Y-198747877D02*
X457574585Y-198843105D01*
X457574585Y-198843105D02*
X457558714Y-198874848D01*
X457558714Y-198874848D02*
X457542842Y-198890720D01*
X457542842Y-198890720D02*
X457511099Y-198906591D01*
X457511099Y-198906591D02*
X457447614Y-198906591D01*
X457447614Y-198906591D02*
X457415871Y-198890720D01*
X457844399Y-198890720D02*
X457812656Y-198906591D01*
X457812656Y-198906591D02*
X457749171Y-198906591D01*
X457749171Y-198906591D02*
X457717428Y-198890720D01*
X457717428Y-198890720D02*
X457701556Y-198858977D01*
X457701556Y-198858977D02*
X457701556Y-198732005D01*
X457701556Y-198732005D02*
X457717428Y-198700262D01*
X457717428Y-198700262D02*
X457749171Y-198684391D01*
X457749171Y-198684391D02*
X457812656Y-198684391D01*
X457812656Y-198684391D02*
X457844399Y-198700262D01*
X457844399Y-198700262D02*
X457860271Y-198732005D01*
X457860271Y-198732005D02*
X457860271Y-198763748D01*
X457860271Y-198763748D02*
X457701556Y-198795491D01*
X458003114Y-198906591D02*
X458003114Y-198684391D01*
X458003114Y-198747877D02*
X458018985Y-198716134D01*
X458018985Y-198716134D02*
X458034857Y-198700262D01*
X458034857Y-198700262D02*
X458066599Y-198684391D01*
X458066599Y-198684391D02*
X458098342Y-198684391D01*
X458463386Y-198906591D02*
X458463386Y-198573291D01*
X458653843Y-198906591D02*
X458511000Y-198716134D01*
X458653843Y-198573291D02*
X458463386Y-198763748D01*
X458923657Y-198890720D02*
X458891914Y-198906591D01*
X458891914Y-198906591D02*
X458828429Y-198906591D01*
X458828429Y-198906591D02*
X458796686Y-198890720D01*
X458796686Y-198890720D02*
X458780814Y-198858977D01*
X458780814Y-198858977D02*
X458780814Y-198732005D01*
X458780814Y-198732005D02*
X458796686Y-198700262D01*
X458796686Y-198700262D02*
X458828429Y-198684391D01*
X458828429Y-198684391D02*
X458891914Y-198684391D01*
X458891914Y-198684391D02*
X458923657Y-198700262D01*
X458923657Y-198700262D02*
X458939529Y-198732005D01*
X458939529Y-198732005D02*
X458939529Y-198763748D01*
X458939529Y-198763748D02*
X458780814Y-198795491D01*
X459209343Y-198890720D02*
X459177600Y-198906591D01*
X459177600Y-198906591D02*
X459114115Y-198906591D01*
X459114115Y-198906591D02*
X459082372Y-198890720D01*
X459082372Y-198890720D02*
X459066500Y-198858977D01*
X459066500Y-198858977D02*
X459066500Y-198732005D01*
X459066500Y-198732005D02*
X459082372Y-198700262D01*
X459082372Y-198700262D02*
X459114115Y-198684391D01*
X459114115Y-198684391D02*
X459177600Y-198684391D01*
X459177600Y-198684391D02*
X459209343Y-198700262D01*
X459209343Y-198700262D02*
X459225215Y-198732005D01*
X459225215Y-198732005D02*
X459225215Y-198763748D01*
X459225215Y-198763748D02*
X459066500Y-198795491D01*
X459368058Y-198684391D02*
X459368058Y-199017691D01*
X459368058Y-198700262D02*
X459399801Y-198684391D01*
X459399801Y-198684391D02*
X459463286Y-198684391D01*
X459463286Y-198684391D02*
X459495029Y-198700262D01*
X459495029Y-198700262D02*
X459510901Y-198716134D01*
X459510901Y-198716134D02*
X459526772Y-198747877D01*
X459526772Y-198747877D02*
X459526772Y-198843105D01*
X459526772Y-198843105D02*
X459510901Y-198874848D01*
X459510901Y-198874848D02*
X459495029Y-198890720D01*
X459495029Y-198890720D02*
X459463286Y-198906591D01*
X459463286Y-198906591D02*
X459399801Y-198906591D01*
X459399801Y-198906591D02*
X459368058Y-198890720D01*
X459987043Y-198573291D02*
X460050529Y-198573291D01*
X460050529Y-198573291D02*
X460082272Y-198589162D01*
X460082272Y-198589162D02*
X460114015Y-198620905D01*
X460114015Y-198620905D02*
X460129886Y-198684391D01*
X460129886Y-198684391D02*
X460129886Y-198795491D01*
X460129886Y-198795491D02*
X460114015Y-198858977D01*
X460114015Y-198858977D02*
X460082272Y-198890720D01*
X460082272Y-198890720D02*
X460050529Y-198906591D01*
X460050529Y-198906591D02*
X459987043Y-198906591D01*
X459987043Y-198906591D02*
X459955301Y-198890720D01*
X459955301Y-198890720D02*
X459923558Y-198858977D01*
X459923558Y-198858977D02*
X459907686Y-198795491D01*
X459907686Y-198795491D02*
X459907686Y-198684391D01*
X459907686Y-198684391D02*
X459923558Y-198620905D01*
X459923558Y-198620905D02*
X459955301Y-198589162D01*
X459955301Y-198589162D02*
X459987043Y-198573291D01*
X460415572Y-198684391D02*
X460415572Y-198906591D01*
X460272729Y-198684391D02*
X460272729Y-198858977D01*
X460272729Y-198858977D02*
X460288600Y-198890720D01*
X460288600Y-198890720D02*
X460320343Y-198906591D01*
X460320343Y-198906591D02*
X460367957Y-198906591D01*
X460367957Y-198906591D02*
X460399700Y-198890720D01*
X460399700Y-198890720D02*
X460415572Y-198874848D01*
X460526671Y-198684391D02*
X460653643Y-198684391D01*
X460574286Y-198573291D02*
X460574286Y-198858977D01*
X460574286Y-198858977D02*
X460590157Y-198890720D01*
X460590157Y-198890720D02*
X460621900Y-198906591D01*
X460621900Y-198906591D02*
X460653643Y-198906591D01*
X457804821Y-158632348D02*
X457788949Y-158648220D01*
X457788949Y-158648220D02*
X457741335Y-158664091D01*
X457741335Y-158664091D02*
X457709592Y-158664091D01*
X457709592Y-158664091D02*
X457661978Y-158648220D01*
X457661978Y-158648220D02*
X457630235Y-158616477D01*
X457630235Y-158616477D02*
X457614364Y-158584734D01*
X457614364Y-158584734D02*
X457598492Y-158521248D01*
X457598492Y-158521248D02*
X457598492Y-158473634D01*
X457598492Y-158473634D02*
X457614364Y-158410148D01*
X457614364Y-158410148D02*
X457630235Y-158378405D01*
X457630235Y-158378405D02*
X457661978Y-158346662D01*
X457661978Y-158346662D02*
X457709592Y-158330791D01*
X457709592Y-158330791D02*
X457741335Y-158330791D01*
X457741335Y-158330791D02*
X457788949Y-158346662D01*
X457788949Y-158346662D02*
X457804821Y-158362534D01*
X457995278Y-158664091D02*
X457963535Y-158648220D01*
X457963535Y-158648220D02*
X457947664Y-158632348D01*
X457947664Y-158632348D02*
X457931792Y-158600605D01*
X457931792Y-158600605D02*
X457931792Y-158505377D01*
X457931792Y-158505377D02*
X457947664Y-158473634D01*
X457947664Y-158473634D02*
X457963535Y-158457762D01*
X457963535Y-158457762D02*
X457995278Y-158441891D01*
X457995278Y-158441891D02*
X458042892Y-158441891D01*
X458042892Y-158441891D02*
X458074635Y-158457762D01*
X458074635Y-158457762D02*
X458090507Y-158473634D01*
X458090507Y-158473634D02*
X458106378Y-158505377D01*
X458106378Y-158505377D02*
X458106378Y-158600605D01*
X458106378Y-158600605D02*
X458090507Y-158632348D01*
X458090507Y-158632348D02*
X458074635Y-158648220D01*
X458074635Y-158648220D02*
X458042892Y-158664091D01*
X458042892Y-158664091D02*
X457995278Y-158664091D01*
X458249221Y-158441891D02*
X458249221Y-158775191D01*
X458249221Y-158457762D02*
X458280964Y-158441891D01*
X458280964Y-158441891D02*
X458344449Y-158441891D01*
X458344449Y-158441891D02*
X458376192Y-158457762D01*
X458376192Y-158457762D02*
X458392064Y-158473634D01*
X458392064Y-158473634D02*
X458407935Y-158505377D01*
X458407935Y-158505377D02*
X458407935Y-158600605D01*
X458407935Y-158600605D02*
X458392064Y-158632348D01*
X458392064Y-158632348D02*
X458376192Y-158648220D01*
X458376192Y-158648220D02*
X458344449Y-158664091D01*
X458344449Y-158664091D02*
X458280964Y-158664091D01*
X458280964Y-158664091D02*
X458249221Y-158648220D01*
X458550778Y-158441891D02*
X458550778Y-158775191D01*
X458550778Y-158457762D02*
X458582521Y-158441891D01*
X458582521Y-158441891D02*
X458646006Y-158441891D01*
X458646006Y-158441891D02*
X458677749Y-158457762D01*
X458677749Y-158457762D02*
X458693621Y-158473634D01*
X458693621Y-158473634D02*
X458709492Y-158505377D01*
X458709492Y-158505377D02*
X458709492Y-158600605D01*
X458709492Y-158600605D02*
X458693621Y-158632348D01*
X458693621Y-158632348D02*
X458677749Y-158648220D01*
X458677749Y-158648220D02*
X458646006Y-158664091D01*
X458646006Y-158664091D02*
X458582521Y-158664091D01*
X458582521Y-158664091D02*
X458550778Y-158648220D01*
X458979306Y-158648220D02*
X458947563Y-158664091D01*
X458947563Y-158664091D02*
X458884078Y-158664091D01*
X458884078Y-158664091D02*
X458852335Y-158648220D01*
X458852335Y-158648220D02*
X458836463Y-158616477D01*
X458836463Y-158616477D02*
X458836463Y-158489505D01*
X458836463Y-158489505D02*
X458852335Y-158457762D01*
X458852335Y-158457762D02*
X458884078Y-158441891D01*
X458884078Y-158441891D02*
X458947563Y-158441891D01*
X458947563Y-158441891D02*
X458979306Y-158457762D01*
X458979306Y-158457762D02*
X458995178Y-158489505D01*
X458995178Y-158489505D02*
X458995178Y-158521248D01*
X458995178Y-158521248D02*
X458836463Y-158552991D01*
X459138021Y-158664091D02*
X459138021Y-158441891D01*
X459138021Y-158505377D02*
X459153892Y-158473634D01*
X459153892Y-158473634D02*
X459169764Y-158457762D01*
X459169764Y-158457762D02*
X459201506Y-158441891D01*
X459201506Y-158441891D02*
X459233249Y-158441891D01*
X457876243Y-159299091D02*
X457876243Y-158965791D01*
X458066700Y-159299091D02*
X457923857Y-159108634D01*
X458066700Y-158965791D02*
X457876243Y-159156248D01*
X458336514Y-159283220D02*
X458304771Y-159299091D01*
X458304771Y-159299091D02*
X458241286Y-159299091D01*
X458241286Y-159299091D02*
X458209543Y-159283220D01*
X458209543Y-159283220D02*
X458193671Y-159251477D01*
X458193671Y-159251477D02*
X458193671Y-159124505D01*
X458193671Y-159124505D02*
X458209543Y-159092762D01*
X458209543Y-159092762D02*
X458241286Y-159076891D01*
X458241286Y-159076891D02*
X458304771Y-159076891D01*
X458304771Y-159076891D02*
X458336514Y-159092762D01*
X458336514Y-159092762D02*
X458352386Y-159124505D01*
X458352386Y-159124505D02*
X458352386Y-159156248D01*
X458352386Y-159156248D02*
X458193671Y-159187991D01*
X458622200Y-159283220D02*
X458590457Y-159299091D01*
X458590457Y-159299091D02*
X458526972Y-159299091D01*
X458526972Y-159299091D02*
X458495229Y-159283220D01*
X458495229Y-159283220D02*
X458479357Y-159251477D01*
X458479357Y-159251477D02*
X458479357Y-159124505D01*
X458479357Y-159124505D02*
X458495229Y-159092762D01*
X458495229Y-159092762D02*
X458526972Y-159076891D01*
X458526972Y-159076891D02*
X458590457Y-159076891D01*
X458590457Y-159076891D02*
X458622200Y-159092762D01*
X458622200Y-159092762D02*
X458638072Y-159124505D01*
X458638072Y-159124505D02*
X458638072Y-159156248D01*
X458638072Y-159156248D02*
X458479357Y-159187991D01*
X458780915Y-159076891D02*
X458780915Y-159410191D01*
X458780915Y-159092762D02*
X458812658Y-159076891D01*
X458812658Y-159076891D02*
X458876143Y-159076891D01*
X458876143Y-159076891D02*
X458907886Y-159092762D01*
X458907886Y-159092762D02*
X458923758Y-159108634D01*
X458923758Y-159108634D02*
X458939629Y-159140377D01*
X458939629Y-159140377D02*
X458939629Y-159235605D01*
X458939629Y-159235605D02*
X458923758Y-159267348D01*
X458923758Y-159267348D02*
X458907886Y-159283220D01*
X458907886Y-159283220D02*
X458876143Y-159299091D01*
X458876143Y-159299091D02*
X458812658Y-159299091D01*
X458812658Y-159299091D02*
X458780915Y-159283220D01*
X458122250Y-159600791D02*
X458185736Y-159600791D01*
X458185736Y-159600791D02*
X458217479Y-159616662D01*
X458217479Y-159616662D02*
X458249222Y-159648405D01*
X458249222Y-159648405D02*
X458265093Y-159711891D01*
X458265093Y-159711891D02*
X458265093Y-159822991D01*
X458265093Y-159822991D02*
X458249222Y-159886477D01*
X458249222Y-159886477D02*
X458217479Y-159918220D01*
X458217479Y-159918220D02*
X458185736Y-159934091D01*
X458185736Y-159934091D02*
X458122250Y-159934091D01*
X458122250Y-159934091D02*
X458090508Y-159918220D01*
X458090508Y-159918220D02*
X458058765Y-159886477D01*
X458058765Y-159886477D02*
X458042893Y-159822991D01*
X458042893Y-159822991D02*
X458042893Y-159711891D01*
X458042893Y-159711891D02*
X458058765Y-159648405D01*
X458058765Y-159648405D02*
X458090508Y-159616662D01*
X458090508Y-159616662D02*
X458122250Y-159600791D01*
X458550779Y-159711891D02*
X458550779Y-159934091D01*
X458407936Y-159711891D02*
X458407936Y-159886477D01*
X458407936Y-159886477D02*
X458423807Y-159918220D01*
X458423807Y-159918220D02*
X458455550Y-159934091D01*
X458455550Y-159934091D02*
X458503164Y-159934091D01*
X458503164Y-159934091D02*
X458534907Y-159918220D01*
X458534907Y-159918220D02*
X458550779Y-159902348D01*
X458661878Y-159711891D02*
X458788850Y-159711891D01*
X458709493Y-159600791D02*
X458709493Y-159886477D01*
X458709493Y-159886477D02*
X458725364Y-159918220D01*
X458725364Y-159918220D02*
X458757107Y-159934091D01*
X458757107Y-159934091D02*
X458788850Y-159934091D01*
X457318072Y-169824505D02*
X457429172Y-169824505D01*
X457476786Y-169999091D02*
X457318072Y-169999091D01*
X457318072Y-169999091D02*
X457318072Y-169665791D01*
X457318072Y-169665791D02*
X457476786Y-169665791D01*
X457587886Y-169999091D02*
X457762472Y-169776891D01*
X457587886Y-169776891D02*
X457762472Y-169999091D01*
X457889443Y-169776891D02*
X457889443Y-170110191D01*
X457889443Y-169792762D02*
X457921186Y-169776891D01*
X457921186Y-169776891D02*
X457984671Y-169776891D01*
X457984671Y-169776891D02*
X458016414Y-169792762D01*
X458016414Y-169792762D02*
X458032286Y-169808634D01*
X458032286Y-169808634D02*
X458048157Y-169840377D01*
X458048157Y-169840377D02*
X458048157Y-169935605D01*
X458048157Y-169935605D02*
X458032286Y-169967348D01*
X458032286Y-169967348D02*
X458016414Y-169983220D01*
X458016414Y-169983220D02*
X457984671Y-169999091D01*
X457984671Y-169999091D02*
X457921186Y-169999091D01*
X457921186Y-169999091D02*
X457889443Y-169983220D01*
X458238614Y-169999091D02*
X458206871Y-169983220D01*
X458206871Y-169983220D02*
X458191000Y-169967348D01*
X458191000Y-169967348D02*
X458175128Y-169935605D01*
X458175128Y-169935605D02*
X458175128Y-169840377D01*
X458175128Y-169840377D02*
X458191000Y-169808634D01*
X458191000Y-169808634D02*
X458206871Y-169792762D01*
X458206871Y-169792762D02*
X458238614Y-169776891D01*
X458238614Y-169776891D02*
X458286228Y-169776891D01*
X458286228Y-169776891D02*
X458317971Y-169792762D01*
X458317971Y-169792762D02*
X458333843Y-169808634D01*
X458333843Y-169808634D02*
X458349714Y-169840377D01*
X458349714Y-169840377D02*
X458349714Y-169935605D01*
X458349714Y-169935605D02*
X458333843Y-169967348D01*
X458333843Y-169967348D02*
X458317971Y-169983220D01*
X458317971Y-169983220D02*
X458286228Y-169999091D01*
X458286228Y-169999091D02*
X458238614Y-169999091D01*
X458476685Y-169983220D02*
X458508428Y-169999091D01*
X458508428Y-169999091D02*
X458571914Y-169999091D01*
X458571914Y-169999091D02*
X458603657Y-169983220D01*
X458603657Y-169983220D02*
X458619528Y-169951477D01*
X458619528Y-169951477D02*
X458619528Y-169935605D01*
X458619528Y-169935605D02*
X458603657Y-169903862D01*
X458603657Y-169903862D02*
X458571914Y-169887991D01*
X458571914Y-169887991D02*
X458524300Y-169887991D01*
X458524300Y-169887991D02*
X458492557Y-169872120D01*
X458492557Y-169872120D02*
X458476685Y-169840377D01*
X458476685Y-169840377D02*
X458476685Y-169824505D01*
X458476685Y-169824505D02*
X458492557Y-169792762D01*
X458492557Y-169792762D02*
X458524300Y-169776891D01*
X458524300Y-169776891D02*
X458571914Y-169776891D01*
X458571914Y-169776891D02*
X458603657Y-169792762D01*
X458889342Y-169983220D02*
X458857599Y-169999091D01*
X458857599Y-169999091D02*
X458794114Y-169999091D01*
X458794114Y-169999091D02*
X458762371Y-169983220D01*
X458762371Y-169983220D02*
X458746499Y-169951477D01*
X458746499Y-169951477D02*
X458746499Y-169824505D01*
X458746499Y-169824505D02*
X458762371Y-169792762D01*
X458762371Y-169792762D02*
X458794114Y-169776891D01*
X458794114Y-169776891D02*
X458857599Y-169776891D01*
X458857599Y-169776891D02*
X458889342Y-169792762D01*
X458889342Y-169792762D02*
X458905214Y-169824505D01*
X458905214Y-169824505D02*
X458905214Y-169856248D01*
X458905214Y-169856248D02*
X458746499Y-169887991D01*
X459190900Y-169999091D02*
X459190900Y-169665791D01*
X459190900Y-169983220D02*
X459159157Y-169999091D01*
X459159157Y-169999091D02*
X459095671Y-169999091D01*
X459095671Y-169999091D02*
X459063928Y-169983220D01*
X459063928Y-169983220D02*
X459048057Y-169967348D01*
X459048057Y-169967348D02*
X459032185Y-169935605D01*
X459032185Y-169935605D02*
X459032185Y-169840377D01*
X459032185Y-169840377D02*
X459048057Y-169808634D01*
X459048057Y-169808634D02*
X459063928Y-169792762D01*
X459063928Y-169792762D02*
X459095671Y-169776891D01*
X459095671Y-169776891D02*
X459159157Y-169776891D01*
X459159157Y-169776891D02*
X459190900Y-169792762D01*
X459794014Y-169967348D02*
X459778142Y-169983220D01*
X459778142Y-169983220D02*
X459730528Y-169999091D01*
X459730528Y-169999091D02*
X459698785Y-169999091D01*
X459698785Y-169999091D02*
X459651171Y-169983220D01*
X459651171Y-169983220D02*
X459619428Y-169951477D01*
X459619428Y-169951477D02*
X459603557Y-169919734D01*
X459603557Y-169919734D02*
X459587685Y-169856248D01*
X459587685Y-169856248D02*
X459587685Y-169808634D01*
X459587685Y-169808634D02*
X459603557Y-169745148D01*
X459603557Y-169745148D02*
X459619428Y-169713405D01*
X459619428Y-169713405D02*
X459651171Y-169681662D01*
X459651171Y-169681662D02*
X459698785Y-169665791D01*
X459698785Y-169665791D02*
X459730528Y-169665791D01*
X459730528Y-169665791D02*
X459778142Y-169681662D01*
X459778142Y-169681662D02*
X459794014Y-169697534D01*
X459984471Y-169999091D02*
X459952728Y-169983220D01*
X459952728Y-169983220D02*
X459936857Y-169967348D01*
X459936857Y-169967348D02*
X459920985Y-169935605D01*
X459920985Y-169935605D02*
X459920985Y-169840377D01*
X459920985Y-169840377D02*
X459936857Y-169808634D01*
X459936857Y-169808634D02*
X459952728Y-169792762D01*
X459952728Y-169792762D02*
X459984471Y-169776891D01*
X459984471Y-169776891D02*
X460032085Y-169776891D01*
X460032085Y-169776891D02*
X460063828Y-169792762D01*
X460063828Y-169792762D02*
X460079700Y-169808634D01*
X460079700Y-169808634D02*
X460095571Y-169840377D01*
X460095571Y-169840377D02*
X460095571Y-169935605D01*
X460095571Y-169935605D02*
X460079700Y-169967348D01*
X460079700Y-169967348D02*
X460063828Y-169983220D01*
X460063828Y-169983220D02*
X460032085Y-169999091D01*
X460032085Y-169999091D02*
X459984471Y-169999091D01*
X460238414Y-169776891D02*
X460238414Y-170110191D01*
X460238414Y-169792762D02*
X460270157Y-169776891D01*
X460270157Y-169776891D02*
X460333642Y-169776891D01*
X460333642Y-169776891D02*
X460365385Y-169792762D01*
X460365385Y-169792762D02*
X460381257Y-169808634D01*
X460381257Y-169808634D02*
X460397128Y-169840377D01*
X460397128Y-169840377D02*
X460397128Y-169935605D01*
X460397128Y-169935605D02*
X460381257Y-169967348D01*
X460381257Y-169967348D02*
X460365385Y-169983220D01*
X460365385Y-169983220D02*
X460333642Y-169999091D01*
X460333642Y-169999091D02*
X460270157Y-169999091D01*
X460270157Y-169999091D02*
X460238414Y-169983220D01*
X460539971Y-169776891D02*
X460539971Y-170110191D01*
X460539971Y-169792762D02*
X460571714Y-169776891D01*
X460571714Y-169776891D02*
X460635199Y-169776891D01*
X460635199Y-169776891D02*
X460666942Y-169792762D01*
X460666942Y-169792762D02*
X460682814Y-169808634D01*
X460682814Y-169808634D02*
X460698685Y-169840377D01*
X460698685Y-169840377D02*
X460698685Y-169935605D01*
X460698685Y-169935605D02*
X460682814Y-169967348D01*
X460682814Y-169967348D02*
X460666942Y-169983220D01*
X460666942Y-169983220D02*
X460635199Y-169999091D01*
X460635199Y-169999091D02*
X460571714Y-169999091D01*
X460571714Y-169999091D02*
X460539971Y-169983220D01*
X460968499Y-169983220D02*
X460936756Y-169999091D01*
X460936756Y-169999091D02*
X460873271Y-169999091D01*
X460873271Y-169999091D02*
X460841528Y-169983220D01*
X460841528Y-169983220D02*
X460825656Y-169951477D01*
X460825656Y-169951477D02*
X460825656Y-169824505D01*
X460825656Y-169824505D02*
X460841528Y-169792762D01*
X460841528Y-169792762D02*
X460873271Y-169776891D01*
X460873271Y-169776891D02*
X460936756Y-169776891D01*
X460936756Y-169776891D02*
X460968499Y-169792762D01*
X460968499Y-169792762D02*
X460984371Y-169824505D01*
X460984371Y-169824505D02*
X460984371Y-169856248D01*
X460984371Y-169856248D02*
X460825656Y-169887991D01*
X461127214Y-169999091D02*
X461127214Y-169776891D01*
X461127214Y-169840377D02*
X461143085Y-169808634D01*
X461143085Y-169808634D02*
X461158957Y-169792762D01*
X461158957Y-169792762D02*
X461190699Y-169776891D01*
X461190699Y-169776891D02*
X461222442Y-169776891D01*
X461587486Y-169999091D02*
X461587486Y-169665791D01*
X461777943Y-169999091D02*
X461635100Y-169808634D01*
X461777943Y-169665791D02*
X461587486Y-169856248D01*
X462047757Y-169983220D02*
X462016014Y-169999091D01*
X462016014Y-169999091D02*
X461952529Y-169999091D01*
X461952529Y-169999091D02*
X461920786Y-169983220D01*
X461920786Y-169983220D02*
X461904914Y-169951477D01*
X461904914Y-169951477D02*
X461904914Y-169824505D01*
X461904914Y-169824505D02*
X461920786Y-169792762D01*
X461920786Y-169792762D02*
X461952529Y-169776891D01*
X461952529Y-169776891D02*
X462016014Y-169776891D01*
X462016014Y-169776891D02*
X462047757Y-169792762D01*
X462047757Y-169792762D02*
X462063629Y-169824505D01*
X462063629Y-169824505D02*
X462063629Y-169856248D01*
X462063629Y-169856248D02*
X461904914Y-169887991D01*
X462333443Y-169983220D02*
X462301700Y-169999091D01*
X462301700Y-169999091D02*
X462238215Y-169999091D01*
X462238215Y-169999091D02*
X462206472Y-169983220D01*
X462206472Y-169983220D02*
X462190600Y-169951477D01*
X462190600Y-169951477D02*
X462190600Y-169824505D01*
X462190600Y-169824505D02*
X462206472Y-169792762D01*
X462206472Y-169792762D02*
X462238215Y-169776891D01*
X462238215Y-169776891D02*
X462301700Y-169776891D01*
X462301700Y-169776891D02*
X462333443Y-169792762D01*
X462333443Y-169792762D02*
X462349315Y-169824505D01*
X462349315Y-169824505D02*
X462349315Y-169856248D01*
X462349315Y-169856248D02*
X462190600Y-169887991D01*
X462492158Y-169776891D02*
X462492158Y-170110191D01*
X462492158Y-169792762D02*
X462523901Y-169776891D01*
X462523901Y-169776891D02*
X462587386Y-169776891D01*
X462587386Y-169776891D02*
X462619129Y-169792762D01*
X462619129Y-169792762D02*
X462635001Y-169808634D01*
X462635001Y-169808634D02*
X462650872Y-169840377D01*
X462650872Y-169840377D02*
X462650872Y-169935605D01*
X462650872Y-169935605D02*
X462635001Y-169967348D01*
X462635001Y-169967348D02*
X462619129Y-169983220D01*
X462619129Y-169983220D02*
X462587386Y-169999091D01*
X462587386Y-169999091D02*
X462523901Y-169999091D01*
X462523901Y-169999091D02*
X462492158Y-169983220D01*
X463111143Y-169665791D02*
X463174629Y-169665791D01*
X463174629Y-169665791D02*
X463206372Y-169681662D01*
X463206372Y-169681662D02*
X463238115Y-169713405D01*
X463238115Y-169713405D02*
X463253986Y-169776891D01*
X463253986Y-169776891D02*
X463253986Y-169887991D01*
X463253986Y-169887991D02*
X463238115Y-169951477D01*
X463238115Y-169951477D02*
X463206372Y-169983220D01*
X463206372Y-169983220D02*
X463174629Y-169999091D01*
X463174629Y-169999091D02*
X463111143Y-169999091D01*
X463111143Y-169999091D02*
X463079401Y-169983220D01*
X463079401Y-169983220D02*
X463047658Y-169951477D01*
X463047658Y-169951477D02*
X463031786Y-169887991D01*
X463031786Y-169887991D02*
X463031786Y-169776891D01*
X463031786Y-169776891D02*
X463047658Y-169713405D01*
X463047658Y-169713405D02*
X463079401Y-169681662D01*
X463079401Y-169681662D02*
X463111143Y-169665791D01*
X463539672Y-169776891D02*
X463539672Y-169999091D01*
X463396829Y-169776891D02*
X463396829Y-169951477D01*
X463396829Y-169951477D02*
X463412700Y-169983220D01*
X463412700Y-169983220D02*
X463444443Y-169999091D01*
X463444443Y-169999091D02*
X463492057Y-169999091D01*
X463492057Y-169999091D02*
X463523800Y-169983220D01*
X463523800Y-169983220D02*
X463539672Y-169967348D01*
X463650771Y-169776891D02*
X463777743Y-169776891D01*
X463698386Y-169665791D02*
X463698386Y-169951477D01*
X463698386Y-169951477D02*
X463714257Y-169983220D01*
X463714257Y-169983220D02*
X463746000Y-169999091D01*
X463746000Y-169999091D02*
X463777743Y-169999091D01*
D12*
X462564552Y-158646546D02*
X462564552Y-158408451D01*
X462707409Y-158694165D02*
X462207409Y-158527499D01*
X462207409Y-158527499D02*
X462707409Y-158360832D01*
X462231219Y-157932261D02*
X462207409Y-157979880D01*
X462207409Y-157979880D02*
X462207409Y-158051309D01*
X462207409Y-158051309D02*
X462231219Y-158122737D01*
X462231219Y-158122737D02*
X462278838Y-158170356D01*
X462278838Y-158170356D02*
X462326457Y-158194166D01*
X462326457Y-158194166D02*
X462421695Y-158217975D01*
X462421695Y-158217975D02*
X462493123Y-158217975D01*
X462493123Y-158217975D02*
X462588361Y-158194166D01*
X462588361Y-158194166D02*
X462635980Y-158170356D01*
X462635980Y-158170356D02*
X462683600Y-158122737D01*
X462683600Y-158122737D02*
X462707409Y-158051309D01*
X462707409Y-158051309D02*
X462707409Y-158003690D01*
X462707409Y-158003690D02*
X462683600Y-157932261D01*
X462683600Y-157932261D02*
X462659790Y-157908452D01*
X462659790Y-157908452D02*
X462493123Y-157908452D01*
X462493123Y-157908452D02*
X462493123Y-158003690D01*
X462707409Y-157694166D02*
X462207409Y-157694166D01*
X462207409Y-157694166D02*
X462707409Y-157408452D01*
X462707409Y-157408452D02*
X462207409Y-157408452D01*
X462707409Y-157170356D02*
X462207409Y-157170356D01*
X462207409Y-157170356D02*
X462207409Y-157051308D01*
X462207409Y-157051308D02*
X462231219Y-156979880D01*
X462231219Y-156979880D02*
X462278838Y-156932261D01*
X462278838Y-156932261D02*
X462326457Y-156908451D01*
X462326457Y-156908451D02*
X462421695Y-156884642D01*
X462421695Y-156884642D02*
X462493123Y-156884642D01*
X462493123Y-156884642D02*
X462588361Y-156908451D01*
X462588361Y-156908451D02*
X462635980Y-156932261D01*
X462635980Y-156932261D02*
X462683600Y-156979880D01*
X462683600Y-156979880D02*
X462707409Y-157051308D01*
X462707409Y-157051308D02*
X462707409Y-157170356D01*
X462707409Y-156289404D02*
X462207409Y-156289404D01*
X462207409Y-156289404D02*
X462207409Y-156098928D01*
X462207409Y-156098928D02*
X462231219Y-156051309D01*
X462231219Y-156051309D02*
X462255028Y-156027499D01*
X462255028Y-156027499D02*
X462302647Y-156003690D01*
X462302647Y-156003690D02*
X462374076Y-156003690D01*
X462374076Y-156003690D02*
X462421695Y-156027499D01*
X462421695Y-156027499D02*
X462445504Y-156051309D01*
X462445504Y-156051309D02*
X462469314Y-156098928D01*
X462469314Y-156098928D02*
X462469314Y-156289404D01*
X462707409Y-155717975D02*
X462683600Y-155765594D01*
X462683600Y-155765594D02*
X462635980Y-155789404D01*
X462635980Y-155789404D02*
X462207409Y-155789404D01*
X462707409Y-155313213D02*
X462445504Y-155313213D01*
X462445504Y-155313213D02*
X462397885Y-155337023D01*
X462397885Y-155337023D02*
X462374076Y-155384642D01*
X462374076Y-155384642D02*
X462374076Y-155479880D01*
X462374076Y-155479880D02*
X462397885Y-155527499D01*
X462683600Y-155313213D02*
X462707409Y-155360832D01*
X462707409Y-155360832D02*
X462707409Y-155479880D01*
X462707409Y-155479880D02*
X462683600Y-155527499D01*
X462683600Y-155527499D02*
X462635980Y-155551308D01*
X462635980Y-155551308D02*
X462588361Y-155551308D01*
X462588361Y-155551308D02*
X462540742Y-155527499D01*
X462540742Y-155527499D02*
X462516933Y-155479880D01*
X462516933Y-155479880D02*
X462516933Y-155360832D01*
X462516933Y-155360832D02*
X462493123Y-155313213D01*
X462374076Y-155075118D02*
X462707409Y-155075118D01*
X462421695Y-155075118D02*
X462397885Y-155051308D01*
X462397885Y-155051308D02*
X462374076Y-155003689D01*
X462374076Y-155003689D02*
X462374076Y-154932261D01*
X462374076Y-154932261D02*
X462397885Y-154884642D01*
X462397885Y-154884642D02*
X462445504Y-154860832D01*
X462445504Y-154860832D02*
X462707409Y-154860832D01*
X462683600Y-154432261D02*
X462707409Y-154479880D01*
X462707409Y-154479880D02*
X462707409Y-154575118D01*
X462707409Y-154575118D02*
X462683600Y-154622737D01*
X462683600Y-154622737D02*
X462635980Y-154646546D01*
X462635980Y-154646546D02*
X462445504Y-154646546D01*
X462445504Y-154646546D02*
X462397885Y-154622737D01*
X462397885Y-154622737D02*
X462374076Y-154575118D01*
X462374076Y-154575118D02*
X462374076Y-154479880D01*
X462374076Y-154479880D02*
X462397885Y-154432261D01*
X462397885Y-154432261D02*
X462445504Y-154408451D01*
X462445504Y-154408451D02*
X462493123Y-154408451D01*
X462493123Y-154408451D02*
X462540742Y-154646546D01*
D10*
X406789285Y-189875319D02*
X406789285Y-188875319D01*
X406789285Y-188875319D02*
X407122618Y-189589604D01*
X407122618Y-189589604D02*
X407455951Y-188875319D01*
X407455951Y-188875319D02*
X407455951Y-189875319D01*
X407836904Y-188875319D02*
X408503570Y-189875319D01*
X408503570Y-188875319D02*
X407836904Y-189875319D01*
X408646428Y-189970557D02*
X409408332Y-189970557D01*
X409598809Y-189827700D02*
X409694047Y-189875319D01*
X409694047Y-189875319D02*
X409884523Y-189875319D01*
X409884523Y-189875319D02*
X409979761Y-189827700D01*
X409979761Y-189827700D02*
X410027380Y-189732461D01*
X410027380Y-189732461D02*
X410027380Y-189684842D01*
X410027380Y-189684842D02*
X409979761Y-189589604D01*
X409979761Y-189589604D02*
X409884523Y-189541985D01*
X409884523Y-189541985D02*
X409741666Y-189541985D01*
X409741666Y-189541985D02*
X409646428Y-189494366D01*
X409646428Y-189494366D02*
X409598809Y-189399128D01*
X409598809Y-189399128D02*
X409598809Y-189351509D01*
X409598809Y-189351509D02*
X409646428Y-189256271D01*
X409646428Y-189256271D02*
X409741666Y-189208652D01*
X409741666Y-189208652D02*
X409884523Y-189208652D01*
X409884523Y-189208652D02*
X409979761Y-189256271D01*
X410313095Y-189208652D02*
X410694047Y-189208652D01*
X410455952Y-188875319D02*
X410455952Y-189732461D01*
X410455952Y-189732461D02*
X410503571Y-189827700D01*
X410503571Y-189827700D02*
X410598809Y-189875319D01*
X410598809Y-189875319D02*
X410694047Y-189875319D01*
X411455952Y-189875319D02*
X411455952Y-189351509D01*
X411455952Y-189351509D02*
X411408333Y-189256271D01*
X411408333Y-189256271D02*
X411313095Y-189208652D01*
X411313095Y-189208652D02*
X411122619Y-189208652D01*
X411122619Y-189208652D02*
X411027381Y-189256271D01*
X411455952Y-189827700D02*
X411360714Y-189875319D01*
X411360714Y-189875319D02*
X411122619Y-189875319D01*
X411122619Y-189875319D02*
X411027381Y-189827700D01*
X411027381Y-189827700D02*
X410979762Y-189732461D01*
X410979762Y-189732461D02*
X410979762Y-189637223D01*
X410979762Y-189637223D02*
X411027381Y-189541985D01*
X411027381Y-189541985D02*
X411122619Y-189494366D01*
X411122619Y-189494366D02*
X411360714Y-189494366D01*
X411360714Y-189494366D02*
X411455952Y-189446747D01*
X411932143Y-189875319D02*
X411932143Y-188875319D01*
X411932143Y-189256271D02*
X412027381Y-189208652D01*
X412027381Y-189208652D02*
X412217857Y-189208652D01*
X412217857Y-189208652D02*
X412313095Y-189256271D01*
X412313095Y-189256271D02*
X412360714Y-189303890D01*
X412360714Y-189303890D02*
X412408333Y-189399128D01*
X412408333Y-189399128D02*
X412408333Y-189684842D01*
X412408333Y-189684842D02*
X412360714Y-189780080D01*
X412360714Y-189780080D02*
X412313095Y-189827700D01*
X412313095Y-189827700D02*
X412217857Y-189875319D01*
X412217857Y-189875319D02*
X412027381Y-189875319D01*
X412027381Y-189875319D02*
X411932143Y-189827700D01*
X399645535Y-247025319D02*
X399645535Y-246025319D01*
X399645535Y-246025319D02*
X399978868Y-246739604D01*
X399978868Y-246739604D02*
X400312201Y-246025319D01*
X400312201Y-246025319D02*
X400312201Y-247025319D01*
X400693154Y-246025319D02*
X401359820Y-247025319D01*
X401359820Y-246025319D02*
X400693154Y-247025319D01*
X401502678Y-247120557D02*
X402264582Y-247120557D01*
X402455059Y-246977700D02*
X402550297Y-247025319D01*
X402550297Y-247025319D02*
X402740773Y-247025319D01*
X402740773Y-247025319D02*
X402836011Y-246977700D01*
X402836011Y-246977700D02*
X402883630Y-246882461D01*
X402883630Y-246882461D02*
X402883630Y-246834842D01*
X402883630Y-246834842D02*
X402836011Y-246739604D01*
X402836011Y-246739604D02*
X402740773Y-246691985D01*
X402740773Y-246691985D02*
X402597916Y-246691985D01*
X402597916Y-246691985D02*
X402502678Y-246644366D01*
X402502678Y-246644366D02*
X402455059Y-246549128D01*
X402455059Y-246549128D02*
X402455059Y-246501509D01*
X402455059Y-246501509D02*
X402502678Y-246406271D01*
X402502678Y-246406271D02*
X402597916Y-246358652D01*
X402597916Y-246358652D02*
X402740773Y-246358652D01*
X402740773Y-246358652D02*
X402836011Y-246406271D01*
X403169345Y-246358652D02*
X403550297Y-246358652D01*
X403312202Y-246025319D02*
X403312202Y-246882461D01*
X403312202Y-246882461D02*
X403359821Y-246977700D01*
X403359821Y-246977700D02*
X403455059Y-247025319D01*
X403455059Y-247025319D02*
X403550297Y-247025319D01*
X404312202Y-247025319D02*
X404312202Y-246501509D01*
X404312202Y-246501509D02*
X404264583Y-246406271D01*
X404264583Y-246406271D02*
X404169345Y-246358652D01*
X404169345Y-246358652D02*
X403978869Y-246358652D01*
X403978869Y-246358652D02*
X403883631Y-246406271D01*
X404312202Y-246977700D02*
X404216964Y-247025319D01*
X404216964Y-247025319D02*
X403978869Y-247025319D01*
X403978869Y-247025319D02*
X403883631Y-246977700D01*
X403883631Y-246977700D02*
X403836012Y-246882461D01*
X403836012Y-246882461D02*
X403836012Y-246787223D01*
X403836012Y-246787223D02*
X403883631Y-246691985D01*
X403883631Y-246691985D02*
X403978869Y-246644366D01*
X403978869Y-246644366D02*
X404216964Y-246644366D01*
X404216964Y-246644366D02*
X404312202Y-246596747D01*
X404788393Y-247025319D02*
X404788393Y-246025319D01*
X404788393Y-246406271D02*
X404883631Y-246358652D01*
X404883631Y-246358652D02*
X405074107Y-246358652D01*
X405074107Y-246358652D02*
X405169345Y-246406271D01*
X405169345Y-246406271D02*
X405216964Y-246453890D01*
X405216964Y-246453890D02*
X405264583Y-246549128D01*
X405264583Y-246549128D02*
X405264583Y-246834842D01*
X405264583Y-246834842D02*
X405216964Y-246930080D01*
X405216964Y-246930080D02*
X405169345Y-246977700D01*
X405169345Y-246977700D02*
X405074107Y-247025319D01*
X405074107Y-247025319D02*
X404883631Y-247025319D01*
X404883631Y-247025319D02*
X404788393Y-246977700D01*
X273439285Y-266075319D02*
X273439285Y-265075319D01*
X273439285Y-265075319D02*
X273772618Y-265789604D01*
X273772618Y-265789604D02*
X274105951Y-265075319D01*
X274105951Y-265075319D02*
X274105951Y-266075319D01*
X274486904Y-265075319D02*
X275153570Y-266075319D01*
X275153570Y-265075319D02*
X274486904Y-266075319D01*
X275296428Y-266170557D02*
X276058332Y-266170557D01*
X276248809Y-266027700D02*
X276344047Y-266075319D01*
X276344047Y-266075319D02*
X276534523Y-266075319D01*
X276534523Y-266075319D02*
X276629761Y-266027700D01*
X276629761Y-266027700D02*
X276677380Y-265932461D01*
X276677380Y-265932461D02*
X276677380Y-265884842D01*
X276677380Y-265884842D02*
X276629761Y-265789604D01*
X276629761Y-265789604D02*
X276534523Y-265741985D01*
X276534523Y-265741985D02*
X276391666Y-265741985D01*
X276391666Y-265741985D02*
X276296428Y-265694366D01*
X276296428Y-265694366D02*
X276248809Y-265599128D01*
X276248809Y-265599128D02*
X276248809Y-265551509D01*
X276248809Y-265551509D02*
X276296428Y-265456271D01*
X276296428Y-265456271D02*
X276391666Y-265408652D01*
X276391666Y-265408652D02*
X276534523Y-265408652D01*
X276534523Y-265408652D02*
X276629761Y-265456271D01*
X276963095Y-265408652D02*
X277344047Y-265408652D01*
X277105952Y-265075319D02*
X277105952Y-265932461D01*
X277105952Y-265932461D02*
X277153571Y-266027700D01*
X277153571Y-266027700D02*
X277248809Y-266075319D01*
X277248809Y-266075319D02*
X277344047Y-266075319D01*
X278105952Y-266075319D02*
X278105952Y-265551509D01*
X278105952Y-265551509D02*
X278058333Y-265456271D01*
X278058333Y-265456271D02*
X277963095Y-265408652D01*
X277963095Y-265408652D02*
X277772619Y-265408652D01*
X277772619Y-265408652D02*
X277677381Y-265456271D01*
X278105952Y-266027700D02*
X278010714Y-266075319D01*
X278010714Y-266075319D02*
X277772619Y-266075319D01*
X277772619Y-266075319D02*
X277677381Y-266027700D01*
X277677381Y-266027700D02*
X277629762Y-265932461D01*
X277629762Y-265932461D02*
X277629762Y-265837223D01*
X277629762Y-265837223D02*
X277677381Y-265741985D01*
X277677381Y-265741985D02*
X277772619Y-265694366D01*
X277772619Y-265694366D02*
X278010714Y-265694366D01*
X278010714Y-265694366D02*
X278105952Y-265646747D01*
X278582143Y-266075319D02*
X278582143Y-265075319D01*
X278582143Y-265456271D02*
X278677381Y-265408652D01*
X278677381Y-265408652D02*
X278867857Y-265408652D01*
X278867857Y-265408652D02*
X278963095Y-265456271D01*
X278963095Y-265456271D02*
X279010714Y-265503890D01*
X279010714Y-265503890D02*
X279058333Y-265599128D01*
X279058333Y-265599128D02*
X279058333Y-265884842D01*
X279058333Y-265884842D02*
X279010714Y-265980080D01*
X279010714Y-265980080D02*
X278963095Y-266027700D01*
X278963095Y-266027700D02*
X278867857Y-266075319D01*
X278867857Y-266075319D02*
X278677381Y-266075319D01*
X278677381Y-266075319D02*
X278582143Y-266027700D01*
%TO.C,Screw_Mount*%
X482000000Y-141900000D02*
G75*
G02*
X475600000Y-141900000I-3200000J0D01*
G01*
X475600000Y-141900000D02*
G75*
G02*
X482000000Y-141900000I3200000J0D01*
G01*
X140300000Y-141900000D02*
G75*
G02*
X133900000Y-141900000I-3200000J0D01*
G01*
X133900000Y-141900000D02*
G75*
G02*
X140300000Y-141900000I3200000J0D01*
G01*
X140300000Y-267700000D02*
G75*
G02*
X133900000Y-267700000I-3200000J0D01*
G01*
X133900000Y-267700000D02*
G75*
G02*
X140300000Y-267700000I3200000J0D01*
G01*
X482000000Y-267700000D02*
G75*
G02*
X475600000Y-267700000I-3200000J0D01*
G01*
X475600000Y-267700000D02*
G75*
G02*
X482000000Y-267700000I3200000J0D01*
G01*
%TD*%
M02*
