%TF.GenerationSoftware,KiCad,Pcbnew,10.0.5*%
%TF.CreationDate,2026-10-02T10:27:15-07:00*%
%TF.ProjectId,Custom Keyboard,43757374-6f6d-4204-9b65-79626f617264,rev?*%
%TF.SameCoordinates,Original*%
%TF.FileFunction,Other,User*%
%FSLAX46Y46*%
G04 Gerber Fmt 4.6, Leading zero omitted, Abs format (unit mm)*
G04 Created by KiCad (PCBNEW 10.0.5) date 2026-10-02 10:27:15*
%MOMM*%
%LPD*%
G01*
G04 APERTURE LIST*
%ADD10C,0.120000*%
%ADD11C,0.050000*%
G04 APERTURE END LIST*
%TO.C,MX2*%
D10*
X154400000Y-231457500D02*
G75*
G02*
X150400000Y-231457500I-2000000J0D01*
G01*
X150400000Y-231457500D02*
G75*
G02*
X154400000Y-231457500I2000000J0D01*
G01*
X178212500Y-231457500D02*
G75*
G02*
X174212500Y-231457500I-2000000J0D01*
G01*
X174212500Y-231457500D02*
G75*
G02*
X178212500Y-231457500I2000000J0D01*
G01*
%TO.C,MX3*%
X397287500Y-212407500D02*
G75*
G02*
X393287500Y-212407500I-2000000J0D01*
G01*
X393287500Y-212407500D02*
G75*
G02*
X397287500Y-212407500I2000000J0D01*
G01*
X421100000Y-212407500D02*
G75*
G02*
X417100000Y-212407500I-2000000J0D01*
G01*
X417100000Y-212407500D02*
G75*
G02*
X421100000Y-212407500I2000000J0D01*
G01*
%TO.C,MX5*%
X266318750Y-250507500D02*
G75*
G02*
X262318750Y-250507500I-2000000J0D01*
G01*
X262318750Y-250507500D02*
G75*
G02*
X266318750Y-250507500I2000000J0D01*
G01*
X290131250Y-250507500D02*
G75*
G02*
X286131250Y-250507500I-2000000J0D01*
G01*
X286131250Y-250507500D02*
G75*
G02*
X290131250Y-250507500I2000000J0D01*
G01*
X399668750Y-174307500D02*
G75*
G02*
X395668750Y-174307500I-2000000J0D01*
G01*
X395668750Y-174307500D02*
G75*
G02*
X399668750Y-174307500I2000000J0D01*
G01*
X423481250Y-174307500D02*
G75*
G02*
X419481250Y-174307500I-2000000J0D01*
G01*
X419481250Y-174307500D02*
G75*
G02*
X423481250Y-174307500I2000000J0D01*
G01*
%TO.C,MX4*%
X392525000Y-231457500D02*
G75*
G02*
X388525000Y-231457500I-2000000J0D01*
G01*
X388525000Y-231457500D02*
G75*
G02*
X392525000Y-231457500I2000000J0D01*
G01*
X416337500Y-231457500D02*
G75*
G02*
X412337500Y-231457500I-2000000J0D01*
G01*
X412337500Y-231457500D02*
G75*
G02*
X416337500Y-231457500I2000000J0D01*
G01*
%TO.C,RGB_LED23*%
D11*
X405950000Y-183637500D02*
X413250000Y-183637500D01*
X413250000Y-187377500D01*
X405950000Y-187377500D01*
X405950000Y-183637500D01*
%TO.C,RGB_LED61*%
X320225000Y-183680000D02*
X327525000Y-183680000D01*
X327525000Y-187420000D01*
X320225000Y-187420000D01*
X320225000Y-183680000D01*
%TO.C,RGB_LED27*%
X239262500Y-221780000D02*
X246562500Y-221780000D01*
X246562500Y-225520000D01*
X239262500Y-225520000D01*
X239262500Y-221780000D01*
%TO.C,RGB_LED53*%
X258300000Y-221737500D02*
X265600000Y-221737500D01*
X265600000Y-225477500D01*
X258300000Y-225477500D01*
X258300000Y-221737500D01*
%TO.C,RGB_LED8*%
X263075000Y-183680000D02*
X270375000Y-183680000D01*
X270375000Y-187420000D01*
X263075000Y-187420000D01*
X263075000Y-183680000D01*
%TO.C,RGB_LED36*%
X339275000Y-183680000D02*
X346575000Y-183680000D01*
X346575000Y-187420000D01*
X339275000Y-187420000D01*
X339275000Y-183680000D01*
%TO.C,RGB_LED57*%
X344037500Y-240830000D02*
X351337500Y-240830000D01*
X351337500Y-244570000D01*
X344037500Y-244570000D01*
X344037500Y-240830000D01*
%TO.C,RGB_LED5*%
X291650000Y-202737500D02*
X298950000Y-202737500D01*
X298950000Y-206477500D01*
X291650000Y-206477500D01*
X291650000Y-202737500D01*
%TO.C,RGB_LED18*%
X148775000Y-259880000D02*
X156075000Y-259880000D01*
X156075000Y-263620000D01*
X148775000Y-263620000D01*
X148775000Y-259880000D01*
%TO.C,RGB_LED9*%
X377350000Y-183737500D02*
X384650000Y-183737500D01*
X384650000Y-187477500D01*
X377350000Y-187477500D01*
X377350000Y-183737500D01*
%TO.C,RGB_LED33*%
X358325000Y-259880000D02*
X365625000Y-259880000D01*
X365625000Y-263620000D01*
X358325000Y-263620000D01*
X358325000Y-259880000D01*
%TO.C,RGB_LED11*%
X310650000Y-202837500D02*
X317950000Y-202837500D01*
X317950000Y-206577500D01*
X310650000Y-206577500D01*
X310650000Y-202837500D01*
%TO.C,RGB_LED19*%
X272600000Y-259880000D02*
X279900000Y-259880000D01*
X279900000Y-263620000D01*
X272600000Y-263620000D01*
X272600000Y-259880000D01*
%TO.C,RGB_LED39*%
X367850000Y-202730000D02*
X375150000Y-202730000D01*
X375150000Y-206470000D01*
X367850000Y-206470000D01*
X367850000Y-202730000D01*
%TO.C,RGB_LED16*%
X210650000Y-240837500D02*
X217950000Y-240837500D01*
X217950000Y-244577500D01*
X210650000Y-244577500D01*
X210650000Y-240837500D01*
%TO.C,RGB_LED4*%
X196400000Y-202730000D02*
X203700000Y-202730000D01*
X203700000Y-206470000D01*
X196400000Y-206470000D01*
X196400000Y-202730000D01*
%TO.C,RGB_LED34*%
X224975000Y-154787500D02*
X232275000Y-154787500D01*
X232275000Y-158527500D01*
X224975000Y-158527500D01*
X224975000Y-154787500D01*
%TO.C,RGB_LED58*%
X396450000Y-259937500D02*
X403750000Y-259937500D01*
X403750000Y-263677500D01*
X396450000Y-263677500D01*
X396450000Y-259937500D01*
%TO.C,RGB_LED45*%
X398825000Y-240580000D02*
X406125000Y-240580000D01*
X406125000Y-244320000D01*
X398825000Y-244320000D01*
X398825000Y-240580000D01*
%TO.C,RGB_LED63*%
X267837500Y-240830000D02*
X275137500Y-240830000D01*
X275137500Y-244570000D01*
X267837500Y-244570000D01*
X267837500Y-240830000D01*
%TO.C,C1*%
X211800000Y-255400000D02*
G75*
G02*
X203300000Y-255400000I-4250000J0D01*
G01*
X203300000Y-255400000D02*
G75*
G02*
X211800000Y-255400000I4250000J0D01*
G01*
%TO.C,RGB_LED44*%
X286887500Y-240830000D02*
X294187500Y-240830000D01*
X294187500Y-244570000D01*
X286887500Y-244570000D01*
X286887500Y-240830000D01*
%TO.C,RGB_LED50*%
X253550000Y-202730000D02*
X260850000Y-202730000D01*
X260850000Y-206470000D01*
X253550000Y-206470000D01*
X253550000Y-202730000D01*
%TO.C,RGB_LED41*%
X277362500Y-221780000D02*
X284662500Y-221780000D01*
X284662500Y-225520000D01*
X277362500Y-225520000D01*
X277362500Y-221780000D01*
%TO.C,RGB_LED56*%
X248787500Y-240830000D02*
X256087500Y-240830000D01*
X256087500Y-244570000D01*
X248787500Y-244570000D01*
X248787500Y-240830000D01*
%TO.C,RGB_LED52*%
X155850000Y-221837500D02*
X163150000Y-221837500D01*
X163150000Y-225577500D01*
X155850000Y-225577500D01*
X155850000Y-221837500D01*
%TO.C,RGB_LED32*%
X167825000Y-259880000D02*
X175125000Y-259880000D01*
X175125000Y-263620000D01*
X167825000Y-263620000D01*
X167825000Y-259880000D01*
%TO.C,RGB_LED6*%
X186875000Y-154787500D02*
X194175000Y-154787500D01*
X194175000Y-158527500D01*
X186875000Y-158527500D01*
X186875000Y-154787500D01*
%TO.C,RGB_LED47*%
X244025000Y-154787500D02*
X251325000Y-154787500D01*
X251325000Y-158527500D01*
X244025000Y-158527500D01*
X244025000Y-154787500D01*
%TO.C,RGB_LED24*%
X234500000Y-202730000D02*
X241800000Y-202730000D01*
X241800000Y-206470000D01*
X234500000Y-206470000D01*
X234500000Y-202730000D01*
%TO.C,RGB_LED1*%
X148775000Y-154787500D02*
X156075000Y-154787500D01*
X156075000Y-158527500D01*
X148775000Y-158527500D01*
X148775000Y-154787500D01*
%TO.C,RGB_LED12*%
X386900000Y-202730000D02*
X394200000Y-202730000D01*
X394200000Y-206470000D01*
X386900000Y-206470000D01*
X386900000Y-202730000D01*
%TO.C,RGB_LED35*%
X224975000Y-183680000D02*
X232275000Y-183680000D01*
X232275000Y-187420000D01*
X224975000Y-187420000D01*
X224975000Y-183680000D01*
%TO.C,RGB_LED30*%
X229737500Y-240830000D02*
X237037500Y-240830000D01*
X237037500Y-244570000D01*
X229737500Y-244570000D01*
X229737500Y-240830000D01*
%TO.C,RGB_LED20*%
X205925000Y-154787500D02*
X213225000Y-154787500D01*
X213225000Y-158527500D01*
X205925000Y-158527500D01*
X205925000Y-154787500D01*
%TO.C,RGB_LED42*%
X353562500Y-221780000D02*
X360862500Y-221780000D01*
X360862500Y-225520000D01*
X353562500Y-225520000D01*
X353562500Y-221780000D01*
%TO.C,RGB_LED7*%
X167825000Y-183680000D02*
X175125000Y-183680000D01*
X175125000Y-187420000D01*
X167825000Y-187420000D01*
X167825000Y-183680000D01*
%TO.C,RGB_LED55*%
X160681250Y-240830000D02*
X167981250Y-240830000D01*
X167981250Y-244570000D01*
X160681250Y-244570000D01*
X160681250Y-240830000D01*
%TO.C,RGB_LED31*%
X324987500Y-240830000D02*
X332287500Y-240830000D01*
X332287500Y-244570000D01*
X324987500Y-244570000D01*
X324987500Y-240830000D01*
%TO.C,RGB_LED15*%
X372612500Y-221780000D02*
X379912500Y-221780000D01*
X379912500Y-225520000D01*
X372612500Y-225520000D01*
X372612500Y-221780000D01*
%TO.C,RGB_LED48*%
X301175000Y-183680000D02*
X308475000Y-183680000D01*
X308475000Y-187420000D01*
X301175000Y-187420000D01*
X301175000Y-183680000D01*
%TO.C,RGB_LED37*%
X177350000Y-202730000D02*
X184650000Y-202730000D01*
X184650000Y-206470000D01*
X177350000Y-206470000D01*
X177350000Y-202730000D01*
%TO.C,RGB_LED49*%
X153500000Y-202837500D02*
X160800000Y-202837500D01*
X160800000Y-206577500D01*
X153500000Y-206577500D01*
X153500000Y-202837500D01*
%TO.C,RGB_LED2*%
X244025000Y-183680000D02*
X251325000Y-183680000D01*
X251325000Y-187420000D01*
X244025000Y-187420000D01*
X244025000Y-183680000D01*
%TO.C,RGB_LED26*%
X410650000Y-202737500D02*
X417950000Y-202737500D01*
X417950000Y-206477500D01*
X410650000Y-206477500D01*
X410650000Y-202737500D01*
%TO.C,RGB_LED17*%
X305937500Y-240830000D02*
X313237500Y-240830000D01*
X313237500Y-244570000D01*
X305937500Y-244570000D01*
X305937500Y-240830000D01*
%TO.C,RGB_LED3*%
X358350000Y-183737500D02*
X365650000Y-183737500D01*
X365650000Y-187477500D01*
X358350000Y-187477500D01*
X358350000Y-183737500D01*
%TO.C,RGB_LED66*%
X415475000Y-259880000D02*
X422775000Y-259880000D01*
X422775000Y-263620000D01*
X415475000Y-263620000D01*
X415475000Y-259880000D01*
%TO.C,RGB_LED64*%
X363087500Y-240830000D02*
X370387500Y-240830000D01*
X370387500Y-244570000D01*
X363087500Y-244570000D01*
X363087500Y-240830000D01*
%TO.C,RGB_LED29*%
X403650000Y-221737500D02*
X410950000Y-221737500D01*
X410950000Y-225477500D01*
X403650000Y-225477500D01*
X403650000Y-221737500D01*
%TO.C,RGB_LED25*%
X329750000Y-202730000D02*
X337050000Y-202730000D01*
X337050000Y-206470000D01*
X329750000Y-206470000D01*
X329750000Y-202730000D01*
%TO.C,RGB_LED51*%
X348800000Y-202730000D02*
X356100000Y-202730000D01*
X356100000Y-206470000D01*
X348800000Y-206470000D01*
X348800000Y-202730000D01*
%TO.C,RGB_LED13*%
X220212500Y-221780000D02*
X227512500Y-221780000D01*
X227512500Y-225520000D01*
X220212500Y-225520000D01*
X220212500Y-221780000D01*
%TO.C,RGB_LED22*%
X282125000Y-183680000D02*
X289425000Y-183680000D01*
X289425000Y-187420000D01*
X282125000Y-187420000D01*
X282125000Y-183680000D01*
%TO.C,RGB_LED14*%
X296412500Y-221780000D02*
X303712500Y-221780000D01*
X303712500Y-225520000D01*
X296412500Y-225520000D01*
X296412500Y-221780000D01*
%TO.C,RGB_LED60*%
X205925000Y-183680000D02*
X213225000Y-183680000D01*
X213225000Y-187420000D01*
X205925000Y-187420000D01*
X205925000Y-183680000D01*
%TO.C,RGB_LED46*%
X377375000Y-259880000D02*
X384675000Y-259880000D01*
X384675000Y-263620000D01*
X377375000Y-263620000D01*
X377375000Y-259880000D01*
%TO.C,RGB_LED62*%
X182112500Y-221780000D02*
X189412500Y-221780000D01*
X189412500Y-225520000D01*
X182112500Y-225520000D01*
X182112500Y-221780000D01*
%TO.C,RGB_LED28*%
X315462500Y-221780000D02*
X322762500Y-221780000D01*
X322762500Y-225520000D01*
X315462500Y-225520000D01*
X315462500Y-221780000D01*
%TO.C,RGB_LED54*%
X334512500Y-221780000D02*
X341812500Y-221780000D01*
X341812500Y-225520000D01*
X334512500Y-225520000D01*
X334512500Y-221780000D01*
%TO.C,RGB_LED21*%
X186875000Y-183680000D02*
X194175000Y-183680000D01*
X194175000Y-187420000D01*
X186875000Y-187420000D01*
X186875000Y-183680000D01*
%TO.C,RGB_LED65*%
X186850000Y-259837500D02*
X194150000Y-259837500D01*
X194150000Y-263577500D01*
X186850000Y-263577500D01*
X186850000Y-259837500D01*
%TO.C,RGB_LED59*%
X148775128Y-183737500D02*
X156075128Y-183737500D01*
X156075128Y-187477500D01*
X148775128Y-187477500D01*
X148775128Y-183737500D01*
%TO.C,RGB_LED43*%
X191637500Y-240830000D02*
X198937500Y-240830000D01*
X198937500Y-244570000D01*
X191637500Y-244570000D01*
X191637500Y-240830000D01*
%TO.C,RGB_LED40*%
X201162500Y-221780000D02*
X208462500Y-221780000D01*
X208462500Y-225520000D01*
X201162500Y-225520000D01*
X201162500Y-221780000D01*
%TO.C,RGB_LED38*%
X272600000Y-202730000D02*
X279900000Y-202730000D01*
X279900000Y-206470000D01*
X272600000Y-206470000D01*
X272600000Y-202730000D01*
%TO.C,RGB_LED10*%
X215450000Y-202730000D02*
X222750000Y-202730000D01*
X222750000Y-206470000D01*
X215450000Y-206470000D01*
X215450000Y-202730000D01*
%TD*%
M02*
