M48
; DRILL file KiCad 10.0.5 date 2026-10-02T10:27:09
; FORMAT={-:-/ absolute / metric / decimal}
; #@! TF.CreationDate,2026-10-02T10:27:09-07:00
; #@! TF.GenerationSoftware,Kicad,Pcbnew,10.0.5
; #@! TF.FileFunction,NonPlated,1,2,NPTH
FMAT,2
METRIC
; #@! TA.AperFunction,NonPlated,NPTH,ComponentDrill
T1C1.750
; #@! TA.AperFunction,NonPlated,NPTH,ComponentDrill
T2C1.850
; #@! TA.AperFunction,NonPlated,NPTH,ComponentDrill
T3C2.200
; #@! TA.AperFunction,NonPlated,NPTH,ComponentDrill
T4C3.048
; #@! TA.AperFunction,NonPlated,NPTH,ComponentDrill
T5C3.200
; #@! TA.AperFunction,NonPlated,NPTH,ComponentDrill
T6C3.988
%
G90
G05
T1
X147.328Y-152.377
X147.328Y-181.27
X147.328Y-257.47
X152.09Y-200.32
X154.472Y-219.37
X157.488Y-152.377
X157.488Y-181.27
X157.488Y-257.47
X159.234Y-238.42
X162.25Y-200.32
X164.632Y-219.37
X166.378Y-181.27
X166.378Y-257.47
X169.394Y-238.42
X175.903Y-200.32
X176.538Y-181.27
X176.538Y-257.47
X180.665Y-219.37
X185.428Y-152.377
X185.428Y-181.27
X185.428Y-257.47
X186.063Y-200.32
X190.19Y-238.42
X190.826Y-219.37
X194.953Y-200.32
X195.588Y-152.377
X195.588Y-181.27
X195.588Y-257.47
X199.715Y-219.37
X200.35Y-238.42
X204.478Y-152.377
X204.478Y-181.27
X205.113Y-200.32
X209.24Y-238.42
X209.875Y-219.37
X214.003Y-200.32
X214.638Y-152.377
X214.638Y-181.27
X218.766Y-219.37
X219.4Y-238.42
X223.528Y-152.377
X223.528Y-181.27
X224.163Y-200.32
X228.29Y-238.42
X228.925Y-219.37
X233.053Y-200.32
X233.688Y-152.377
X233.688Y-181.27
X237.815Y-219.37
X238.45Y-238.42
X242.578Y-152.377
X242.578Y-181.27
X243.213Y-200.32
X247.34Y-238.42
X247.975Y-219.37
X252.103Y-200.32
X252.738Y-152.377
X252.738Y-181.27
X256.865Y-219.37
X257.5Y-238.42
X261.628Y-181.27
X262.263Y-200.32
X266.39Y-238.42
X267.025Y-219.37
X271.153Y-200.32
X271.153Y-257.47
X271.788Y-181.27
X275.916Y-219.37
X276.55Y-238.42
X280.678Y-181.27
X281.313Y-200.32
X281.313Y-257.47
X285.44Y-238.42
X286.075Y-219.37
X290.203Y-200.32
X290.838Y-181.27
X294.965Y-219.37
X295.601Y-238.42
X299.728Y-181.27
X300.363Y-200.32
X304.49Y-238.42
X305.125Y-219.37
X309.253Y-200.32
X309.888Y-181.27
X314.015Y-219.37
X314.65Y-238.42
X318.778Y-181.27
X319.413Y-200.32
X323.541Y-238.42
X324.175Y-219.37
X328.303Y-200.32
X328.938Y-181.27
X333.065Y-219.37
X333.7Y-238.42
X337.828Y-181.27
X338.463Y-200.32
X342.59Y-238.42
X343.226Y-219.37
X347.353Y-200.32
X347.988Y-181.27
X352.115Y-219.37
X352.75Y-238.42
X356.878Y-181.27
X356.878Y-257.47
X357.513Y-200.32
X361.64Y-238.42
X362.275Y-219.37
X366.403Y-200.32
X367.038Y-181.27
X367.038Y-257.47
X371.166Y-219.37
X371.8Y-238.42
X375.928Y-181.27
X375.928Y-257.47
X376.563Y-200.32
X381.325Y-219.37
X385.453Y-200.32
X386.088Y-181.27
X386.088Y-257.47
X394.978Y-257.47
X395.613Y-200.32
X397.359Y-238.42
X402.122Y-219.37
X404.503Y-181.27
X405.138Y-257.47
X407.519Y-238.42
X409.265Y-200.32
X412.282Y-219.37
X414.028Y-257.47
X414.663Y-181.27
X419.425Y-200.32
X424.188Y-257.47
T2
X454.975Y-143.177
X459.825Y-143.177
T3
X454.675Y-140.147
X460.125Y-140.147
T4
X152.4Y-231.457
X176.213Y-231.457
X264.319Y-250.507
X288.131Y-250.507
X390.525Y-231.457
X395.287Y-212.407
X397.669Y-174.308
X414.337Y-231.457
X419.1Y-212.407
X421.481Y-174.308
T5
X137.1Y-141.9
X137.1Y-267.7
X148.658Y-149.727
X148.658Y-178.62
X148.658Y-254.82
X153.421Y-197.67
X155.108Y-147.127
X155.108Y-176.02
X155.108Y-252.22
X155.802Y-216.72
X159.87Y-195.07
X160.564Y-235.77
X162.252Y-214.12
X167.014Y-233.17
X167.708Y-178.62
X167.708Y-254.82
X174.158Y-176.02
X174.158Y-252.22
X177.233Y-197.67
X181.995Y-216.72
X183.683Y-195.07
X186.758Y-149.727
X186.758Y-178.62
X186.758Y-254.82
X188.445Y-214.12
X191.52Y-235.77
X193.208Y-147.127
X193.208Y-176.02
X193.208Y-252.22
X196.283Y-197.67
X197.97Y-233.17
X201.046Y-216.72
X202.733Y-195.07
X205.808Y-149.727
X205.808Y-178.62
X207.495Y-214.12
X210.57Y-235.77
X212.258Y-147.127
X212.258Y-176.02
X215.333Y-197.67
X217.02Y-233.17
X220.095Y-216.72
X221.783Y-195.07
X224.858Y-149.727
X224.858Y-178.62
X226.545Y-214.12
X229.62Y-235.77
X231.308Y-147.127
X231.308Y-176.02
X234.383Y-197.67
X236.07Y-233.17
X239.145Y-216.72
X240.833Y-195.07
X243.908Y-149.727
X243.908Y-178.62
X245.595Y-214.12
X248.67Y-235.77
X250.358Y-147.127
X250.358Y-176.02
X253.433Y-197.67
X255.12Y-233.17
X258.195Y-216.72
X259.883Y-195.07
X262.958Y-178.62
X264.645Y-214.12
X267.721Y-235.77
X269.408Y-176.02
X272.483Y-197.67
X272.483Y-254.82
X274.171Y-233.17
X277.245Y-216.72
X278.933Y-195.07
X278.933Y-252.22
X282.008Y-178.62
X283.695Y-214.12
X286.77Y-235.77
X288.458Y-176.02
X291.533Y-197.67
X293.22Y-233.17
X296.296Y-216.72
X297.983Y-195.07
X301.058Y-178.62
X302.745Y-214.12
X305.82Y-235.77
X307.508Y-176.02
X310.583Y-197.67
X312.27Y-233.17
X315.345Y-216.72
X317.033Y-195.07
X320.108Y-178.62
X321.796Y-214.12
X324.87Y-235.77
X326.558Y-176.02
X329.633Y-197.67
X331.32Y-233.17
X334.395Y-216.72
X336.083Y-195.07
X339.158Y-178.62
X340.845Y-214.12
X343.921Y-235.77
X345.608Y-176.02
X348.683Y-197.67
X350.37Y-233.17
X353.445Y-216.72
X355.133Y-195.07
X358.208Y-178.62
X358.208Y-254.82
X359.895Y-214.12
X362.97Y-235.77
X364.658Y-176.02
X364.658Y-252.22
X367.733Y-197.67
X369.421Y-233.17
X372.495Y-216.72
X374.183Y-195.07
X377.258Y-178.62
X377.258Y-254.82
X378.945Y-214.12
X383.708Y-176.02
X383.708Y-252.22
X386.783Y-197.67
X393.233Y-195.07
X396.308Y-254.82
X398.689Y-235.77
X402.758Y-252.22
X403.452Y-216.72
X405.139Y-233.17
X405.833Y-178.62
X409.902Y-214.12
X410.595Y-197.67
X412.283Y-176.02
X415.358Y-254.82
X417.046Y-195.07
X421.808Y-252.22
X478.8Y-141.9
X478.8Y-267.7
T6
X152.4Y-246.697
X152.408Y-152.377
X152.408Y-181.27
X152.408Y-257.47
X157.171Y-200.32
X159.552Y-219.37
X164.314Y-238.42
X171.458Y-181.27
X171.458Y-257.47
X176.213Y-246.697
X180.983Y-200.32
X185.745Y-219.37
X190.508Y-152.377
X190.508Y-181.27
X190.508Y-257.47
X195.27Y-238.42
X200.033Y-200.32
X204.796Y-219.37
X209.558Y-152.377
X209.558Y-181.27
X214.32Y-238.42
X219.083Y-200.32
X223.845Y-219.37
X226.219Y-265.748
X228.608Y-152.377
X228.608Y-181.27
X233.37Y-238.42
X238.133Y-200.32
X242.895Y-219.37
X247.658Y-152.377
X247.658Y-181.27
X252.42Y-238.42
X257.183Y-200.32
X261.945Y-219.37
X264.319Y-265.748
X266.708Y-181.27
X271.471Y-238.42
X276.233Y-200.32
X276.233Y-257.47
X280.995Y-219.37
X285.758Y-181.27
X288.131Y-265.748
X290.52Y-238.42
X295.283Y-200.32
X300.046Y-219.37
X304.808Y-181.27
X309.57Y-238.42
X314.333Y-200.32
X319.095Y-219.37
X323.858Y-181.27
X326.231Y-265.748
X328.62Y-238.42
X333.383Y-200.32
X338.145Y-219.37
X342.908Y-181.27
X347.671Y-238.42
X352.433Y-200.32
X357.195Y-219.37
X361.958Y-181.27
X361.958Y-257.47
X366.72Y-238.42
X371.483Y-200.32
X376.245Y-219.37
X381.008Y-181.27
X381.008Y-257.47
X390.525Y-246.697
X390.533Y-200.32
X395.287Y-227.647
X397.669Y-189.547
X400.058Y-257.47
X402.439Y-238.42
X407.202Y-219.37
X409.583Y-181.27
X414.337Y-246.697
X414.345Y-200.32
X419.1Y-227.647
X419.108Y-257.47
X421.481Y-189.547
M30
